<svg id="Layer_1" data-name="Layer 1" xmlns="http://www.w3.org/2000/svg" viewBox="0 0 100 100"><title>icon-copyboard</title><path d="M135.39,41v1.3h-50v-62.5h50V41a4.17,4.17,0,0,0,4.17,4.16h0A4.17,4.17,0,0,0,143.73,41V-24.34a4.19,4.19,0,0,0-4.18-4.17H81.23a4.17,4.17,0,0,0-4.17,4.17V46.49a4.17,4.17,0,0,0,4.17,4.17h58.33a4.17,4.17,0,0,0,4.17-4.17V41a4.17,4.17,0,0,0-4.17-4.17h0A4.17,4.17,0,0,0,135.39,41Z" transform="translate(-43.73 49.34)"/><path d="M114.27,7.93V-2.25a4.17,4.17,0,0,0-4.17-4.17h0a4.17,4.17,0,0,0-4.16,4.17V8H96.2A4.17,4.17,0,0,0,92,12.19h0a4.17,4.17,0,0,0,4.17,4.17h9.94V26.53a4.17,4.17,0,0,0,4.17,4.17h0a4.17,4.17,0,0,0,4.17-4.17V16.26h9.74a4.16,4.16,0,0,0,4.16-4.16h0a4.16,4.16,0,0,0-4.16-4.17Z" transform="translate(-43.73 49.34)"/><path d="M70.81,29.82a4.15,4.15,0,0,0-4.16-4.16H52.06V-41h50v2.09a4.17,4.17,0,0,0,4.17,4.16,4.15,4.15,0,0,0,4.16-4.16V-41h0v-4.17a4.16,4.16,0,0,0-4.17-4.16H47.9a4.15,4.15,0,0,0-4.17,4.16v75A4.16,4.16,0,0,0,47.9,34H66.65A4.17,4.17,0,0,0,70.81,29.82Z" transform="translate(-43.73 49.34)"/></svg>