<svg id="katman_1" data-name="katman 1" xmlns="http://www.w3.org/2000/svg" xmlns:xlink="http://www.w3.org/1999/xlink" viewBox="0 0 100 119.51"><defs><style>.cls-1{fill:none;}.cls-2{clip-path:url(#clip-path);}</style><clipPath id="clip-path" transform="translate(39.75 47.51)"><rect class="cls-1" x="-39.75" y="-47.51" width="100" height="119.51"/></clipPath></defs><title>icon-doc-f</title><g class="cls-2"><path d="M10.3,20.79H-9.31a6.07,6.07,0,0,0-6,6.09,6.08,6.08,0,0,0,6,6.1H10.3a6.1,6.1,0,0,0,0-12.19" transform="translate(39.75 47.51)"/><path d="M29.79-18.24H-9.28a6.1,6.1,0,0,0-6.08,6.1A6.1,6.1,0,0,0-9.28-6H29.79a6.09,6.09,0,0,0,6.07-6.1,6.09,6.09,0,0,0-6.07-6.1" transform="translate(39.75 47.51)"/><path d="M29.79,1.27H-9.28a6.1,6.1,0,0,0-6.08,6.1,6.1,6.1,0,0,0,6.08,6.1H29.79a6.1,6.1,0,0,0,0-12.2" transform="translate(39.75 47.51)"/><path d="M49.32-47.51H-28.82a11,11,0,0,0-10.93,11V61A11,11,0,0,0-28.82,72H49.32A11,11,0,0,0,60.25,61V-36.51a11,11,0,0,0-10.93-11M49.32,61h0v0Zm-76.87-1.24,0-81.08c0-7.75,0-11.85-.14-14,8.78,0,66.68,0,75.76,0l0,81.08c0,7.75,0,11.85.14,14-8.79,0-66.69,0-75.76,0" transform="translate(39.75 47.51)"/></g></svg>