<?xml version="1.0" encoding="utf-8"?>
<!-- Generator: Adobe Illustrator 24.3.0, SVG Export Plug-In . SVG Version: 6.00 Build 0)  -->
<svg version="1.1" id="Layer_1" xmlns="http://www.w3.org/2000/svg" xmlns:xlink="http://www.w3.org/1999/xlink" x="0px" y="0px"
	 viewBox="0 0 88.9 81.9" style="enable-background:new 0 0 88.9 81.9;" xml:space="preserve">
<style type="text/css">
	.st0{fill:#878A96;}
</style>
<path class="st0" d="M73.4,25.3H55v-4.1c0-1.3,1.1-2.4,2.4-2.4l0,0h4.5c0.8,2.3,3,3.9,5.5,3.9c3.3-0.4,5.6-3.4,5.2-6.7
	c-0.4-2.7-2.5-4.8-5.2-5.2c-2.5,0-4.7,1.5-5.5,3.9h-4.5c-3.5,0-6.4,2.9-6.4,6.4l0,0v20.6c0.1,1.1,1,2,2.1,2c1,0,1.9-0.9,1.9-1.9v0
	V29.2h18.3v37.3H15.5V29.2l18.3-0.5v13c0.3,1.1,1.4,1.7,2.4,1.4c0.7-0.2,1.3-0.8,1.5-1.5V21c0-3.5-2.8-6.3-6.3-6.4h-4.5
	c-0.8-2.3-3-3.9-5.5-3.9c-3.3,0.4-5.6,3.4-5.2,6.7c0.4,2.7,2.5,4.8,5.2,5.2c2.5,0,4.7-1.5,5.5-3.9h4.5c1.3,0,2.4,1.1,2.4,2.4v3.7
	l-18.3,0.5c-2.2,0-3.9,1.7-3.9,3.9v37.3c0,2.1,1.7,3.8,3.8,3.8c0,0,0.1,0,0.1,0h26.9v7.5H31.2c-1.1,0.1-1.9,0.9-2,2
	c0.1,1.1,0.9,1.9,2,1.9h26.4c1.1-0.2,1.8-1.3,1.5-2.4c-0.2-0.7-0.8-1.3-1.5-1.5H46.3v-7.5h27.1c2.1,0,3.8-1.7,3.9-3.8V29.2
	C77.2,27.1,75.5,25.4,73.4,25.3z M67.4,14.7c1.1,0.1,2,1,1.9,2.1c0,0,0,0,0,0c0,1-0.9,1.9-1.9,1.9s-1.9-0.9-1.9-1.9
	C65.4,15.7,66.3,14.8,67.4,14.7C67.4,14.7,67.4,14.7,67.4,14.7z M21.4,18.7c-1,0.1-1.9-0.7-2-1.8c0,0,0-0.1,0-0.1
	c-0.1-1,0.7-1.9,1.8-2c0.1,0,0.1,0,0.2,0c1,0,1.9,0.8,1.9,1.9c0,0,0,0.1,0,0.1C23.3,17.8,22.4,18.7,21.4,18.7
	C21.4,18.7,21.4,18.7,21.4,18.7z"/>
<path class="st0" d="M42.5,11.6v39.2c0.1,1.1,0.9,1.9,2,2c1.1-0.1,1.9-0.9,1.9-2V11.6c2.3-0.8,3.8-3,3.9-5.4c0.1-3.2-2.5-5.9-5.7-6
	h-0.1c-3.2,0-5.8,2.5-5.9,5.7c-0.1,1.6,0.5,3.1,1.6,4.2C40.9,10.7,41.7,11.2,42.5,11.6z M44.5,4.1c1,0.1,1.9,1,1.9,2
	c0,1.1-0.8,1.9-1.9,2h-0.1c-0.5-0.1-1-0.3-1.4-0.7c-0.4-0.3-0.6-0.9-0.6-1.4C42.5,4.9,43.4,4.1,44.5,4.1z"/>
</svg>
