<svg id="katman_1" data-name="katman 1" xmlns="http://www.w3.org/2000/svg" xmlns:xlink="http://www.w3.org/1999/xlink" viewBox="0 0 100 102.04"><defs><style>
.cls-1{}
.cls-2{}
.cls-3{}
.cls-4{}.cls-5{}
</style><clipPath id="clip-path" transform="translate(10.23 10.44)"><rect class="cls-1" style="fill:none;" x="-10.23" y="-10.44" width="100" height="102.03"/></clipPath></defs><title>icon-c-doc-play</title><rect class="cls-2" style="fill:#cbd2e8;" x="42.04" y="31.04" width="52.93" height="36.44"/><g class="cls-3" style="clip-path:url(#clip-path);"><path class="cls-4" style="fill:#052d67;" d="M67.21,85.22a1.53,1.53,0,0,1-1.53,1.53H-3.86a1.52,1.52,0,0,1-1.52-1.53V12.41H6.22A6.38,6.38,0,0,0,12.59,6V-5.59H23A2.42,2.42,0,0,0,25.43-8,2.42,2.42,0,0,0,23-10.44H10.37a2.41,2.41,0,0,0-1.71.71L-9.52,8.45a2.43,2.43,0,0,0-.71,1.71V85.22A6.38,6.38,0,0,0-3.86,91.6H65.68a6.38,6.38,0,0,0,6.37-6.38V58a29.64,29.64,0,0,1-4.84,1.64ZM7.75-2V6A1.54,1.54,0,0,1,6.22,7.57h-8Z" transform="translate(10.23 10.44)"/><path class="cls-4" style="fill:#052d67;" d="M5.7,70.59H29.56a2.42,2.42,0,1,0,0-4.84H5.7a2.42,2.42,0,1,0,0,4.84" transform="translate(10.23 10.44)"/><path class="cls-4" style="fill:#052d67;" d="M28.81,53.92H5.7a2.43,2.43,0,0,0,0,4.85H28.81Z" transform="translate(10.23 10.44)"/><path class="cls-4" style="fill:#052d67;" d="M28.23,43H5.7a2.43,2.43,0,0,0,0,4.85H28.23Z" transform="translate(10.23 10.44)"/><path class="cls-4" style="fill:#052d67;" d="M30.91-5.59a2.43,2.43,0,0,0,1.71-.71A2.41,2.41,0,0,0,33.33-8a2.41,2.41,0,0,0-.71-1.71,2.5,2.5,0,0,0-3.42,0A2.45,2.45,0,0,0,28.49-8,2.45,2.45,0,0,0,29.2-6.3a2.43,2.43,0,0,0,1.71.71" transform="translate(10.23 10.44)"/><path class="cls-4" style="fill:#052d67;" d="M38.81-5.59H65.68a1.53,1.53,0,0,1,1.53,1.53V17.78a2.34,2.34,0,0,1,.91-.2,1.77,1.77,0,0,1,.94.19,1.87,1.87,0,0,1,.56.34l.06,0L69.44,18a3.75,3.75,0,0,0,.44.24c.37.12.75.23,1.12.33a8,8,0,0,1,1,.34V-4.06a6.38,6.38,0,0,0-6.37-6.38H38.81A2.43,2.43,0,0,0,36.39-8a2.43,2.43,0,0,0,2.42,2.43" transform="translate(10.23 10.44)"/><path class="cls-4" style="fill:#052d67;" d="M85,15.58H31.53a4.75,4.75,0,0,0-4.74,4.74v37a4.75,4.75,0,0,0,4.74,4.74H85a4.75,4.75,0,0,0,4.74-4.74v-37A4.75,4.75,0,0,0,85,15.58M84.74,57H31.81V20.61H84.74Z" transform="translate(10.23 10.44)"/><path class="cls-4" style="fill:#052d67;" d="M67.89,35.23l-15.07-8.7a4.16,4.16,0,0,0-6.23,3.59V47.53a4.1,4.1,0,0,0,2.08,3.59,4.12,4.12,0,0,0,4.15,0l15.07-8.7a4.16,4.16,0,0,0,0-7.19M51.62,46V31.65l12.44,7.18Z" transform="translate(10.23 10.44)"/><polygon class="cls-5" style="fill:#fff;" points="61.85 56.44 61.85 42.08 74.29 49.26 61.85 56.44"/></g></svg>