<svg id="katman_1" data-name="katman 1" xmlns="http://www.w3.org/2000/svg" viewBox="0 0 100 100.87"><title>icon-system-network</title><path d="M71.25,16a14,14,0,0,1-14,14H50.56V12.3C50.56,6,41.72,2.64,33,2.64S15.42,6,15.42,12.3V30H8.72a14,14,0,1,1,.95-28C9.62-6.72,19.56-13.56,28.32-9.22a18.55,18.55,0,0,1,15.42-8.21A18.59,18.59,0,0,1,62.25,2.93,14.06,14.06,0,0,1,71.25,16Z" transform="translate(17 17.43)"/><path d="M83,44.77a3.34,3.34,0,0,1-.27,1.28c-1.32,3-7.13,5.18-14.11,5.18S55.85,49,54.53,46.05a3.34,3.34,0,0,1-.27-1.28c0-3.55,6.44-6.45,14.36-6.45S83,41.22,83,44.77Z" transform="translate(17 17.43)"/><path d="M83,69.46V77c0,3.56-6.44,6.45-14.38,6.45S54.26,80.54,54.26,77V69.46c0,3.55,6.44,6.45,14.36,6.45S83,73,83,69.46Z" transform="translate(17 17.43)"/><path d="M83,58.71v7.53c0,3.55-6.44,6.45-14.38,6.45-5.15,0-14.36-1.81-14.36-6.45V58.71c0,3.56,6.44,6.46,14.36,6.46S83,62.27,83,58.71Z" transform="translate(17 17.43)"/><path d="M83,48V55.5C83,59.06,76.56,62,68.62,62S54.26,59.06,54.26,55.5V48c0,3.55,6.44,6.45,14.36,6.45S83,51.53,83,48Z" transform="translate(17 17.43)"/><path d="M47.36,12.3c0,4.67-9.27,6.45-14.37,6.45S18.62,17,18.62,12.3c0-3.55,6.44-6.45,14.37-6.45S47.36,8.75,47.36,12.3Z" transform="translate(17 17.43)"/><path d="M47.36,37v7.53C47.36,48.06,40.93,51,33,51s-14.37-2.9-14.37-6.45V37c0,3.56,6.44,6.46,14.37,6.46S47.36,40.54,47.36,37Z" transform="translate(17 17.43)"/><path d="M47.36,26.24v7.53c0,3.55-6.43,6.45-14.37,6.45s-14.37-2.9-14.37-6.45V26.24c0,3.56,6.44,6.46,14.37,6.46S47.36,29.8,47.36,26.24Z" transform="translate(17 17.43)"/><path d="M47.36,15.5V23c0,3.55-6.43,6.45-14.37,6.45S18.62,26.58,18.62,23V15.5C18.62,19.06,25.06,22,33,22S47.36,19.06,47.36,15.5Z" transform="translate(17 17.43)"/><path d="M11.74,44.77a3.34,3.34,0,0,1-.27,1.28c-1.32,3-7.13,5.18-14.11,5.18S-15.41,49-16.73,46.05A3.34,3.34,0,0,1-17,44.77c0-3.55,6.44-6.45,14.36-6.45S11.74,41.22,11.74,44.77Z" transform="translate(17 17.43)"/><path d="M11.74,69.46V77c0,3.56-6.44,6.45-14.38,6.45S-17,80.54-17,77V69.46c0,3.55,6.44,6.45,14.36,6.45S11.74,73,11.74,69.46Z" transform="translate(17 17.43)"/><path d="M11.74,58.72v7.52c0,3.56-6.44,6.45-14.38,6.45S-17,69.8-17,66.24V58.72c0,3.55,6.44,6.45,14.36,6.45S11.74,62.27,11.74,58.72Z" transform="translate(17 17.43)"/><path d="M11.74,48V55.5C11.74,59.06,5.3,62-2.64,62S-17,59.06-17,55.5V48c0,3.55,6.44,6.45,14.36,6.45S11.74,51.53,11.74,48Z" transform="translate(17 17.43)"/><path d="M51.38,68.18H39.26a6.47,6.47,0,0,1-12.54,0H14.63A9.52,9.52,0,0,0,14.94,65H26.72a6.47,6.47,0,0,1,4.68-4.66V54.13c.53,0,1.05,0,1.58,0s1.09,0,1.62,0v6.18A6.44,6.44,0,0,1,39.26,65h11.8A9.23,9.23,0,0,0,51.38,68.18Z" transform="translate(17 17.43)"/></svg>