<svg id="svg1035" xmlns="http://www.w3.org/2000/svg" viewBox="0 0 100 91.95"><title>icon-azure</title><g id="layer1"><path id="path923" d="M1265.41,1224.32a12.71,12.71,0,0,1-6.1-5.33c-1.4-2.68-1.29-6.88.27-10.22,1.2-2.48,1.2-2.56.43-3.15-.43-.31-5.6-3.18-11.43-6.33l-11.27-6.1c-.46-.27-1.24,0-2.64.89-4.54,2.87-9.28,2.56-13-.89-2.68-2.49-3.46-4.24-3.46-7.82s.69-5.24,2.91-7.46a10.38,10.38,0,0,1,10.84-2.72c2.1.7,2.14.7,3.46-.31,1.56-1.17,14-12.55,20-18.27l4.16-4-1.24-2.6a11.68,11.68,0,0,1,3.18-14.57c2.41-1.91,4.19-2.49,7.66-2.49a11.73,11.73,0,0,1,10.68,16c-.81,2.1-.81,2.13,0,3.42.66,1.12,11.89,14.68,17.84,21.6a7.32,7.32,0,0,0,2.6,2.18,14,14,0,0,0,3-.86,10.84,10.84,0,0,1,14.3,6c1.56,3.69.2,8.67-3.1,11.66a9.18,9.18,0,0,1-7.16,2.76,8.82,8.82,0,0,1-5.28-1.48c-1.71-.94-3-1.4-3.57-1.25-.93.24-15.28,10.07-18.46,12.63-1.94,1.6-2.1,2.18-1.09,4.55a11.41,11.41,0,0,1-.23,8.27,12.38,12.38,0,0,1-6.8,5.84,9.14,9.14,0,0,1-6.45-.06Zm.66-42.82v-22.16l-1.24-1.7a8.43,8.43,0,0,0-1.48-1.71c-.51,0-25.61,22.81-25.61,23.27a24.92,24.92,0,0,0,.86,2.53,13.36,13.36,0,0,1,.77,4.16c0,1,0,2.22,0,2.6,0,.9,8.43,6.26,21,13.53,3.46,2,4.67,2.52,5.09,2.17s.63-4.74.63-22.69Zm10.65,19.58c16.63-10.45,19.74-12.55,19.93-13.32a30.76,30.76,0,0,0,.32-4.12l.11-3.26-8.47-10.07c-9.09-10.76-12.43-14.42-13.21-14.42a14.38,14.38,0,0,0-3,1.71l-2.56,1.71.11,22.11c.12,19.82.27,23.16,1,23.16.07,0,2.72-1.56,5.79-3.5Z" transform="translate(-1218.2 -1132.99)"/></g></svg>