<svg id="katman_1" data-name="katman 1" xmlns="http://www.w3.org/2000/svg" xmlns:xlink="http://www.w3.org/1999/xlink" viewBox="0 0 100 80.16"><defs><style>.cls-1{fill:none;}.cls-2{clip-path:url(#clip-path);}.cls-3{fill-rule:evenodd;}</style><clipPath id="clip-path" transform="translate(20 16.03)"><rect class="cls-1" x="-20" y="-16.03" width="100" height="80.16"/></clipPath></defs><title>icon-speak-balloon</title><g class="cls-2"><path class="cls-3" d="M48.35,47.3a31.67,31.67,0,0,0,0-63.33H11.65A31.67,31.67,0,0,0,3.41,46.22C3.33,48.84,3.33,59,3.33,59c0,4.65,4.42,6.77,8,3.8L30.12,47.3ZM27.73,40.63l-.92.76L10,55.19V40.74l-2.75-.49a25,25,0,0,1,4.4-49.62h36.7a25,25,0,0,1,0,50H27.73ZM54.08,12.3a3.34,3.34,0,0,0,0-6.67H7.82a3.34,3.34,0,1,0,0,6.67ZM32.83,25.63a3.33,3.33,0,0,0,0-6.66H7.3a3.33,3.33,0,0,0,0,6.66Z" transform="translate(20 16.03)"/></g></svg>