<svg id="katman_1" data-name="katman 1" xmlns="http://www.w3.org/2000/svg" xmlns:xlink="http://www.w3.org/1999/xlink" viewBox="0 0 100 103.04"><defs><style>.cls-1{fill:none;}.cls-2{clip-path:url(#clip-path);}</style><clipPath id="clip-path" transform="translate(3.9 4.02)"><rect class="cls-1" x="-3.9" y="-4.02" width="100" height="103.04"/></clipPath></defs><title>icon-bank</title><rect x="11.5" y="42.19" width="12.36" height="42.3"/><rect x="32.97" y="42.19" width="12.36" height="42.3"/><rect x="54.45" y="42.19" width="12.36" height="42.3"/><rect x="75.92" y="42.19" width="12.36" height="42.3"/><g class="cls-2"><path d="M92.41,85.46H-.43A3.52,3.52,0,0,0-3.9,89v6.4A3.62,3.62,0,0,0-.32,99H92.52a3.62,3.62,0,0,0,3.58-3.58V89a3.87,3.87,0,0,0-3.69-3.58" transform="translate(3.9 4.02)"/><path d="M93.93,18.76,47.51-3.69a3.67,3.67,0,0,0-3,0L-1.95,18.76A3.49,3.49,0,0,0-3.9,21.9v7.7A3.61,3.61,0,0,0-.32,33.18H92.52A3.61,3.61,0,0,0,96.1,29.6V21.9a4.18,4.18,0,0,0-2.17-3.14M46,22.77a6.94,6.94,0,1,1,6.94-6.94A7,7,0,0,1,46,22.77" transform="translate(3.9 4.02)"/></g></svg>