<svg id="katman_1" data-name="katman 1" xmlns="http://www.w3.org/2000/svg" xmlns:xlink="http://www.w3.org/1999/xlink" viewBox="0 0 99.98 79.74"><defs><style>.cls-1{fill:none;}.cls-2{clip-path:url(#clip-path);}</style><clipPath id="clip-path" transform="translate(45.64 36.4)"><rect class="cls-1" x="-45.64" y="-36.39" width="100" height="79.74"/></clipPath></defs><title>icon-screen</title><g class="cls-2"><path d="M-34-35A10.3,10.3,0,0,0-44.2-24.7V19.55A10.28,10.28,0,0,0-34,29.79H42.68A10.29,10.29,0,0,0,52.92,19.55V-24.7A10.3,10.3,0,0,0,42.68-35Zm0,6.07H42.68a4.11,4.11,0,0,1,4.17,4.2V19.55a4.08,4.08,0,0,1-4.17,4.16H-34a4.09,4.09,0,0,1-4.17-4.16V-24.7A4.12,4.12,0,0,1-34-28.9m21.15,64.74a3,3,0,0,0-3.11,3,3,3,0,0,0,3,3.1H21.53a3,3,0,1,0,.14-6.07H-12.82Z" transform="translate(45.64 36.4)"/><path d="M21.6,43.35H-12.82a4.52,4.52,0,0,1-4.54-4.57,4.5,4.5,0,0,1,4.48-4.37H21.53a4.47,4.47,0,1,1,.07,8.94Zm-34.48-6.08a1.61,1.61,0,0,0-1.61,1.57,1.6,1.6,0,0,0,1.56,1.64H21.53a1.55,1.55,0,0,0,1.67-1.57,1.51,1.51,0,0,0-.45-1.14,1.56,1.56,0,0,0-1.12-.5H-12.88Zm55.56-6.05H-34A11.68,11.68,0,0,1-45.64,19.55V-24.7A11.7,11.7,0,0,1-34-36.4H42.68A11.69,11.69,0,0,1,54.34-24.7V19.55A11.67,11.67,0,0,1,42.68,31.22ZM-34-33.53a8.83,8.83,0,0,0-8.8,8.83V19.55A8.82,8.82,0,0,0-34,28.36H42.68a8.82,8.82,0,0,0,8.8-8.81V-24.7a8.83,8.83,0,0,0-8.8-8.83ZM42.68,25.15H-34a5.54,5.54,0,0,1-5.6-5.6V-24.7A5.55,5.55,0,0,1-34-30.33H42.68a5.55,5.55,0,0,1,5.6,5.63V19.55A5.54,5.54,0,0,1,42.68,25.15ZM-34-27.46A2.68,2.68,0,0,0-36.7-24.7V19.55A2.67,2.67,0,0,0-34,22.28H42.68a2.65,2.65,0,0,0,2.74-2.73V-24.7a2.69,2.69,0,0,0-2.74-2.76Z" transform="translate(45.64 36.4)"/></g></svg>