<svg id="katman_1" data-name="katman 1" xmlns="http://www.w3.org/2000/svg" xmlns:xlink="http://www.w3.org/1999/xlink" viewBox="0 0 100 89.54"><defs><style>.cls-1{fill:none;}.cls-2{clip-path:url(#clip-path);}</style><clipPath id="clip-path" transform="translate(40.49 36.26)"><rect class="cls-1" x="-40.49" y="-36.26" width="100" height="89.53"/></clipPath></defs><title>icon-laptop-global</title><g class="cls-2"><path d="M56.88,48H49V-7.21a2.63,2.63,0,0,0-2.63-2.63h-29L17-12a28.72,28.72,0,0,0-11.7-18.8,28.78,28.78,0,0,0-21.57-5,28.8,28.8,0,0,0-18.8,11.7,28.79,28.79,0,0,0-5,21.56,29,29,0,0,0,9.31,16.89l.87.78V48h-7.89a2.63,2.63,0,0,0-2.63,2.63,2.64,2.64,0,0,0,2.63,2.63H56.88a2.63,2.63,0,0,0,0-5.26M4.37-24.93a23.57,23.57,0,0,1,7,11.84l.8,3.25H1.82L1.65-12.3a57.31,57.31,0,0,0-1.6-10l-2.17-8.56Zm8,20.35L11.55-1.3A23.44,23.44,0,0,1,4.34,10.53l-6.4,5.67L.05,7.92a57.16,57.16,0,0,0,1.6-10l.17-2.45ZM-19.4-12.5a29.41,29.41,0,0,1,5.78-17.32l2.11-2.86,2.12,2.86A29.34,29.34,0,0,1-3.62-12.5l0,2.66H-19.42ZM-3.59-4.58l0,2.65A29.34,29.34,0,0,1-9.39,15.39l-2.12,2.87-2.11-2.87A29.41,29.41,0,0,1-19.4-1.93l0-2.65Zm-31-8.58A23.64,23.64,0,0,1-27.1-25l6.51-5.58-2.27,8.27a58,58,0,0,0-1.81,10.06l-.21,2.4H-35.45Zm.2,11.83-.8-3.25h10.33l.17,2.45a57.65,57.65,0,0,0,1.6,10.05l2.17,8.56-6.5-6a23.57,23.57,0,0,1-7-11.83M43.73,48H-24.66V18.79L-21.15,20A29,29,0,0,0,15.76,2.36,30.5,30.5,0,0,0,17-2.4l.37-2.18H43.73Z" transform="translate(40.49 36.26)"/></g></svg>