<svg id="katman_1" data-name="katman 1" xmlns="http://www.w3.org/2000/svg" xmlns:xlink="http://www.w3.org/1999/xlink" viewBox="0 0 100 100"><defs><style>.cls-1{fill:none;}.cls-2{clip-path:url(#clip-path);}</style><clipPath id="clip-path" transform="translate(34 34)"><rect class="cls-1" x="-34" y="-34" width="100" height="100"/></clipPath></defs><title>icon-code-browser</title><g class="cls-2"><path d="M48.81-34H-16.81A17.22,17.22,0,0,0-34-16.81v9.37H66v-9.37A17.22,17.22,0,0,0,48.81-34M-11.94-16.63a4.65,4.65,0,0,1-3.31,1.38,4.7,4.7,0,0,1-3.31-1.38,4.6,4.6,0,0,1-1.38-3.31,4.72,4.72,0,0,1,1.38-3.31,4.89,4.89,0,0,1,6.62,0,4.72,4.72,0,0,1,1.38,3.31,4.65,4.65,0,0,1-1.38,3.31m14.06,0a4.65,4.65,0,0,1-3.31,1.38A4.67,4.67,0,0,1-4.5-16.63a4.69,4.69,0,0,1-1.38-3.31A4.77,4.77,0,0,1-4.5-23.25a4.86,4.86,0,0,1,6.62,0A4.72,4.72,0,0,1,3.5-19.94a4.6,4.6,0,0,1-1.38,3.31m45.13,1.38H25.37a4.68,4.68,0,0,1-4.68-4.69,4.7,4.7,0,0,1,4.68-4.69H47.25a4.7,4.7,0,0,1,4.69,4.69,4.68,4.68,0,0,1-4.69,4.69M-34,1.94V48.81A17.2,17.2,0,0,0-16.81,66H48.81A17.2,17.2,0,0,0,66,48.81V1.94ZM.56,42.38A4.64,4.64,0,0,1,.56,49a4.57,4.57,0,0,1-3.31,1.37A4.55,4.55,0,0,1-6.06,49l-12.5-12.5a4.67,4.67,0,0,1,0-6.63l12.5-12.5a4.71,4.71,0,0,1,6.62,0A4.65,4.65,0,0,1,.56,24l-9.18,9.19ZM26.69,17.56,14.19,53.5a4.69,4.69,0,0,1-4.44,3.12,4.31,4.31,0,0,1-1.53-.25,4.69,4.69,0,0,1-2.91-6l12.5-35.93a4.7,4.7,0,0,1,8.88,3.09M50.56,36.5,38.06,49a4.68,4.68,0,0,1-6.62,0,4.64,4.64,0,0,1,0-6.62l9.18-9.19L31.44,24a4.65,4.65,0,0,1,0-6.63,4.71,4.71,0,0,1,6.62,0l12.5,12.5a4.65,4.65,0,0,1,0,6.63" transform="translate(34 34)"/></g></svg>