<?xml version="1.0" encoding="utf-8"?>
<!-- Generator: Adobe Illustrator 24.3.0, SVG Export Plug-In . SVG Version: 6.00 Build 0)  -->
<svg version="1.1" id="Layer_1" xmlns="http://www.w3.org/2000/svg" xmlns:xlink="http://www.w3.org/1999/xlink" x="0px" y="0px"
	 viewBox="0 0 88.9 81.9" style="enable-background:new 0 0 88.9 81.9;" xml:space="preserve">
<g>
	<path d="M34.6,0H4.3C1.9,0,0,1.9,0,4.3v27.5c0,2.4,1.9,4.3,4.3,4.3h30.3c2.4,0,4.3-1.9,4.3-4.3V4.3C38.9,1.9,37,0,34.6,0z"/>
	<path d="M54.3,81.9h30.3c2.4,0,4.3-1.9,4.3-4.3V49.7c0-2.4-1.9-4.3-4.3-4.3H54.3c-2.4,0-4.3,1.9-4.3,4.3v27.8
		C50,80,51.9,81.9,54.3,81.9z"/>
	<path d="M0,49.7v27.8c0,2.4,1.9,4.3,4.3,4.3h30.3c2.4,0,4.3-1.9,4.3-4.3V49.7c0-2.4-1.9-4.3-4.3-4.3H4.3C1.9,45.4,0,47.4,0,49.7z"
		/>
	<path d="M50,4.3v27.5c0,2.4,1.9,4.3,4.3,4.3h30.3c2.4,0,4.3-1.9,4.3-4.3V4.3C88.9,1.9,87,0,84.6,0H54.3C51.9,0,50,1.9,50,4.3z"/>
</g>
</svg>
