<svg id="katman_1" data-name="katman 1" xmlns="http://www.w3.org/2000/svg" xmlns:xlink="http://www.w3.org/1999/xlink" viewBox="0 0 100 76.98"><defs><style>.cls-1{fill:none;}.cls-2{clip-path:url(#clip-path);}</style><clipPath id="clip-path" transform="translate(-408.78 -314.67)"><rect class="cls-1" x="408.78" y="314.67" width="100" height="76.98"/></clipPath></defs><title>icon-users</title><g class="cls-2"><path d="M508.77,380.88v-4.1c0-.11,0-.21,0-.32a25.79,25.79,0,0,0-13.62-22.29c-.66-.34-1.33-.65-2-.94.43-.38.84-.77,1.24-1.18a21.54,21.54,0,0,0,5.84-11.57,24.15,24.15,0,0,0,.34-3.73c0-.12,0-.23,0-.35a21.92,21.92,0,0,0-3.95-12.25,23,23,0,0,0-10.8-8.23,22.14,22.14,0,0,0-24.17,6.57,22.52,22.52,0,0,0-5.17,12.7,22,22,0,0,0,3.13,13,22.76,22.76,0,0,0,4.2,5,27.18,27.18,0,0,0-6.52,4,24.12,24.12,0,0,0-4.94,5.61,23.63,23.63,0,0,0-5-3.36A18.35,18.35,0,0,0,453,349.18a20.47,20.47,0,0,0,.34-3.45v-.06h0v-.1a19.06,19.06,0,0,0-10.65-16.89,18.71,18.71,0,0,0-5-1.62,20.86,20.86,0,0,0-6.26,0,18.91,18.91,0,0,0-14.8,24.8,19.35,19.35,0,0,0,5,7.63,24.53,24.53,0,0,0-5.28,3.65,22.69,22.69,0,0,0-5.23,7.11,24.28,24.28,0,0,0-2.25,8.52c-.09,1.19-.08,2.41-.07,3.59,0,.41,0,.83,0,1.24v1.94a6.08,6.08,0,0,0,3.28,5.39,10.8,10.8,0,0,0,5.09.71h36.75l.28,0h.22l.38,0h47.34a9,9,0,0,0,1.62-.14,6.28,6.28,0,0,0,5-6.23c0-1.46,0-2.94,0-4.37M441.5,336.16l.1.44-.07.09h-.09a.56.56,0,0,1,.05-.54h0m24.87-8.34.53.07a.57.57,0,0,1-.55,0l0,0m.11.79c.16-.24.33-.47.48-.68l0-.05.05-.05h0a16.34,16.34,0,0,1,1.17-1.28c.35-.35.75-.72,1.22-1.12l.23-.18.05,0a4.81,4.81,0,0,1,.49-.34h0a16.85,16.85,0,0,1,2.65-1.46,17.83,17.83,0,0,1,3.57-1,18.91,18.91,0,0,1,4,0,17.65,17.65,0,0,1,3.6,1,17.37,17.37,0,0,1,2.57,1.41l.68.47,0,0,.05.05h0c.47.4.89.78,1.28,1.17s.72.75,1.12,1.22l.19.23,0,.05c.12.17.23.33.33.49h0a17.74,17.74,0,0,1,1.47,2.65,13.74,13.74,0,0,1,1.09,5.56h0a18.17,18.17,0,0,1-.11,1.94,18.79,18.79,0,0,1-1,3.65,20,20,0,0,1-1.41,2.56l-.48.68,0,0-.05.05h0a16.54,16.54,0,0,1-1.17,1.29c-.35.35-.75.71-1.22,1.12l-.23.18-.05,0-.48.34h0a14.36,14.36,0,0,1-10.2,2.44,18.29,18.29,0,0,1-3.6-1,17.69,17.69,0,0,1-2.56-1.41l-.69-.48,0,0-.05-.05h0c-.47-.39-.89-.77-1.28-1.16s-.72-.75-1.12-1.23c-.06-.07-.12-.15-.19-.22l0-.06q-.18-.24-.33-.48h0a14.1,14.1,0,0,1-2.44-6.23,18.91,18.91,0,0,1,0-4,18.29,18.29,0,0,1,1-3.6,18.7,18.7,0,0,1,1.41-2.56m24,17.09-.53-.07a.55.55,0,0,1,.55,0l0,0m-21,3.12.06-.52a.51.51,0,0,1,0,.54l0,0m17.87-24.13-.06.53a.55.55,0,0,1,0-.55l0,0M448.12,384H416.4c0-.24,0-.47,0-.71s0-.77,0-1.15v-.42a35.39,35.39,0,0,1,.12-3.56,20.31,20.31,0,0,1,1.06-3.89,18.56,18.56,0,0,1,1.61-2.91l.44-.63.06-.08.15-.18c.33-.4.72-.82,1.17-1.29s.8-.77,1.27-1.16l.18-.14.06-.05c.21-.16.44-.32.65-.46a18.56,18.56,0,0,1,2.91-1.61A19.79,19.79,0,0,1,430,364.7a32.22,32.22,0,0,1,3.67-.12h1.42a34.41,34.41,0,0,1,3.82.13,19.86,19.86,0,0,1,3.86,1.05,18,18,0,0,1,2.11,1.1c.36.21.73.46,1.18.77l.07.05.14.09,0,0,.17.14.13.1h0a22,22,0,0,1,2,1.88c.13.14.25.28.37.43-.2.8-.35,1.59-.47,2.38h0c0,.21-.06.42-.08.63v0a42.33,42.33,0,0,0-.27,5.26c0,.73,0,1.46,0,2.18V384m-20-29.05h0l-.33-.23h0l0,0-.24-.18c-.32-.26-.62-.54-.92-.83s-.59-.62-.85-.93h0l-.09-.1-.09-.13-.24-.34a14,14,0,0,1-1.2-2.14,14.85,14.85,0,0,1-.76-2.8,15.2,15.2,0,0,1,0-3.09,16.35,16.35,0,0,1,.77-2.82,15.46,15.46,0,0,1,1.16-2.09l.18-.25.14-.19h0l0,0c.27-.31.59-.68.93-1s.57-.55,1-.89a.58.58,0,0,1,.12-.1l.06-.05a2.62,2.62,0,0,1,.34-.24,13.52,13.52,0,0,1,2.09-1.17,14.23,14.23,0,0,1,2.77-.76,11.38,11.38,0,0,1,6,.76,15.33,15.33,0,0,1,2.08,1.16l.25.18.2.14h0l0,0c.32.27.68.59,1,.93s.55.57.9,1l.1.12.05.06.24.34a15.41,15.41,0,0,1,1.17,2.09,14.74,14.74,0,0,1,.75,2.75,15.07,15.07,0,0,1,.09,1.62h0c0,.53,0,1-.08,1.56a10.9,10.9,0,0,1-2,4.92l-.11.17-.07.1,0,.06,0,0-.08.09-.12.14a12.71,12.71,0,0,1-.89,1,12.09,12.09,0,0,1-.92.83l-.11.08-.44.31a10.93,10.93,0,0,1-4.85,1.92c-.45,0-.91.07-1.36.08h-.44c-.44,0-.88,0-1.31-.07a15.32,15.32,0,0,1-2.75-.75,14.08,14.08,0,0,1-2.1-1.17m13.46-18.24.06-.09,0,.08h-.08m1.91,16.19.14.12-.13-.1v0m0,.05.16.11,0,0,0,.05a.46.46,0,0,1-.16-.21m12.27,30.92c0-.25,0-.5,0-.75s0-.76,0-1.14v-5.33a2.09,2.09,0,0,1,0-.25v-.15a1.55,1.55,0,0,1,0-.22v-.16a1.34,1.34,0,0,0,0-.2.81.81,0,0,0,0-.16,1.21,1.21,0,0,0,0-.19.81.81,0,0,0,0-.16c0-.06,0-.12,0-.19s0-.1,0-.15,0-.12,0-.18a.78.78,0,0,1,0-.16s0-.11,0-.17,0-.26.07-.39a.68.68,0,0,0,0-.14,1.24,1.24,0,0,1,0-.16,17.23,17.23,0,0,1,2.9-7c.19-.28.37-.54.55-.78l.05-.05a.76.76,0,0,1,.11-.14v0c.43-.51.88-1,1.39-1.52s.83-.79,1.33-1.21a1.4,1.4,0,0,0,.18-.13l.3-.26.7-.49a17.42,17.42,0,0,1,7.64-3,38.4,38.4,0,0,1,4.42-.14h7.07a26.87,26.87,0,0,1,3,.14,17.5,17.5,0,0,1,7.69,3l.73.52.26.21a.58.58,0,0,0,.12.1c.45.38.91.79,1.39,1.26s.92,1,1.33,1.46c.05.06.1.13.16.19a.64.64,0,0,0,.1.13c.17.23.34.47.5.72a21,21,0,0,1,1.84,3.32,22.2,22.2,0,0,1,1.17,4.24,26.24,26.24,0,0,1,.15,2.63h0v4.39c0,.47,0,.94,0,1.41s0,.94,0,1.41H455.74v-.14M447,367.63h0a.55.55,0,0,1-.2.15l.17-.18,0,0m-21.48-29-.09-.06h.08a.17.17,0,0,1,0,.07m-.53,0,.43-.09.1.07h0v.08a.56.56,0,0,1-.54-.05v0" transform="translate(-408.78 -314.67)"/></g></svg>