<svg id="katman_1" data-name="katman 1" xmlns="http://www.w3.org/2000/svg" xmlns:xlink="http://www.w3.org/1999/xlink" viewBox="0 0 17.61 25.53"><defs><style>.cls-1{fill:none;}.cls-2{clip-path:url(#clip-path);}</style><clipPath id="clip-path" transform="translate(0 0)"><rect class="cls-1" width="17.61" height="25.53"/></clipPath></defs><title>icon-map-pin</title><g class="cls-2" style="fill:#363c5299;"><path d="M8.81,5a3.75,3.75,0,1,0,3.75,3.75A3.75,3.75,0,0,0,8.81,5m0,6a2.25,2.25,0,1,1,2.25-2.25A2.25,2.25,0,0,1,8.81,11" transform="translate(0 0)"/><path d="M16.58,4.79h0A8.68,8.68,0,0,0,9.6,0c-.26,0-.53,0-.79,0S8.27,0,8,0A8.68,8.68,0,0,0,1,4.78a9.22,9.22,0,0,0,.27,9L8.16,25.16a.74.74,0,0,0,1,.26.65.65,0,0,0,.26-.26l6.86-11.43a9.18,9.18,0,0,0,.27-8.94M15,13,8.81,23.32,2.59,13a7.68,7.68,0,0,1-.22-7.5A7,7,0,0,1,8.12,1.53H9.46a7.06,7.06,0,0,1,5.79,3.94A7.68,7.68,0,0,1,15,13" transform="translate(0 0)"/></g></svg>