<svg id="katman_1" data-name="katman 1" xmlns="http://www.w3.org/2000/svg" xmlns:xlink="http://www.w3.org/1999/xlink" viewBox="0 0 121.21 114.24"><defs>
<style>.cls-1{fill:none;}.cls-2{clip-path:url(#clip-path);}.cls-3{fill:#fff;}.cls-4{clip-path:url(#clip-path-2);}.cls-5{clip-path:url(#clip-path-3);}.cls-6{fill:#65d9d9;}.cls-7{fill:#64d8d8;}.cls-8{clip-path:url(#clip-path-4);}.cls-9{clip-path:url(#clip-path-5);}</style>
<clipPath id="clip-path" transform="translate(272 29.41)">
<rect class="cls-1" style="fill:none;" x="-272" y="-29.41" width="121.21" height="114.24"/>
</clipPath>
<clipPath id="clip-path-2" transform="translate(272 29.41)">
<polygon class="cls-1" style="fill:none;" points="-197.26 9.84 -197.26 39.32 -179.06 39.32 -179.06 -1.7 -197.26 9.84"/></clipPath><clipPath id="clip-path-3" transform="translate(272 29.41)"><rect class="cls-1" style="fill:none;" x="-197.26" y="-1.7" width="18.2" height="41.02"/></clipPath><clipPath id="clip-path-4" transform="translate(272 29.41)"><polygon class="cls-1" style="fill:none;" points="-243.73 39.32 -225.53 39.32 -225.53 24.14 -243.73 5.94 -243.73 39.32"/></clipPath><clipPath id="clip-path-5" transform="translate(272 29.41)"><rect class="cls-1" style="fill:none;" x="-243.73" y="5.94" width="18.2" height="33.38"/></clipPath></defs><title>icon-statistic-up</title><g class="cls-2" style="clip-path:url(#clip-path);"><path class="cls-3" style="fill:#fff;" d="M-220.86,7.87a2.57,2.57,0,0,0,1.35-.39l19.16-12.15s0,0,0,0a2.51,2.51,0,0,0,1.75,1.55,2.62,2.62,0,0,0,.61.08,2.52,2.52,0,0,0,2.44-1.92l1.15-4.66a2.5,2.5,0,0,0-.46-2.16,2.55,2.55,0,0,0-2-1h-4.51a2.63,2.63,0,0,0-2.65,2.17,2.5,2.5,0,0,0,.48,1.85s0,0,0,.06L-222.06,3.13a2.64,2.64,0,0,0-1,3.36,2.51,2.51,0,0,0,2.24,1.38" transform="translate(272 29.41)"/><path class="cls-3" style="fill:#fff;" d="M-231-24.38a2.54,2.54,0,0,0,1.78-.74,2.5,2.5,0,0,0,.74-1.77,2.54,2.54,0,0,0-.74-1.78,2.54,2.54,0,0,0-1.78-.74,2.54,2.54,0,0,0-1.78.74,2.52,2.52,0,0,0-.74,1.78,2.5,2.5,0,0,0,.74,1.77,2.54,2.54,0,0,0,1.78.74" transform="translate(272 29.41)"/><path class="cls-3" style="fill:#fff;" d="M-160.9-29.39h-57.22a2.51,2.51,0,0,0-2.52,2.51,2.52,2.52,0,0,0,2.52,2.52h57.26l.45,0h.12l.43.07h.05l.37.1.14,0,.35.13.15.07.24.11.18.1.18.11a2.11,2.11,0,0,1,.31.21l.1.07a5.48,5.48,0,0,1,.66.61l0,0a6,6,0,0,1,.56.76l-66,41.85a0,0,0,0,1,0,0L-244.32-1.76a2.55,2.55,0,0,0-3.61,0l-19,19s-.07,0-.07,0V-19.28a5.08,5.08,0,0,1,5.08-5.08h18.59a2.51,2.51,0,0,0,2.51-2.52,2.51,2.51,0,0,0-2.51-2.51h-18.59A10.11,10.11,0,0,0-272-19.28V50.06a10.11,10.11,0,0,0,10.11,10.11H-224s0,0,0,0V68.7s0,0,0,0a13.6,13.6,0,0,0-13,13.59,2.54,2.54,0,0,0,2.56,2.5h46.23a2.54,2.54,0,0,0,2.56-2.5,13.6,13.6,0,0,0-13.05-13.59s0,0,0,0V60.22s0,0,0,0h37.86a10.11,10.11,0,0,0,10.11-10.11V-19.28A10.11,10.11,0,0,0-160.9-29.39M-197.24,9.83l18.12-11.49s.06,0,.06,0v40.9a0,0,0,0,1,0,0h-18.12a0,0,0,0,1,0,0V9.86s0,0,0,0m-23.24,14.72,18.12-11.48a0,0,0,0,1,.07,0V39.28a0,0,0,0,1,0,0h-18.13a0,0,0,0,1,0,0V24.59a.05.05,0,0,1,0,0M-243.66,6l18.12,18.12a0,0,0,0,1,0,0V39.28a0,0,0,0,1,0,0h-18.12a0,0,0,0,1,0,0V6a0,0,0,0,1,.07,0m52.47,73.79H-231.6a0,0,0,0,1,0-.06,8.57,8.57,0,0,1,8.16-6h24.17a8.57,8.57,0,0,1,8.16,6,0,0,0,0,1,0,.06m-27.76-11.11V60.22s0,0,0,0h15s0,0,0,0v8.47a0,0,0,0,1,0,0h-15a0,0,0,0,1,0,0m63.13-18.59a5,5,0,0,1-5,5H-261.93a5,5,0,0,1-5-5V24.41a0,0,0,0,1,0,0l18.13-18.13a0,0,0,0,1,.07,0v33a0,0,0,0,1-.05,0h-.37a2.63,2.63,0,0,0-2.68,2.29,2.51,2.51,0,0,0,2.5,2.74h93.5a0,0,0,0,1,0,0Zm0-10.78H-174a0,0,0,0,1-.05,0V-4.86a.05.05,0,0,1,0,0l18.13-11.48s.06,0,.06,0V39.28a0,0,0,0,1,0,0" transform="translate(272 29.41)"/></g><g class="cls-4" style="clip-path:url(#clip-path-2);"><g class="cls-5" style="clip-path:url(#clip-path-3);"><path class="cls-6" style="fill:#65d9d9;" d="M-197.26-1.7v0Z" transform="translate(272 29.41)"/><rect class="cls-6" style="fill:#65d9d9;" x="74.74" y="27.71" width="9.1" height="41.02"/><rect class="cls-7" style="fill:#64d8d8;" x="83.84" y="27.71" width="9.1" height="41.02"/></g></g><g class="cls-8" style="clip-path: url(#clip-path-4);"><g class="cls-9" style="clip-path:url(#clip-path-5);"><rect class="cls-6" style="fill:#65d9d9;" x="28.27" y="35.35" width="9.1" height="33.38"/><rect class="cls-7" style="fill:#64d8d8;" x="37.37" y="35.35" width="9.1" height="33.38"/><path class="cls-7" style="fill:#64d8d8;" d="M-225.53,39.32v0Z" transform="translate(272 29.41)"/></g></g></svg>