<svg id="katman_1" data-name="katman 1" xmlns="http://www.w3.org/2000/svg" viewBox="0 0 100 133.62"><defs><style>.cls-1{fill-rule:evenodd;}</style></defs><title>icon-arrow-twins</title><path class="cls-1" d="M-123.07,6.07l-3.63-3.46a5.28,5.28,0,0,0-7.23,0l-37.65,36.05-37.66-36a5.28,5.28,0,0,0-7.23,0l-3.62,3.46a4.76,4.76,0,0,0,0,6.92l44.89,43A5.26,5.26,0,0,0-168,56l44.89-43A4.75,4.75,0,0,0-123.07,6.07Z" transform="translate(221.58 76.22)"/><path class="cls-1" d="M-220.08-24.89l3.62,3.46a5.28,5.28,0,0,0,7.23,0l37.65-36,37.66,36.05a5.28,5.28,0,0,0,7.23,0l3.62-3.46a4.76,4.76,0,0,0,0-6.92l-44.89-43a5.28,5.28,0,0,0-7.23,0l-44.89,43A4.74,4.74,0,0,0-220.08-24.89Z" transform="translate(221.58 76.22)"/></svg>