<svg id="katman_1" data-name="katman 1" xmlns="http://www.w3.org/2000/svg" xmlns:xlink="http://www.w3.org/1999/xlink" viewBox="0 0 117.95 115.18"><defs><style>.cls-1{fill:none;}.cls-2{clip-path:url(#clip-path);}.cls-3{fill:#fff;}.cls-4{clip-path:url(#clip-path-2);}.cls-5{fill:#65d9d9;}.cls-6{fill:#64d8d8;}.cls-7{clip-path:url(#clip-path-4);}</style><clipPath id="clip-path" transform="translate(281 4.98)"><rect class="cls-1" x="-281" y="-4.98" width="117.95" height="115.18"/></clipPath><clipPath id="clip-path-2" transform="translate(281 4.98)"><rect class="cls-1" x="-219.48" y="83.32" width="23.13" height="21.9"/></clipPath><clipPath id="clip-path-4" transform="translate(281 4.98)"><rect class="cls-1" x="-275.91" y="99.45" width="23.13" height="5.77"/></clipPath></defs><title>icon-ranking-up</title><g class="cls-2"><path class="cls-3" d="M-269.28,76.69a2.58,2.58,0,0,0,1.8-.73,2.47,2.47,0,0,0,.74-1.76,2.49,2.49,0,0,0-.74-1.76,2.62,2.62,0,0,0-1.8-.73,2.62,2.62,0,0,0-1.8.73,2.49,2.49,0,0,0-.74,1.76,2.47,2.47,0,0,0,.74,1.76,2.58,2.58,0,0,0,1.8.73" transform="translate(281 4.98)"/><path class="cls-3" d="M-165.59,67.59h-5.14v-34H-167a2.57,2.57,0,0,0,2.2-1.25,2.47,2.47,0,0,0,0-2.49L-177.5,8.36a2.54,2.54,0,0,0-2.2-1.24,2.55,2.55,0,0,0-2.2,1.24l-12.71,21.5a2.42,2.42,0,0,0,0,2.49,2.55,2.55,0,0,0,2.2,1.25h3.74v34h-5.14a2.52,2.52,0,0,0-2.54,2.49v8.26H-222a2.52,2.52,0,0,0-2.55,2.49v4.68h-12.08a7.2,7.2,0,0,0,.42-2.44V57.5a11.59,11.59,0,0,0-11.71-11.44h-2.47V44a8.24,8.24,0,0,0,2.91.53h11.9a7,7,0,0,0,7-6.88,7,7,0,0,0-7-6.88h-5.65V28.44a15.13,15.13,0,0,0-10.89-14.37A10.35,10.35,0,0,0-250,7.73V5.68A10.8,10.8,0,0,0-260.91-5,10.8,10.8,0,0,0-271.82,5.68V7.73A10.37,10.37,0,0,0-269.75,14,15.08,15.08,0,0,0-281,28.44V40.05a11.53,11.53,0,0,0,9.18,11.16v14a2.51,2.51,0,0,0,2.54,2.49,2.52,2.52,0,0,0,2.55-2.49V51h18.79a6.57,6.57,0,0,1,6.63,6.47V83.07a2.48,2.48,0,0,1-2.51,2.44,2.47,2.47,0,0,1-2.5-2.44V60.21a2.52,2.52,0,0,0-2.54-2.49H-259.2a2.52,2.52,0,0,0-2.54,2.49V92a2.47,2.47,0,0,1-2.5,2.43A2.46,2.46,0,0,1-266.73,92V83.16a2.53,2.53,0,0,0-2.55-2.49,2.52,2.52,0,0,0-2.54,2.49V92a7.18,7.18,0,0,0,.42,2.43h-7.05A2.52,2.52,0,0,0-281,97v10.75a2.52,2.52,0,0,0,2.55,2.49h112.86a2.51,2.51,0,0,0,2.54-2.49V70.08a2.52,2.52,0,0,0-2.54-2.49M-266.73,5.68A5.76,5.76,0,0,1-260.91,0a5.76,5.76,0,0,1,5.83,5.68V7.73a5.76,5.76,0,0,1-5.83,5.68,5.76,5.76,0,0,1-5.82-5.68Zm13.78,22.55a2.53,2.53,0,0,0-2.55,2.49V46.06h-11.23V30.72a2.53,2.53,0,0,0-2.55-2.49,2.52,2.52,0,0,0-2.54,2.49V46a6.46,6.46,0,0,1-4.09-6V28.44a10.19,10.19,0,0,1,10.3-10h9a10.19,10.19,0,0,1,10.3,10.05v4.77a2.52,2.52,0,0,0,2.55,2.48h8.19a1.94,1.94,0,0,1,2,1.91,1.94,1.94,0,0,1-2,1.91h-11.9a2.89,2.89,0,0,1-2.91-2.84v-6a2.52,2.52,0,0,0-2.54-2.49m.17,77h-23.13V99.45h23.13Zm0-17.22v6.47h-4.3a7.18,7.18,0,0,0,.42-2.43V62.7h5.25V83.07a7.28,7.28,0,0,0,.46,2.54A2.49,2.49,0,0,0-252.78,88m28.21,17.22h-23.12V90.49h23.12Zm28.22,0h-23.13V83.32h23.13Zm10.23-76.6H-188l8.3-14,8.3,14h-1.88a2.51,2.51,0,0,0-2.54,2.49V67.59h-7.76V31.11a2.51,2.51,0,0,0-2.54-2.49m18,76.6h-23.12V72.57h23.12Z" transform="translate(281 4.98)"/><path class="cls-3" d="M-184.33,62.89a2.48,2.48,0,0,0,.75-1.77,2.48,2.48,0,0,0-.75-1.76,2.58,2.58,0,0,0-1.79-.73,2.6,2.6,0,0,0-1.8.73,2.5,2.5,0,0,0-.75,1.76,2.53,2.53,0,0,0,.75,1.77,2.59,2.59,0,0,0,1.8.72,2.57,2.57,0,0,0,1.79-.72" transform="translate(281 4.98)"/></g><g class="cls-4"><g class="cls-4"><rect class="cls-5" x="61.52" y="88.3" width="11.56" height="21.9"/><rect class="cls-6" x="73.08" y="88.3" width="11.56" height="21.9"/><path class="cls-6" d="M-196.35,105.22v0Z" transform="translate(281 4.98)"/></g></g><g class="cls-7"><g class="cls-7"><path class="cls-5" d="M-275.91,99.45v0Z" transform="translate(281 4.98)"/><rect class="cls-5" x="5.09" y="104.43" width="11.56" height="5.77"/><rect class="cls-6" x="16.65" y="104.43" width="11.56" height="5.77"/><path class="cls-6" d="M-252.78,105.22v0Z" transform="translate(281 4.98)"/></g></g></svg>