<svg id="katman_1" data-name="katman 1" xmlns="http://www.w3.org/2000/svg" xmlns:xlink="http://www.w3.org/1999/xlink" viewBox="0 0 100 125.99"><defs><style>.cls-1{fill:none;}.cls-2{clip-path:url(#clip-path);}</style><clipPath id="clip-path" transform="translate(12.3 15.5)"><rect class="cls-1" x="-12.3" y="-15.5" width="100" height="125.99"/></clipPath></defs><title>icon-quest-book</title><g class="cls-2"><path d="M3.75,89.41H82.26A5.46,5.46,0,0,0,87.7,84v-94a5.46,5.46,0,0,0-5.44-5.44H-6.86a5.46,5.46,0,0,0-5.44,5.44V94.45a16,16,0,0,0,16.05,16H82.26a5.44,5.44,0,0,0,0-10.88H3.75a5.11,5.11,0,0,1,0-10.21m-5-93.9H76.82V78.4H3.75a16,16,0,0,0-5,.8Z" transform="translate(12.3 15.5)"/><path d="M21.92,27.61h4.37A3.15,3.15,0,0,0,29.48,25C30,21.9,31.86,18.19,38,18.19c4.64,0,6.49,2.39,7.29,3.85a6.08,6.08,0,0,1-.4,6.36,15.63,15.63,0,0,1-4.11,3.85c-3.71,2.65-6.9,5.44-7.43,13.26a3.12,3.12,0,0,0,.8,2.39A3.33,3.33,0,0,0,36.51,49h4.37A3.2,3.2,0,0,0,44.07,46c.26-3,.92-3.58,2.91-4.91a24.66,24.66,0,0,0,6.64-6.23,16.88,16.88,0,0,0,1.32-17.64c-3-6.1-9.41-9.81-16.84-9.81-12.34,0-18,8.88-19.1,16.58a2.94,2.94,0,0,0,.8,2.52,2.25,2.25,0,0,0,2.12,1.06" transform="translate(12.3 15.5)"/><path d="M38.5,53.47A6.5,6.5,0,1,1,32,60a6.49,6.49,0,0,1,6.5-6.5" transform="translate(12.3 15.5)"/></g></svg>