<svg id="katman_1" data-name="katman 1" xmlns="http://www.w3.org/2000/svg" xmlns:xlink="http://www.w3.org/1999/xlink" viewBox="0 0 100 126.37"><defs><style>.cls-1{fill:none;}.cls-2{clip-path:url(#clip-path);}</style><clipPath id="clip-path" transform="translate(24 30.33)"><rect class="cls-1" x="-24" y="-30.33" width="100" height="126.37"/></clipPath></defs><title>icon-filter</title><g class="cls-2" style="fill: #459af0"><path d="M26-30.33c-2.12,0-50,.19-50,15.19a5.8,5.8,0,0,0,.38,1.93H-24V3.9a8.27,8.27,0,0,0,2.69,6.15L4.08,34.48a8.29,8.29,0,0,1,2.69,6.15V87.36A8.64,8.64,0,0,0,20,94.67L41.38,81.21a8.31,8.31,0,0,0,3.85-7.31V41a8.31,8.31,0,0,1,2.69-6.16L73.31,10.44A8.3,8.3,0,0,0,76,4.29V-13h-.38A5.8,5.8,0,0,0,76-14.95c0-15.19-47.88-15.38-50-15.38M26-7.45c-24.62,0-39.81-4.61-42.12-7.5,2.31-2.88,17.5-7.69,42.12-7.69S65.81-18,68.12-15.14C65.81-12.06,50.62-7.45,26-7.45" transform="translate(24 30.33)"/></g></svg>