<svg id="katman_1" data-name="katman 1" xmlns="http://www.w3.org/2000/svg" xmlns:xlink="http://www.w3.org/1999/xlink" viewBox="0 0 115.79 115.79"><defs><style>.cls-1{fill:none;}.cls-2{clip-path:url(#clip-path);}.cls-3{fill:#fff;}.cls-4{clip-path:url(#clip-path-2);}.cls-5{clip-path:url(#clip-path-3);}.cls-6{fill:#65d9d9;}.cls-7{fill:#64d8d8;}</style><clipPath id="clip-path" transform="translate(236 29.85)"><rect class="cls-1" x="-236" y="-29.85" width="115.79" height="115.79"/></clipPath><clipPath id="clip-path-2" transform="translate(236 29.85)"><path class="cls-1" d="M-198.46,30.76v4.67h20.33a2.26,2.26,0,0,1,2.26,2.26A2.26,2.26,0,0,1-178.13,40h-20.33V81.42h40.71V30.76Z"/></clipPath><clipPath id="clip-path-3" transform="translate(236 29.85)"><rect class="cls-1" x="-198.46" y="30.76" width="40.71" height="50.66"/></clipPath></defs><title>icon-speaker-human</title><g class="cls-2"><path class="cls-3" d="M-122.47,48.85h-30.76V12.67A9.94,9.94,0,0,0-161,3l-8.86-1.94a12.18,12.18,0,0,0,4-9v-8.19A8.4,8.4,0,0,0-164.34-21v-6.6a2.26,2.26,0,0,0-2.26-2.26h-13.3a10.44,10.44,0,0,0-10.43,10.43v4.62c0,.11,0,.22,0,.33s0,.21,0,.33v6.19a12.16,12.16,0,0,0,4,9L-195.21,3A9.94,9.94,0,0,0-203,12.67V48.85h-30.76A2.26,2.26,0,0,0-236,51.11V83.68a2.26,2.26,0,0,0,2.26,2.26h111.27a2.26,2.26,0,0,0,2.26-2.26V76.44a2.26,2.26,0,0,0-2.26-2.26,2.26,2.26,0,0,0-2.26,2.26v5h-28.5V53.37h28.5v5a2.26,2.26,0,0,0,2.26,2.26,2.26,2.26,0,0,0,2.26-2.26V51.11a2.26,2.26,0,0,0-2.26-2.26m-35.28-36.18V26.23H-175L-168,6.1-162,7.43a5.39,5.39,0,0,1,4.22,5.24m-28.06-25.2h13a8.65,8.65,0,0,0,2.4-.35v4.93a7.7,7.7,0,0,1-7.7,7.7,7.71,7.71,0,0,1-7.71-7.7ZM-182.1,3.6a12,12,0,0,0,4,.67,12.24,12.24,0,0,0,3.94-.65A4.93,4.93,0,0,0-172.44,5l-3.4,9.88V13a2.26,2.26,0,0,0-2.26-2.26A2.27,2.27,0,0,0-180.37,13v2l-3.45-10a4.79,4.79,0,0,0,1.72-1.4m-3.71-23a5.92,5.92,0,0,1,5.91-5.91h11V-21a3.94,3.94,0,0,1-3.94,3.93h-13v-2.36Zm-12.65,32.09a5.41,5.41,0,0,1,4.22-5.25l6-1.32,6.93,20.13h-17.16Zm-33,40.7H-203V81.42h-28.5Zm33-2.26V40h20.33a2.26,2.26,0,0,0,2.26-2.26,2.26,2.26,0,0,0-2.26-2.26h-20.33V30.76h40.71V81.42h-40.71Z" transform="translate(236 29.85)"/><path class="cls-3" d="M-169.09,35.43a2.29,2.29,0,0,0-1.6.66,2.27,2.27,0,0,0-.66,1.6,2.27,2.27,0,0,0,.66,1.6,2.29,2.29,0,0,0,1.6.66,2.27,2.27,0,0,0,1.6-.66,2.27,2.27,0,0,0,.66-1.6,2.27,2.27,0,0,0-.66-1.6,2.27,2.27,0,0,0-1.6-.66" transform="translate(236 29.85)"/><path class="cls-3" d="M-122.47,65.13a2.26,2.26,0,0,0-1.6.67,2.27,2.27,0,0,0-.66,1.59,2.27,2.27,0,0,0,.66,1.6,2.3,2.3,0,0,0,1.6.67,2.28,2.28,0,0,0,1.6-.67,2.27,2.27,0,0,0,.66-1.6,2.27,2.27,0,0,0-.66-1.59,2.24,2.24,0,0,0-1.6-.67" transform="translate(236 29.85)"/></g><g class="cls-4"><g class="cls-5"><path class="cls-6" d="M-198.46,30.76v0Z" transform="translate(236 29.85)"/><rect class="cls-6" x="37.54" y="60.61" width="20.35" height="50.66"/><rect class="cls-7" x="57.9" y="60.61" width="20.35" height="50.66"/><path class="cls-7" d="M-157.75,81.42v0Z" transform="translate(236 29.85)"/></g></g></svg>