<svg id="katman_1" data-name="katman 1" xmlns="http://www.w3.org/2000/svg" xmlns:xlink="http://www.w3.org/1999/xlink" viewBox="0 0 100 100"><defs><style>.cls-1{fill:none;}.cls-2{clip-path:url(#clip-path);}.cls-3{fill-rule:evenodd;}</style><clipPath id="clip-path" transform="translate(38 38)"><rect class="cls-1" x="-38" y="-38" width="100" height="100"/></clipPath></defs><title>icon-global</title><g class="cls-2"><path class="cls-3" d="M35.88,7.83C34.47-5.37,27.83-18,19.53-29A41.67,41.67,0,0,1,53.45,7.83ZM19.53,53c8.3-10.93,14.94-23.6,16.35-36.8H53.45A41.67,41.67,0,0,1,19.53,53m-49-36.8h17.58C-10.47,29.37-3.84,42,4.47,53a41.68,41.68,0,0,1-33.93-36.8M4.47-29C-3.84-18-10.47-5.37-11.88,7.83H-29.46A41.68,41.68,0,0,1,4.47-29m-8,36.8C-2.22-2.67,3.26-14,12-25.12,20.66-14,26.13-2.8,27.49,7.83Zm0,8.34h31C26.13,26.8,20.67,38,12,49.12,3.33,38-2.14,26.8-3.5,16.17M12-38A50,50,0,1,0,62,12,50,50,0,0,0,12-38" transform="translate(38 38)"/></g></svg>