<svg id="katman_1" data-name="katman 1" xmlns="http://www.w3.org/2000/svg" xmlns:xlink="http://www.w3.org/1999/xlink" viewBox="0 0 100 100"><defs><style>.cls-1{fill:none;}.cls-2{clip-path:url(#clip-path);}</style><clipPath id="clip-path" transform="translate(-134.5 -134.5)"><rect class="cls-1" x="134.5" y="134.5" width="100" height="100"/></clipPath></defs><title>icon-user</title><g class="cls-2"><path d="M184.36,134.5a49.81,49.81,0,0,0-49.86,49.86,50,50,0,1,0,49.86-49.86m0,31.71a10.16,10.16,0,1,1,0,20.32,10.29,10.29,0,0,1-10.29-10,10.43,10.43,0,0,1,10.29-10.3m0,29A24.69,24.69,0,0,1,209,218.39a42.09,42.09,0,0,1-24.63,8,40.52,40.52,0,0,1-24.36-8,24.51,24.51,0,0,1,24.36-23.2m12.71-5.56a18.09,18.09,0,0,0,5.72-13.13,18.43,18.43,0,1,0-31.06,13.12,33.25,33.25,0,0,0-19,22.21,42.17,42.17,0,0,1-10.05-27.48,41.65,41.65,0,0,1,41.73-41.73,41.74,41.74,0,0,1,31.69,69.21,33,33,0,0,0-19-22.2" transform="translate(-134.5 -134.5)"/></g></svg>