<svg id="katman_1" data-name="katman 1" xmlns="http://www.w3.org/2000/svg" xmlns:xlink="http://www.w3.org/1999/xlink" viewBox="0 0 100 100"><defs><style>.cls-1{fill:none;}.cls-2{clip-path:url(#clip-path);}</style><clipPath id="clip-path" transform="translate(-11.13 86.55)"><rect class="cls-1" x="11.13" y="-86.55" width="100" height="100"/></clipPath></defs><title>icon-check-circle-c</title><g class="cls-2"><path d="M76.78-48.85a5,5,0,0,0-6.74.12l-14,14L52.16-38.6a4.92,4.92,0,0,0-3.23-1.21,5.07,5.07,0,0,0-3.62,1.56,4.91,4.91,0,0,0,.17,6.68l7,7A4.77,4.77,0,0,0,56-22.9a4.88,4.88,0,0,0,3.37-1.48L77.07-42a4.92,4.92,0,0,0-.2-6.71Z" transform="translate(-11.13 86.55)"/><path d="M61.13-86.55a50.06,50.06,0,0,0-50,50,50.06,50.06,0,0,0,50,50,50.06,50.06,0,0,0,50-50,50.06,50.06,0,0,0-50-50m0,90.32A40.37,40.37,0,0,1,20.81-36.55,40.37,40.37,0,0,1,61.13-76.87a40.37,40.37,0,0,1,40.32,40.32A40.37,40.37,0,0,1,61.13,3.77" transform="translate(-11.13 86.55)"/></g></svg>