<svg id="katman_1" data-name="katman 1" xmlns="http://www.w3.org/2000/svg" xmlns:xlink="http://www.w3.org/1999/xlink" viewBox="0 0 100 100.01"><defs><style>.cls-1{fill:none;}.cls-2{clip-path:url(#clip-path);}</style><clipPath id="clip-path" transform="translate(-50 8.6)"><rect class="cls-1" x="50" y="-8.6" width="100" height="100.01"/></clipPath></defs><title>icon-check-circle</title><g class="cls-2"><path d="M126.83-.79a50,50,0,0,0-69,69,48.92,48.92,0,0,0,6.85,8.52,50,50,0,0,0,70.71-70.7,48.9,48.9,0,0,0-8.53-6.85m-6.76,36.33-16.91,16.9L101.6,54l-6.18,6.27a2.16,2.16,0,0,1-3-.1l-6.11-6L80,47.81a6.53,6.53,0,0,1,9.19-9.28L94,43.36l16.91-16.91a6.52,6.52,0,1,1,10.47,7.78,6.67,6.67,0,0,1-1.29,1.31" transform="translate(-50 8.6)"/></g></svg>