<svg id="katman_1" data-name="katman 1" xmlns="http://www.w3.org/2000/svg" xmlns:xlink="http://www.w3.org/1999/xlink" viewBox="0 0 100 87.38"><defs><style>.cls-1{fill:none;}.cls-2{clip-path:url(#clip-path);}</style><clipPath id="clip-path" transform="translate(5.47 4.78)"><rect class="cls-1" x="-5.47" y="-4.78" width="100" height="87.38"/></clipPath></defs><title>icon-coupon</title><g class="cls-2"><path d="M60,23.14h-31a4.39,4.39,0,1,0,0,8.78H60a4.39,4.39,0,1,0,0-8.78" transform="translate(5.47 4.78)"/><path d="M60,45.81h-31a4.39,4.39,0,1,0,0,8.78H60a4.39,4.39,0,1,0,0-8.78" transform="translate(5.47 4.78)"/><path d="M90.14,29.89a4.4,4.4,0,0,0,4.39-4.39V5.88A10.54,10.54,0,0,0,83.88-4.78H5.19A10.54,10.54,0,0,0-5.47,5.88V25.5a4.4,4.4,0,0,0,4.39,4.39,9,9,0,0,1,9.06,9,9.07,9.07,0,0,1-9.06,9.07,4.4,4.4,0,0,0-4.39,4.39V71.94A10.54,10.54,0,0,0,5.19,82.6H83.88A10.54,10.54,0,0,0,94.53,71.94V52.32a4.4,4.4,0,0,0-4.33-4.39,9.15,9.15,0,0,1-9-9.07,9,9,0,0,1,9-9M85.75,56.12V71.94a1.86,1.86,0,0,1-1.87,1.88H5.19a1.87,1.87,0,0,1-1.88-1.88V56.16a18,18,0,0,0,13.46-17.3A17.91,17.91,0,0,0,3.31,21.66V5.88A1.87,1.87,0,0,1,5.19,4H83.88a1.86,1.86,0,0,1,1.87,1.88V21.66a17.79,17.79,0,0,0,0,34.46" transform="translate(5.47 4.78)"/></g></svg>