<svg id="katman_1" data-name="katman 1" xmlns="http://www.w3.org/2000/svg" xmlns:xlink="http://www.w3.org/1999/xlink" viewBox="0 0 100 88.14"><defs><style>.cls-1{fill:none;}.cls-2{clip-path:url(#clip-path);}</style><clipPath id="clip-path" transform="translate(5.01 4.41)"><rect class="cls-1" x="-5.01" y="-4.41" width="100" height="88.13"/></clipPath></defs><title>icon-warning</title><g class="cls-2"><path d="M.72,83.72H89.27a5.73,5.73,0,0,0,5-8.58L50-1.55a5.72,5.72,0,0,0-7.82-2.1A5.77,5.77,0,0,0,40-1.55L-4.24,75.14A5.73,5.73,0,0,0-2.14,83a5.72,5.72,0,0,0,2.86.76M45,73.1a5.66,5.66,0,1,1,5.65-5.66A5.65,5.65,0,0,1,45,73.1m0-54.61a6.12,6.12,0,0,1,6.12,6.12v.26L50,51.12a5,5,0,0,1-10,0L38.88,24.87a6.13,6.13,0,0,1,5.85-6.38H45" transform="translate(5.01 4.41)"/></g></svg>