<svg id="katman_1" data-name="katman 1" xmlns="http://www.w3.org/2000/svg" xmlns:xlink="http://www.w3.org/1999/xlink" viewBox="0 0 100 103.11"><defs><style>.cls-1{fill:none;}.cls-2{clip-path:url(#clip-path);}</style><clipPath id="clip-path" transform="translate(9.8 10.1)"><rect class="cls-1" x="-9.8" y="-10.1" width="100" height="103.11"/></clipPath></defs><title>icon-chair</title><g class="cls-2"><path d="M80.25,44.75V29h6.22a3.73,3.73,0,1,0,0-7.46H73.53A3.73,3.73,0,0,0,72,28.67l.77.32v8.17H66V6.06A16.19,16.19,0,0,0,49.78-10.1H30.62A16.19,16.19,0,0,0,14.45,6.06v31.1H7.61V28.92l.71-.34a3.76,3.76,0,0,0,1.9-2.13,3.74,3.74,0,0,0-3.4-5H-6.07A3.73,3.73,0,0,0-9.8,25.22,3.73,3.73,0,0,0-6.07,29H.15L.2,44.75l.07,1.16a17.48,17.48,0,0,0,17.3,16.25h18.9V85.54h-15a3.74,3.74,0,0,0,0,7.47H59a3.74,3.74,0,0,0,0-7.47h-15V62.16H62.84A17.47,17.47,0,0,0,80.13,45.91ZM21.92,5.94a8.71,8.71,0,0,1,8.7-8.71H49.78a8.71,8.71,0,0,1,8.7,8.71V37H21.92ZM72.65,45.88a10,10,0,0,1-9.8,8.82H17.5a9.94,9.94,0,0,1-9.88-8.82L7.46,44.5H72.81Z" transform="translate(9.8 10.1)"/></g></svg>