<svg id="katman_1" data-name="katman 1" xmlns="http://www.w3.org/2000/svg" xmlns:xlink="http://www.w3.org/1999/xlink" viewBox="0 0 100 85.71"><defs><style>.cls-1{fill:none;}.cls-2{clip-path:url(#clip-path);}</style><clipPath id="clip-path" transform="translate(29 24.86)"><rect class="cls-1" x="-29" y="-24.86" width="100" height="85.71"/></clipPath></defs><title>icon-m-logo</title><g class="cls-2"><path d="M4.33,57.47c0,2.12-1.13,3.39-2.74,3.39a4.16,4.16,0,0,1-1.87-.5L-26.23,47.22A5.58,5.58,0,0,1-29,42.68V-21.73c0-1.7.9-2.71,2.2-2.71a3.31,3.31,0,0,1,1.49.39l.91.47h0L4.21-9.1A.43.43,0,0,1,4.33-9Zm30-77.84,1.75-2.88A3.43,3.43,0,0,1,39-24.86a2.91,2.91,0,0,1,.82.12,2.77,2.77,0,0,1,.64.23L70.6-9.24h0s0,0,0,0a.4.4,0,0,1,.12.5l-30,49.44-3.07,5-19.91-39ZM9.1,31.35V.29L30.48,42.18,11.24,32.44ZM71,57.47a2.81,2.81,0,0,1-2.92,3.13,5.91,5.91,0,0,1-2.61-.7l-4.31-2.19L41.93,48,71,.13Z" transform="translate(29 24.86)"/></g></svg>