<svg id="katman_1" data-name="katman 1" xmlns="http://www.w3.org/2000/svg" xmlns:xlink="http://www.w3.org/1999/xlink" viewBox="0 0 100 113.79"><defs><style>.cls-1{fill:none;}.cls-2{clip-path:url(#clip-path);}</style><clipPath id="clip-path" transform="translate(21 23.9)"><rect class="cls-1" x="-21" y="-23.9" width="100" height="113.79"/></clipPath></defs><title>icon-date</title><g class="cls-2"><path d="M79,12.31A25.82,25.82,0,0,0,54.86-13.38v-5.34a5.08,5.08,0,0,0-5.17-5.18,5.08,5.08,0,0,0-5.17,5.18v5.17h-31v-5.17A5.08,5.08,0,0,0,8.31-23.9a5.08,5.08,0,0,0-5.17,5.18v5.34A25.82,25.82,0,0,0-21,12.31V64A25.83,25.83,0,0,0,4.86,89.9H53.14A25.83,25.83,0,0,0,79,64ZM3.14-3V2A5.08,5.08,0,0,0,8.31,7.14,5.08,5.08,0,0,0,13.48,2V-3.21h31V2A5.17,5.17,0,0,0,54.86,2V-3a15.49,15.49,0,0,1,13.8,15.34v5.17H-10.66V12.31A15.49,15.49,0,0,1,3.14-3m50,82.58H4.86A15.45,15.45,0,0,1-10.66,64V27.83H68.66V64A15.45,15.45,0,0,1,53.14,79.55" transform="translate(21 23.9)"/><path d="M42.79,57.14H15.21a5.17,5.17,0,1,0,0,10.34H42.79a5.17,5.17,0,1,0,0-10.34" transform="translate(21 23.9)"/><path d="M42.79,39.9H15.21a5.17,5.17,0,1,0,0,10.34H42.79a5.17,5.17,0,1,0,0-10.34" transform="translate(21 23.9)"/></g></svg>