<svg id="katman_1" data-name="katman 1" xmlns="http://www.w3.org/2000/svg" xmlns:xlink="http://www.w3.org/1999/xlink" viewBox="0 0 100 104.15"><defs><style>.cls-1{fill:none;}.cls-2{clip-path:url(#clip-path);}</style><clipPath id="clip-path" transform="translate(13.88 14.45)"><rect class="cls-1" x="-13.88" y="-14.45" width="100" height="104.15"/></clipPath></defs><title>icon-browser-mouse-gray</title><g class="cls-2" style="fill : #459af0;"><path d="M86.12,3A17.49,17.49,0,0,0,68.65-14.45H3.6A17.5,17.5,0,0,0-13.88,3V72.23A17.5,17.5,0,0,0,3.6,89.7H68.65A17.49,17.49,0,0,0,86.12,72.23ZM78.86,72.23a10.22,10.22,0,0,1-10.21,10.2H3.6A10.22,10.22,0,0,1-6.61,72.23v-49H78.86Zm0-56.23H-6.61V3A10.22,10.22,0,0,1,3.6-7.18H68.65A10.22,10.22,0,0,1,78.86,3Z" transform="translate(13.88 14.45)"/><path d="M23-1.3a5.71,5.71,0,1,0,5.71,5.71A5.71,5.71,0,0,0,23-1.3" transform="translate(13.88 14.45)"/><path d="M38.34-1.3a5.71,5.71,0,1,0,5.71,5.71A5.71,5.71,0,0,0,38.34-1.3" transform="translate(13.88 14.45)"/><path d="M7.61-1.3a5.71,5.71,0,1,0,5.71,5.71A5.72,5.72,0,0,0,7.61-1.3" transform="translate(13.88 14.45)"/><polygon points="66.4 64.4 34.43 48.41 44.28 82.7 49.59 73.62 56.05 81.29 62.83 75.63 56.38 67.97 66.4 64.4"/></g></svg>