<svg id="katman_1" data-name="katman 1" xmlns="http://www.w3.org/2000/svg" xmlns:xlink="http://www.w3.org/1999/xlink" viewBox="0 0 100 111.59"><defs><style>.cls-1{fill:none;}.cls-2{clip-path:url(#clip-path);}</style><clipPath id="clip-path" transform="translate(41.38 46.17)"><rect class="cls-1" x="-41.38" y="-46.17" width="100" height="111.59"/></clipPath></defs><title>icon-date-c-gray</title><g class="cls-2"><path d="M58.62-25.16a9.43,9.43,0,0,0-9.42-9.42H35.44v-8a3.63,3.63,0,0,0-3.63-3.62,3.62,3.62,0,0,0-3.62,3.62v8H-10.94v-8a3.62,3.62,0,0,0-3.62-3.62,3.63,3.63,0,0,0-3.63,3.62v8H-31.95a9.44,9.44,0,0,0-9.43,9.42V56a9.43,9.43,0,0,0,9.43,9.42H49.2A9.42,9.42,0,0,0,58.62,56ZM51.38,58.18H-34.13V-4.14H51.38Zm0-69.57H-34.13V-27.33H51.38Z" transform="translate(41.38 46.17)"/><path d="M8.62,8.9a6.52,6.52,0,1,0,6.53,6.52A6.53,6.53,0,0,0,8.62,8.9" transform="translate(41.38 46.17)"/><path d="M-14.56,8.9a6.54,6.54,0,0,0-6.53,6.52,6.53,6.53,0,0,0,6.53,6.52A6.53,6.53,0,0,0-8,15.42,6.53,6.53,0,0,0-14.56,8.9" transform="translate(41.38 46.17)"/><path d="M31.81,8.9a6.52,6.52,0,1,0,6.53,6.52A6.53,6.53,0,0,0,31.81,8.9" transform="translate(41.38 46.17)"/><path d="M8.62,32.09a6.52,6.52,0,1,0,6.53,6.52,6.53,6.53,0,0,0-6.53-6.52" transform="translate(41.38 46.17)"/><path d="M-14.56,32.09a6.54,6.54,0,0,0-6.53,6.52,6.54,6.54,0,0,0,6.53,6.52A6.53,6.53,0,0,0-8,38.61a6.53,6.53,0,0,0-6.52-6.52" transform="translate(41.38 46.17)"/></g></svg>