<svg id="katman_1" data-name="katman 1" xmlns="http://www.w3.org/2000/svg" xmlns:xlink="http://www.w3.org/1999/xlink" viewBox="0 0 100 97.89"><defs><style>.cls-1{fill:none;}.cls-2{clip-path:url(#clip-path);}</style><clipPath id="clip-path" transform="translate(2.5 2.45)"><rect class="cls-1" x="-2.5" y="-2.45" width="100" height="97.89"/></clipPath></defs><title>icon-check-sub</title><g class="cls-2"><path d="M91.08,70H87.82V65.76A13.27,13.27,0,0,0,74.55,52.5h-24V41a21.89,21.89,0,1,0-6.1,0V52.5H20.55A13.27,13.27,0,0,0,7.29,65.76V70H3.92A6.39,6.39,0,0,0-2.5,76.4V89a6.38,6.38,0,0,0,6.42,6.42H16.55A6.38,6.38,0,0,0,23,89V76.4A6.39,6.39,0,0,0,16.55,70H13.29V65.76a7.27,7.27,0,0,1,7.26-7.26h23.9V70H41.18a6.39,6.39,0,0,0-6.42,6.43V89a6.39,6.39,0,0,0,6.42,6.42H53.82A6.38,6.38,0,0,0,60.24,89V76.4A6.39,6.39,0,0,0,53.82,70H50.55V58.5h23.9a7.27,7.27,0,0,1,7.26,7.26V70H78.45A6.39,6.39,0,0,0,72,76.4V89a6.38,6.38,0,0,0,6.42,6.42H91.08A6.38,6.38,0,0,0,97.5,89V76.4A6.39,6.39,0,0,0,91.08,70M31.61,19.45A15.89,15.89,0,1,1,47.5,35.34,15.94,15.94,0,0,1,31.61,19.45M17,76.4V89a.45.45,0,0,1-.42.42L3.5,89,3.92,76Zm37.27,0V89a.45.45,0,0,1-.42.42L40.76,89,41.18,76ZM91.5,89a.45.45,0,0,1-.42.42L78,89,78.45,76l13,.43Z" transform="translate(2.5 2.45)"/><path d="M55.92,18a3,3,0,1,0-4.31-4.1l-6.22,6.74-2.21-2.43a3,3,0,1,0-4.31,4.11L43.29,27A2.87,2.87,0,0,0,45.5,28,3,3,0,0,0,47.71,27Z" transform="translate(2.5 2.45)"/></g></svg>