<svg id="katman_1" data-name="katman 1" xmlns="http://www.w3.org/2000/svg" xmlns:xlink="http://www.w3.org/1999/xlink" viewBox="0 0 100 103.99"><defs><style>.cls-1{fill:none;}.cls-2{clip-path:url(#clip-path);}</style><clipPath id="clip-path" transform="translate(3.89 4.04)"><rect class="cls-1" x="-3.89" y="-4.04" width="100" height="103.99"/></clipPath></defs><title>icon-map-st-pin</title><g class="cls-2"><path d="M93.21-3.94a4,4,0,0,0-3,.51L62.43,13.27,34.54-3.41a3.82,3.82,0,0,0-3.94,0L.73,14.41A3.86,3.86,0,0,0-1.12,17.7V40a3.81,3.81,0,0,0,3.8,3.81h0a3.72,3.72,0,0,0,1.47-.3A3.79,3.79,0,0,0,6.6,40V19.87L28.67,6.58V42.1a3.9,3.9,0,0,0,1.93,3.34,3.82,3.82,0,0,0,5.73-3.3V6.51L58.56,19.86V88.57L48.11,82.3a3.59,3.59,0,0,0-3-.35,3.85,3.85,0,0,0-2.34,2.18,3.79,3.79,0,0,0,1.43,4.78L60.5,98.66a3.87,3.87,0,0,0,2,.54,3.79,3.79,0,0,0,2-.55L94.26,80.71a3.87,3.87,0,0,0,1.86-3.3V-.22a3.87,3.87,0,0,0-2.91-3.72M88.46,6.54V75.25L66.23,88.58V19.88Z" transform="translate(3.89 4.04)"/><path d="M17.29,51H14.51A19.37,19.37,0,0,0-2,62.35a20.86,20.86,0,0,0,4,23l13.2,14.25a1.1,1.1,0,0,0,.78.36H16a1.12,1.12,0,0,0,.76-.32L30,85.36a20.88,20.88,0,0,0,4-23A19.42,19.42,0,0,0,17.29,51M27.05,70.9A11.12,11.12,0,1,1,15.93,59.79,11.13,11.13,0,0,1,27.05,70.9" transform="translate(3.89 4.04)"/></g></svg>