<svg id="katman_1" data-name="katman 1" xmlns="http://www.w3.org/2000/svg" xmlns:xlink="http://www.w3.org/1999/xlink" viewBox="0 0 100 100"><defs><style>.cls-1{fill:none;}.cls-2{clip-path:url(#clip-path);}</style><clipPath id="clip-path" transform="translate(11 11)"><rect class="cls-1" x="-11" y="-11" width="100" height="100"/></clipPath></defs><title>icon-plus</title><g class="cls-2"><path d="M39-11a7.69,7.69,0,0,0-7.69,7.69V31.31H-3.31A7.69,7.69,0,0,0-11,39a7.69,7.69,0,0,0,7.69,7.69H31.31V81.31a7.69,7.69,0,0,0,15.38,0V46.69H81.31a7.69,7.69,0,0,0,0-15.38H46.69V-3.31A7.69,7.69,0,0,0,39-11" transform="translate(11 11)"/></g></svg>