<svg id="katman_1" data-name="katman 1" xmlns="http://www.w3.org/2000/svg" xmlns:xlink="http://www.w3.org/1999/xlink" viewBox="0 0 100 118.37"><defs><style>.cls-1{fill:none;}.cls-2{clip-path:url(#clip-path);}</style><clipPath id="clip-path" transform="translate(25.5 30.18)"><rect class="cls-1" x="-25.5" y="-30.18" width="100" height="118.37"/></clipPath></defs><title>icon-share</title><g class="cls-2"><path d="M55.11,49.41a19.35,19.35,0,0,0-11.83,4.08l-31-17.14a20.63,20.63,0,0,0,1-6.33,21.73,21.73,0,0,0-1-6.33L44.91,5.53a20.22,20.22,0,0,0,10.2,2.86A19.52,19.52,0,0,0,74.5-11,19.34,19.34,0,0,0,55.11-30.18,19.51,19.51,0,0,0,35.72-10.8a17.73,17.73,0,0,0,2.05,8.58L6.54,15.33a18.66,18.66,0,0,0-12.65-4.7A19.52,19.52,0,0,0-25.5,30,19.52,19.52,0,0,0-6.11,49.41a19,19,0,0,0,12.65-4.7L37.15,61.65a21.42,21.42,0,0,0-1.43,7.15A19.39,19.39,0,1,0,55.11,49.41" transform="translate(25.5 30.18)"/></g></svg>