<svg id="katman_1" data-name="katman 1" xmlns="http://www.w3.org/2000/svg" xmlns:xlink="http://www.w3.org/1999/xlink" viewBox="0 0 100 153.02"><defs><style>.cls-1{fill:none;}.cls-2{clip-path:url(#clip-path);}</style><clipPath id="clip-path" transform="translate(24 36.72)"><rect class="cls-1" x="-24" y="-36.72" width="100" height="153.02"/></clipPath></defs><title>icon-doc-medal</title><g class="cls-2"><path d="M76-36.72H-24v125H8.88L8.5,109.82a6.79,6.79,0,0,0,3.85,6,6.17,6.17,0,0,0,6.73-1.16l6.92-6,6.92,6a5.78,5.78,0,0,0,4.23,1.54,5.74,5.74,0,0,0,2.5-.38,6.86,6.86,0,0,0,3.85-6.16l-.38-21.34H76ZM30.23,97.12a6.44,6.44,0,0,0-8.46,0l-1.54,1.35.39-18.65a29.94,29.94,0,0,0,5.76.76,22.36,22.36,0,0,0,5-.57l.39,18.46ZM26.38,69.05A11.93,11.93,0,1,1,38.31,57.12,12,12,0,0,1,26.38,69.05m38.08,7.69H42.73V73.85a23.56,23.56,0,0,0,6.92-16.73A23.6,23.6,0,0,0,28.5,31.55C15.62,30.2,4.27,39.82,2.92,52.7a15.77,15.77,0,0,0,0,4.23,23.56,23.56,0,0,0,6.35,16v3.65H-12.46V-25.38H64.46Z" transform="translate(24 36.72)"/><path d="M13.5,1h25A5.67,5.67,0,0,0,44.27-4.8a5.58,5.58,0,0,0-5.39-5.77H13.5A5.58,5.58,0,0,0,7.73-5.19v.39A5.67,5.67,0,0,0,13.5,1" transform="translate(24 36.72)"/><path d="M2,22.12H50a5.67,5.67,0,0,0,5.77-5.77,5.59,5.59,0,0,0-5.39-5.77H2A5.58,5.58,0,0,0-3.81,16v.38A5.67,5.67,0,0,0,2,22.12" transform="translate(24 36.72)"/></g></svg>