<svg id="katman_1" data-name="katman 1" xmlns="http://www.w3.org/2000/svg" viewBox="0 0 100 130.78"><title>icon-user-dart</title><path d="M-636.22,306.48a2.31,2.31,0,0,1-1.58-.64,2.31,2.31,0,0,1-.64-1.58,2.29,2.29,0,0,1,.64-1.57,2.33,2.33,0,0,1,3.17,0,2.31,2.31,0,0,1,.65,1.57,2.28,2.28,0,0,1-.65,1.58,2.33,2.33,0,0,1-1.59.64" transform="translate(642.29 -291.01)"/><path d="M-583.3,321.74a2.29,2.29,0,0,1-1.58-.65,2.34,2.34,0,0,1-.64-1.57,2.29,2.29,0,0,1,.64-1.57,2.31,2.31,0,0,1,3.17,0,2.31,2.31,0,0,1,.65,1.57,2.25,2.25,0,0,1-.65,1.57,2.39,2.39,0,0,1-1.59.65" transform="translate(642.29 -291.01)"/><path d="M-589,302.14a8.92,8.92,0,0,1-8.91-8.91,2.21,2.21,0,0,0-2.22-2.22,2.23,2.23,0,0,0-2.22,2.22,8.92,8.92,0,0,1-8.91,8.91,2.21,2.21,0,0,0-2.22,2.22,2.21,2.21,0,0,0,2.22,2.22,8.92,8.92,0,0,1,8.91,8.91,2.21,2.21,0,0,0,2.22,2.22,2.23,2.23,0,0,0,2.22-2.22,8.92,8.92,0,0,1,8.91-8.91,2.22,2.22,0,0,0,2.22-2.22,2.21,2.21,0,0,0-2.22-2.22m-11.13,6a13.37,13.37,0,0,0-3.77-3.76,13.4,13.4,0,0,0,3.77-3.77,13.4,13.4,0,0,0,3.77,3.77,13.77,13.77,0,0,0-3.77,3.76" transform="translate(642.29 -291.01)"/><path d="M-550.31,330.7a6,6,0,0,1-2.72-8,1.49,1.49,0,0,0-.67-2,1.5,1.5,0,0,0-2,.66,6,6,0,0,1-8,2.72,1.49,1.49,0,0,0-2,.67,1.49,1.49,0,0,0,.67,2,6,6,0,0,1,2.72,8,1.49,1.49,0,0,0,.66,2,1.5,1.5,0,0,0,2-.66,6,6,0,0,1,8-2.72,1.5,1.5,0,0,0,2-.67,1.48,1.48,0,0,0-.67-2m-8.8.93a11.41,11.41,0,0,0-1.47-4.34,11.21,11.21,0,0,0,4.33-1.48,11.37,11.37,0,0,0,1.48,4.34,12.42,12.42,0,0,0-4.34,1.48" transform="translate(642.29 -291.01)"/><path d="M-628.88,321.71a5.23,5.23,0,0,1-6.53-3.48,1.29,1.29,0,0,0-1.62-.86,1.29,1.29,0,0,0-.86,1.62,5.26,5.26,0,0,1-3.48,6.54,1.29,1.29,0,0,0-.86,1.62,1.29,1.29,0,0,0,1.62.86,5.23,5.23,0,0,1,6.53,3.48,1.28,1.28,0,0,0,1.62.85,1.28,1.28,0,0,0,.86-1.62,5.25,5.25,0,0,1,3.48-6.53,1.29,1.29,0,0,0,.86-1.62,1.31,1.31,0,0,0-1.62-.86m-5,5.87a10.15,10.15,0,0,0-3.53-1.89,10.08,10.08,0,0,0,1.88-3.52,10.2,10.2,0,0,0,3.53,1.88,9.79,9.79,0,0,0-1.88,3.53" transform="translate(642.29 -291.01)"/><path d="M-581,354.11a2,2,0,0,0,1.38.57,2,2,0,0,0,1.39-.57,1.93,1.93,0,0,0,0-2.74l0,0a1.93,1.93,0,0,0-2.74,0,1.93,1.93,0,0,0,0,2.74Z" transform="translate(642.29 -291.01)"/><path d="M-549.64,372.49l6.77-6.77a2,2,0,0,0,.43-2.12,2,2,0,0,0-1.79-1.2h-14a42.44,42.44,0,0,0-11.18-19.85,42.36,42.36,0,0,0-53.64-5.15,1.94,1.94,0,0,0-.52,2.69,2,2,0,0,0,2.69.53,38.51,38.51,0,0,1,48.73,4.69,38.2,38.2,0,0,1,10.1,17.83l-7.41,7.42h0A29.87,29.87,0,0,0-573.19,358a2,2,0,0,0-2.65-.76,2,2,0,0,0-.76,2.65,25.86,25.86,0,0,1,3.14,10.63H-580l.81-.48a1.94,1.94,0,0,0,.71-2.65,1.93,1.93,0,0,0-2.64-.71l-1.48.86a17.49,17.49,0,0,0-5.29-8.25A17.51,17.51,0,0,0-599.39,355a17.51,17.51,0,0,0-17.48,17.48,17.49,17.49,0,0,0,5.49,12.7.9.9,0,0,0,.21.19A17.41,17.41,0,0,0-599.39,390a17.44,17.44,0,0,0,11.44-4.27,17.44,17.44,0,0,0,5.32-8.29l1.47.86a2.17,2.17,0,0,0,1,.26,2,2,0,0,0,1.69-1,1.93,1.93,0,0,0-.71-2.64l-.81-.48h6.53A26,26,0,0,1-581,390.89a26,26,0,0,1-36.81,0,25.85,25.85,0,0,1-7.63-18.4,25.9,25.9,0,0,1,7.63-18.41,26.12,26.12,0,0,1,31-4.38,2,2,0,0,0,2.64-.76,2,2,0,0,0-.76-2.65,30.21,30.21,0,0,0-18.45-3.46,29.91,29.91,0,0,0-17.17,8.49,29.76,29.76,0,0,0-8.77,21.14,29.76,29.76,0,0,0,8.77,21.15,29.72,29.72,0,0,0,21.15,8.77,29.7,29.7,0,0,0,21.14-8.77,29.61,29.61,0,0,0,8.49-17.17,17.55,17.55,0,0,0,.19-2.05h0l7.41,7.42a38.49,38.49,0,0,1-10.11,17.83,38.7,38.7,0,0,1-8.51,6.44l-.11,0a.35.35,0,0,1-.08.05,36.44,36.44,0,0,1-7.46,3.12c-.09,0-.19,0-.31.1a38.52,38.52,0,0,1-10.75,1.52,38.62,38.62,0,0,1-10.75-1.52,1.25,1.25,0,0,0-.31-.1,36.91,36.91,0,0,1-7.46-3.12s0,0-.07-.05a.28.28,0,0,0-.12,0,38.86,38.86,0,0,1-8.51-6.44,38.49,38.49,0,0,1-4.77-48.58,2,2,0,0,0-.52-2.7,2,2,0,0,0-2.7.53,42.4,42.4,0,0,0,5.25,53.49,42,42,0,0,0,7.79,6.15l-3.81,6.75a4.37,4.37,0,0,0,0,4.34,4.33,4.33,0,0,0,3.77,2.17h4.48a4.35,4.35,0,0,0,3.79-2.22l3.46-6.08a42.58,42.58,0,0,0,10.49,1.31A42.56,42.56,0,0,0-589,413.49l3.46,6.08a4.36,4.36,0,0,0,3.79,2.22h4.51a4.31,4.31,0,0,0,3.76-2.17,4.34,4.34,0,0,0,0-4.34l-3.82-6.75a44,44,0,0,0,7.8-6.15,42.3,42.3,0,0,0,11.18-19.86h14a1.92,1.92,0,0,0,1.79-1.19,1.92,1.92,0,0,0-.43-2.12Zm-67.08,45.22a.47.47,0,0,1-.41.24h-4.48a.47.47,0,0,1-.41-.24.4.4,0,0,1,0-.45l3.84-6.77a44.89,44.89,0,0,0,4.46,1.9Zm39.9-.45a.42.42,0,0,1,0,.45.51.51,0,0,1-.4.24h-4.49a.51.51,0,0,1-.4-.24l-3-5.34a41.82,41.82,0,0,0,4.46-1.91Zm17.05-51h10.84l-4.26,4.27H-564Zm-47.82,17.07a9.39,9.39,0,0,1,8.17-4.75,9.39,9.39,0,0,1,8.18,4.72,13.54,13.54,0,0,1-8.18,2.77,13.63,13.63,0,0,1-8.17-2.74m5.19-11.61v-1.24a3,3,0,0,1,3-3,3,3,0,0,1,3,3v1.24a3,3,0,0,1-3,3,3,3,0,0,1-3-3m14,8.75a13,13,0,0,0-5.5-4.6,6.83,6.83,0,0,0,1.4-4.15v-1.24a6.87,6.87,0,0,0-6.86-6.87,6.88,6.88,0,0,0-6.87,6.87v1.24a6.84,6.84,0,0,0,1.41,4.15,13.07,13.07,0,0,0-5.51,4.62,13.5,13.5,0,0,1-2.62-8,13.62,13.62,0,0,1,13.59-13.59,13.63,13.63,0,0,1,13.27,10.71l-2.12,1.21a2,2,0,0,0-1,1.7,2,2,0,0,0,1,1.69l2.12,1.21a13.72,13.72,0,0,1-2.31,5.06m28.66-1.79-4.27-4.27h10.85l4.26,4.27Z" transform="translate(642.29 -291.01)"/><path d="M-628,345.88a2,2,0,0,0,1.38-.57,2,2,0,0,0,.57-1.38,2,2,0,0,0-.57-1.38A2,2,0,0,0-628,342a2,2,0,0,0-1.39.58,1.94,1.94,0,0,0-.57,1.38,2,2,0,0,0,.57,1.38,2,2,0,0,0,1.39.57" transform="translate(642.29 -291.01)"/></svg>