<svg id="katman_1" data-name="katman 1" xmlns="http://www.w3.org/2000/svg" xmlns:xlink="http://www.w3.org/1999/xlink" viewBox="0 0 100 91.22"><defs>
<style>
.cls-1{}
.cls-2{}
.cls-3{}
.cls-4{}</style>
<clipPath id="clip-path" transform="translate(-28.37 -25.88)"><rect class="cls-1" style="fill:none;" x="28.37" y="25.88" width="100" height="91.22"/></clipPath></defs><title>icon-c-doc-clock</title><g class="cls-2" style="clip-path:url(#clip-path);"><path class="cls-3" style="fill:#251f47;" d="M97.6,111.4a1.38,1.38,0,0,1-1.37,1.37H34.06a1.37,1.37,0,0,1-1.36-1.37V46.3H43.07a5.71,5.71,0,0,0,5.7-5.7V30.2h9.31a2.16,2.16,0,1,0,0-4.32H46.78a2.18,2.18,0,0,0-1.53.63L29,42.76a2.18,2.18,0,0,0-.63,1.53V111.4a5.7,5.7,0,0,0,5.69,5.7H96.23a5.71,5.71,0,0,0,5.7-5.7v-9.73a27.93,27.93,0,0,1-4.33,1.47Zm-53.16-78V40.6A1.37,1.37,0,0,1,43.07,42H35.91Z" transform="translate(-28.37 -25.88)"/><path class="cls-3" style="fill:#251f47;" d="M42.61,98.32H66.19a2.17,2.17,0,0,0,0-4.33H42.61a2.17,2.17,0,1,0,0,4.33" transform="translate(-28.37 -25.88)"/><path class="cls-3" style="fill:#251f47;" d="M42.61,87.75H64a2.17,2.17,0,1,0,0-4.33H42.61a2.17,2.17,0,1,0,0,4.33" transform="translate(-28.37 -25.88)"/><path class="cls-3" style="fill:#251f47;" d="M42.61,78h17a2.17,2.17,0,0,0,0-4.33h-17a2.17,2.17,0,1,0,0,4.33" transform="translate(-28.37 -25.88)"/><path class="cls-3" style="fill:#251f47;" d="M65.15,30.2a2.16,2.16,0,0,0,1.53-3.69,2.23,2.23,0,0,0-3.06,0,2.15,2.15,0,0,0,0,3.06,2.18,2.18,0,0,0,1.53.63" transform="translate(-28.37 -25.88)"/><path class="cls-3" style="fill:#251f47;" d="M72.21,30.2h24a1.38,1.38,0,0,1,1.37,1.37v6a2.16,2.16,0,0,1,.81-.18,1.67,1.67,0,0,1,.85.17,1.74,1.74,0,0,1,.5.31l0,0-.22-.16A2.93,2.93,0,0,0,100,38c.34.11.67.2,1,.29s.63.19.94.31v-7a5.7,5.7,0,0,0-5.7-5.69h-24a2.16,2.16,0,1,0,0,4.32" transform="translate(-28.37 -25.88)"/><path class="cls-4" style="fill:#d2ccf4;" d="M104.9,90.69a23.42,23.42,0,0,1-4.33,1.77,23.18,23.18,0,1,1,0-44.46,22.72,22.72,0,0,1,4.33,1.76,23.17,23.17,0,0,1,0,40.93" transform="translate(-28.37 -25.88)"/><path class="cls-3" style="fill:#251f47;" d="M104.88,45.39A27.62,27.62,0,0,0,94,43.07a27.16,27.16,0,1,0,6.53,53.52,27.93,27.93,0,0,0,4.33-1.47,27.11,27.11,0,0,0,1.53-49c-.51-.26-1-.5-1.55-.73m0,45.3a23.42,23.42,0,0,1-4.33,1.77,23.18,23.18,0,1,1,0-44.46,22.72,22.72,0,0,1,4.33,1.76,23.17,23.17,0,0,1,0,40.93" transform="translate(-28.37 -25.88)"/><path class="cls-3" style="fill:#251f47;" d="M96.27,81.49v9.45a.56.56,0,0,1-.56.56H92.79a.56.56,0,0,1-.56-.56V81.49a.56.56,0,0,1,.56-.56h2.92a.56.56,0,0,1,.56.56" transform="translate(-28.37 -25.88)"/><path class="cls-3" style="fill:#251f47;" d="M83,73.57H73.5a.56.56,0,0,1-.56-.56V70.09a.56.56,0,0,1,.56-.56H83a.56.56,0,0,1,.56.56V73a.56.56,0,0,1-.56.56" transform="translate(-28.37 -25.88)"/><path class="cls-3" style="fill:#251f47;" d="M115.24,73.57h-9.45a.56.56,0,0,1-.56-.56V70.09a.56.56,0,0,1,.56-.56h9.45a.56.56,0,0,1,.56.56V73a.56.56,0,0,1-.56.56" transform="translate(-28.37 -25.88)"/><path class="cls-3" style="fill:#251f47;" d="M102.72,68.26l-.06-.17,0,0h0l0-.14-.06-.13a.9.9,0,0,0-.15-.23,2.21,2.21,0,0,0-2.55-.89L95,68.21V52.87a2.24,2.24,0,0,0-4.47,0V71.29a2.26,2.26,0,0,0,2.24,2.23,2.25,2.25,0,0,0,.68-.11l7.76-2.52a2.22,2.22,0,0,0,1.54-2.22,1.06,1.06,0,0,0,0-.26l0-.15" transform="translate(-28.37 -25.88)"/><path class="cls-3" style="fill:#251f47;" d="M126,76.73a2.27,2.27,0,0,0-2.17,1.71,31,31,0,1,1,.1-16.06,2.24,2.24,0,1,0,4.34-1.1,35.48,35.48,0,1,0-.1,18.31A2.26,2.26,0,0,0,126,76.73" transform="translate(-28.37 -25.88)"/></g></svg>