<svg id="katman_1" data-name="katman 1" xmlns="http://www.w3.org/2000/svg" xmlns:xlink="http://www.w3.org/1999/xlink" viewBox="0 0 100 100.23"><defs><style>
.cls-1{}
.cls-2{}
.cls-3{}
.cls-4{}</style><clipPath id="clip-path" transform="translate(-21.62 -21.67)">
<rect class="cls-1" style="fill:none;" x="21.62" y="21.67" width="100" height="100.23"/></clipPath>
</defs><title>icon-c-clock</title>
<g class="cls-2" style="clip-path:url(#clip-path);">
<path class="cls-3" style="fill:#d2ccf4;" d="M44.21,90.27l0,0a32.94,32.94,0,0,1-5.08-12.47.5.5,0,0,1,0-.12c-.07-.37-.13-.73-.18-1.1,0-.11,0-.22,0-.33,0-.3-.08-.6-.12-.91s-.08-.87-.11-1.31v-.16c0-.46,0-.93-.05-1.39,0-.15,0-.31,0-.47,0-.31,0-.62,0-.93s0-.64,0-1l0-.66c0-.38.07-.75.11-1.12,0-.15,0-.31,0-.46a33.44,33.44,0,0,1,30-29.1l.24,0,1.32-.08h.33c.51,0,1,0,1.55,0l.61,0c.37,0,.75,0,1.12.05l.94.08.74.08c.43,0,.85.11,1.28.18l.33.05a33.45,33.45,0,0,1,27.28,28.06l.06.37c0,.39.09.78.13,1.17,0,.23,0,.46,0,.69s0,.63.06.94,0,.6,0,.9,0,.54,0,.82,0,.62,0,.92,0,.61,0,.91,0,.55-.07.83-.06.74-.11,1.11l0,.24c-.07.53-.14,1.06-.24,1.58v0a33.16,33.16,0,0,1-10.6,18.89l0,0a33.07,33.07,0,0,1-18.41,8.2h-.12c-.5,0-1,.09-1.53.12l-.6,0L72,105h-.66q-.53,0-1,0l-.72,0c-.3,0-.61,0-.92-.07l-1-.1-.19,0a33,33,0,0,1-15-5.91,1.29,1.29,0,0,0-.16-.09,33.63,33.63,0,0,1-8.12-8.41" transform="translate(-21.62 -21.67)"/>
<path class="cls-4" style="fill:#251f47;" d="M118.07,81.63a2.22,2.22,0,0,0-2.15,1.69,45.59,45.59,0,0,1-44.2,34.17c-1.25,0-2.52,0-3.78-.15a46,46,0,0,1-41.78-42,45.34,45.34,0,0,1,12-34.62,45.64,45.64,0,0,1,78.42,22.74,2.21,2.21,0,0,0,4.37-.72A50.1,50.1,0,1,0,71.54,121.9h.23a50.13,50.13,0,0,0,48.48-37.54,2.22,2.22,0,0,0-2.18-2.73" transform="translate(-21.62 -21.67)"/><path class="cls-4" style="fill:#251f47;" d="M119.3,71.48a2.32,2.32,0,1,0,2.32,2.32,2.32,2.32,0,0,0-2.32-2.32" transform="translate(-21.62 -21.67)"/><path class="cls-4" style="fill:#251f47;" d="M100.13,96.25l.24-.29c.28-.34.57-.68.84-1l.26-.35a37.16,37.16,0,0,0,2.15-3.1c.18-.28.36-.57.53-.87s.25-.44.37-.66.38-.69.56-1l.29-.56c.22-.45.44-.91.64-1.37,0-.1.09-.19.13-.28A35.16,35.16,0,0,0,107.52,83l0-.11c.18-.59.35-1.19.51-1.79a1.6,1.6,0,0,1,.05-.21c.15-.61.29-1.22.41-1.83,0,0,0-.08,0-.12q.36-1.84.54-3.75a1.48,1.48,0,0,1,0-.21c0-.35,0-.7.06-1s0-.71.06-1.07,0-.72,0-1.09,0-.71,0-1.06,0-.73-.06-1.09,0-.69-.06-1a1.55,1.55,0,0,1,0-.22q-.18-1.91-.54-3.75s0-.08,0-.12c-.12-.61-.26-1.23-.41-1.84,0-.06,0-.12-.05-.18-.16-.63-.33-1.25-.53-1.86v0a36.14,36.14,0,0,0-1.39-3.73c0-.09-.08-.17-.11-.26-.22-.47-.44-.94-.67-1.41l-.24-.48c-.2-.39-.41-.78-.63-1.16l-.3-.54q-.33-.57-.69-1.14l-.47-.73c-.25-.37-.5-.75-.77-1.12s-.39-.53-.59-.79l-.47-.61c-.22-.29-.45-.57-.68-.85l-.42-.49c-.26-.29-.52-.59-.78-.87L99,46.1a38.82,38.82,0,0,0-3-2.87l-.35-.29c-.31-.26-.63-.51-1-.76l-.45-.35c-.31-.23-.63-.47-1-.69l-.5-.35c-.62-.42-1.25-.82-1.9-1.21l-.44-.27c-.25-.15-.51-.28-.76-.42s-.58-.32-.88-.47-.48-.24-.72-.36l-1-.48-.63-.28c-.44-.19-.88-.36-1.32-.53l-.38-.16a38.69,38.69,0,0,0-3.7-1.15l-.33-.08c-.53-.13-1.06-.25-1.6-.36l-.38-.08c-.56-.1-1.12-.2-1.69-.28l-.26,0c-.64-.08-1.28-.16-1.93-.21h-.15c-.62,0-1.23-.08-1.84-.1h-2l-.6,0c-.55,0-1.08,0-1.62.09l-.32,0a37,37,0,0,0-14.88,4.63h0c-.44.24-.87.5-1.29.76l-.07,0c-.41.25-.81.51-1.2.77l0,0h0A37.79,37.79,0,0,0,36.18,59.86s0,0,0,0c-.16.49-.31,1-.46,1.47a.36.36,0,0,1,0,.1c-.14.47-.26,1-.38,1.43a.85.85,0,0,0,0,.17c-.11.45-.21.91-.3,1.37l-.06.28c-.08.42-.15.84-.22,1.27l-.06.42q-.09.57-.15,1.14l-.06.6c0,.17,0,.34,0,.5s0,.33,0,.49,0,.49,0,.74l0,.89c0,.26,0,.53,0,.79s0,.59,0,.89,0,.52,0,.79,0,.57.05.86,0,.33,0,.5,0,.23,0,.34,0,.49.08.74.06.63.1.95l.09.59c0,.35.1.7.16,1l.09.47c.07.38.15.76.23,1.14a3.59,3.59,0,0,1,.08.35c.1.4.19.81.3,1.21l.06.21A37.93,37.93,0,0,0,37.47,87l.15.33c.12.28.26.55.39.82s.2.42.31.63.24.46.37.69.25.48.39.72l.36.61c.15.26.3.51.46.76l.36.57.35.54,0,0A37.57,37.57,0,0,0,66,108.85l.18,0c.42.06.84.12,1.27.16l.49.06.36,0,.48,0,1.3.08.66,0c.52,0,1,0,1.55,0h.42l1.81-.09.15,0,.39,0c.53,0,1-.1,1.57-.17l.53-.07c.48-.07,1-.15,1.42-.24l.53-.1c.5-.1,1-.21,1.49-.33l.4-.1c.61-.15,1.21-.32,1.81-.51l.51-.17c.41-.13.81-.27,1.21-.42l.83-.31.84-.34.93-.41.63-.3c.35-.17.71-.33,1-.51l.09-.05a36,36,0,0,0,4-2.41.91.91,0,0,0,.16-.11c.41-.28.82-.57,1.21-.87l.12-.09a38.1,38.1,0,0,0,4.66-4.22.57.57,0,0,0,.11-.11c.32-.34.63-.69.94-1m-55.92-6,0,0a32.94,32.94,0,0,1-5.08-12.47.5.5,0,0,1,0-.12c-.07-.37-.13-.73-.18-1.1,0-.11,0-.22,0-.33,0-.3-.08-.6-.12-.91s-.08-.87-.11-1.31v-.16c0-.46,0-.93-.05-1.39,0-.15,0-.31,0-.47,0-.31,0-.62,0-.93s0-.64,0-1l0-.66c0-.38.07-.75.11-1.12,0-.15,0-.31,0-.46a33.44,33.44,0,0,1,30-29.1l.24,0,1.32-.08h.33c.51,0,1,0,1.55,0l.61,0c.37,0,.75,0,1.12.05l.94.08.74.08c.43,0,.85.11,1.28.18l.33.05a33.45,33.45,0,0,1,27.28,28.06l.06.37c0,.39.09.78.13,1.17,0,.23,0,.46,0,.69s0,.63.06.94,0,.6,0,.9,0,.54,0,.82,0,.62,0,.92,0,.61,0,.91,0,.55-.07.83-.06.74-.11,1.11l0,.24c-.07.53-.14,1.06-.24,1.58v0a33.16,33.16,0,0,1-10.6,18.89l0,0a33.07,33.07,0,0,1-18.41,8.2h-.12c-.5,0-1,.09-1.53.12l-.6,0L72,105h-.66q-.53,0-1,0l-.72,0c-.3,0-.61,0-.92-.07l-1-.1-.19,0a33,33,0,0,1-15-5.91,1.29,1.29,0,0,0-.16-.09,33.63,33.63,0,0,1-8.12-8.41" transform="translate(-21.62 -21.67)"/>
<path class="cls-4" style="fill:#251f47;" d="M74.27,90.3v10.23a.63.63,0,0,1-.63.63H70.51a.63.63,0,0,1-.63-.63V90.3a.63.63,0,0,1,.63-.62h3.13a.63.63,0,0,1,.63.62" transform="translate(-21.62 -21.67)"/><path class="cls-4" style="fill:#251f47;" d="M52.59,75.31H42.36a.63.63,0,0,1-.62-.63V71.55a.62.62,0,0,1,.62-.62H52.59a.63.63,0,0,1,.63.62v3.13a.63.63,0,0,1-.63.63" transform="translate(-21.62 -21.67)"/><path class="cls-4" style="fill:#251f47;" d="M70,55.08V44.85a.63.63,0,0,1,.63-.63h3.13a.63.63,0,0,1,.63.63V55.08a.63.63,0,0,1-.63.63H70.65a.63.63,0,0,1-.63-.63" transform="translate(-21.62 -21.67)"/><path class="cls-4" style="fill:#251f47;" d="M91.69,70.07h10.23a.63.63,0,0,1,.63.63v3.13a.63.63,0,0,1-.63.62H91.69a.62.62,0,0,1-.62-.62V70.7a.63.63,0,0,1,.62-.63" transform="translate(-21.62 -21.67)"/><path class="cls-4" style="fill:#251f47;" d="M86.05,69.85h0L86,69.61s0,0,0,0h0a.14.14,0,0,1,0-.06l-.07-.22h0a.28.28,0,0,0-.11-.17,2.18,2.18,0,0,0-2.53-1l-8.89,2.89V46.21a2.18,2.18,0,1,0-4.35,0V74.05a2.15,2.15,0,0,0,.9,1.75,2.22,2.22,0,0,0,1.29.43,2.17,2.17,0,0,0,.66-.11l11.73-3.81a2.17,2.17,0,0,0,1.49-2.26.28.28,0,0,0,0-.2" transform="translate(-21.62 -21.67)"/></g></svg>