<svg id="Layer_1" data-name="Layer 1" xmlns="http://www.w3.org/2000/svg" viewBox="0 0 100 96.97"><title>icon-dots</title><path style="fill: #adb5ca;" d="M955.61,3365.73a10.6,10.6,0,1,1,7.5-3.11A10.7,10.7,0,0,1,955.61,3365.73Zm46.89-3.11a10.6,10.6,0,1,0-7.5,3.11A10.7,10.7,0,0,0,1002.5,3362.62Zm39.39,0a10.6,10.6,0,1,0-7.49,3.11A10.7,10.7,0,0,0,1041.89,3362.62Zm-78.78,37.88a10.6,10.6,0,1,0-7.5,3.11A10.69,10.69,0,0,0,963.11,3400.5Zm39.39,0a10.6,10.6,0,1,0-7.5,3.11A10.7,10.7,0,0,0,1002.5,3400.5Zm39.39,0a10.6,10.6,0,1,0-7.49,3.11A10.7,10.7,0,0,0,1041.89,3400.5Zm-78.78,37.88a10.62,10.62,0,1,0-7.5,3.1A10.69,10.69,0,0,0,963.11,3438.38Zm39.39,0a10.62,10.62,0,1,0-7.5,3.1A10.7,10.7,0,0,0,1002.5,3438.38Zm39.39,0a10.62,10.62,0,1,0-7.49,3.1A10.7,10.7,0,0,0,1041.89,3438.38Z" transform="translate(-945 -3344.52)"/></svg>