<svg id="katman_1" data-name="katman 1" xmlns="http://www.w3.org/2000/svg" xmlns:xlink="http://www.w3.org/1999/xlink" viewBox="0 0 100 103.04"><defs><style>.cls-1{fill:none;}.cls-2{clip-path:url(#clip-path);}</style><clipPath id="clip-path" transform="translate(3.9 4.02)"><rect class="cls-1" x="-3.9" y="-4.02" width="100" height="103.04"/></clipPath></defs><title>icon-subject-gray</title><g class="cls-2" style="fill:#ff3126;"><path d="M76.58-4h-61A19.59,19.59,0,0,0-3.9,15.5V57.8A19.59,19.59,0,0,0,15.62,77.33h1.74v10.3a11.38,11.38,0,0,0,7.37,10.63,10.65,10.65,0,0,0,4,.76,11.32,11.32,0,0,0,8.46-3.91L52.93,77.22H76.58A19.59,19.59,0,0,0,96.1,57.7V15.4A19.64,19.64,0,0,0,76.58-4M87,57.7A10.42,10.42,0,0,1,76.58,68.11H50.87a4.44,4.44,0,0,0-3.36,1.52l-17,19.52A2.26,2.26,0,0,1,28,89.8a2.36,2.36,0,0,1-1.52-2.17v-15a4.58,4.58,0,0,0-4.56-4.55H15.62A10.42,10.42,0,0,1,5.21,57.7V15.4A10.42,10.42,0,0,1,15.62,5H76.47A10.42,10.42,0,0,1,86.88,15.4V57.7Z" transform="translate(3.9 4.02)"/><path d="M66.6,22.77H62.69l.76-3.69a4.49,4.49,0,0,0-8.78-1.84l-1.19,5.53H44.36l.76-3.69a4.49,4.49,0,1,0-8.78-1.84l-1.19,5.53H29.4a4.56,4.56,0,1,0,0,9.11h3.9L31.35,41.1H25.6a4.56,4.56,0,0,0,0,9.11h3.91l-.76,3.69a4.41,4.41,0,0,0,3.47,5.31,2.62,2.62,0,0,0,.86.11,4.62,4.62,0,0,0,4.45-3.58l1.19-5.53h9.12l-.76,3.69a4.41,4.41,0,0,0,3.47,5.31,2.65,2.65,0,0,0,.87.11,4.62,4.62,0,0,0,4.44-3.58l1.19-5.53H62.8a4.56,4.56,0,1,0,0-9.11H58.9l2-9.22H66.6a4.56,4.56,0,0,0,0-9.11M49.68,41.1H40.57l2-9.22h9.11Z" transform="translate(3.9 4.02)"/></g></svg>