<svg id="katman_1" data-name="katman 1" xmlns="http://www.w3.org/2000/svg" xmlns:xlink="http://www.w3.org/1999/xlink" viewBox="0 0 100 85.21"><defs><style>.cls-1{fill:none;}.cls-2{clip-path:url(#clip-path);}</style><clipPath id="clip-path" transform="translate(24.51 20.89)"><rect class="cls-1" x="-24.51" y="-20.89" width="100" height="85.21"/></clipPath></defs><title>icon-heart-filled</title><g class="cls-2"><path d="M46-20.89c-6.74,0-14.57,3.16-20.54,8.26-6-5.1-13.79-8.26-20.53-8.26-16.8,0-29.46,13.66-29.46,31.78,0,28,44.21,51.85,44.66,52.09a10.37,10.37,0,0,0,1.34.57l.16.05a6.62,6.62,0,0,0,1,.35,11.25,11.25,0,0,0,2.81.37,12.26,12.26,0,0,0,2.93-.39,10.56,10.56,0,0,0,1-.37A10.52,10.52,0,0,0,30.82,63,143.46,143.46,0,0,0,53.14,47.53C68,34.94,75.49,22.62,75.49,10.89,75.49-7.23,62.82-20.89,46-20.89" transform="translate(24.51 20.89)"/></g></svg>