<svg id="katman_1" data-name="katman 1" xmlns="http://www.w3.org/2000/svg" viewBox="0 0 100 94.89"><defs><style>.cls-1{fill-rule:evenodd;}</style></defs><title>icon-linkedin</title><path class="cls-1" d="M167.56,197.81H82.34c-4.08,0-7.39-3-7.39-6.8v-81.3c0-3.75,3.31-6.79,7.39-6.79h85.22c4.08,0,7.39,3,7.39,6.79V191C175,194.77,171.64,197.81,167.56,197.81ZM92.28,182.18H107V139.34H92.28Zm7.46-63.5c-5,0-8.33,3.2-8.33,7.4s3.2,7.41,8.14,7.41h.09c5.14,0,8.33-3.29,8.33-7.41S104.78,118.68,99.74,118.68Zm60.37,38.94c0-13.16-7.27-19.29-17-19.29-7.83,0-11.32,4.15-13.28,7.07v-6.06H115.15c.2,4,0,42.84,0,42.84h14.73V158.26a9.48,9.48,0,0,1,.49-3.48,8,8,0,0,1,7.55-5.2c5.33,0,7.46,3.93,7.46,9.69v22.91h14.73Zm-30.33-12.08.1-.14v.14Z" transform="translate(-74.95 -102.92)"/></svg>