<?xml version="1.0" encoding="utf-8"?>
<!-- Generator: Adobe Illustrator 24.3.0, SVG Export Plug-In . SVG Version: 6.00 Build 0)  -->
<svg version="1.1" id="Layer_1" xmlns="http://www.w3.org/2000/svg" xmlns:xlink="http://www.w3.org/1999/xlink" x="0px" y="0px"
	 viewBox="0 0 88.9 81.9" style="enable-background:new 0 0 88.9 81.9;" xml:space="preserve">
<style type="text/css">
	.st0{fill:#878A96;}
</style>
<path class="st0" d="M40.1,25.9H28.8c-1,0-1.8,0.8-1.8,1.8l0,0v11.4c0,1,0.8,1.8,1.8,1.8h11.3c1,0,1.8-0.8,1.8-1.8V27.7
	C41.9,26.7,41.1,25.9,40.1,25.9L40.1,25.9z M38.3,29.5v7.8h-7.7v-7.8H38.3z"/>
<path class="st0" d="M49.2,40.9h11.3c1,0,1.8-0.8,1.9-1.8V27.7c-0.1-1-0.9-1.8-1.9-1.8H49.2c-1,0-1.8,0.8-1.8,1.8v11.4
	C47.4,40.1,48.2,40.9,49.2,40.9C49.2,40.9,49.2,40.9,49.2,40.9z M51,37.3v-7.8h7.7v7.8H51z"/>
<path class="st0" d="M40.1,44.1H28.8c-1,0-1.8,0.8-1.8,1.8c0,0,0,0,0,0v11.4c0,1,0.8,1.8,1.8,1.8h11.3c1,0,1.8-0.8,1.8-1.8V45.9
	C41.9,44.9,41.1,44.1,40.1,44.1C40.1,44.1,40.1,44.1,40.1,44.1z M38.3,47.7v7.8h-7.7v-7.8L38.3,47.7z"/>
<path class="st0" d="M49.2,59.1h11.3c1,0,1.8-0.8,1.9-1.8V45.9c-0.1-1-0.9-1.8-1.9-1.8H49.2c-1,0-1.8,0.8-1.8,1.8v11.4
	C47.4,58.3,48.2,59.1,49.2,59.1z M51,55.5v-7.8h7.7v7.8H51z"/>
<path class="st0" d="M79.2,78.1h-8.8V22.9c0-2.8-2.2-5-5-5h-0.6v-6.3c0-0.9-0.7-1.6-1.6-1.6c-0.1,0-0.1,0-0.2,0H46.2V2
	c0-1-0.8-1.8-1.8-1.8c-1,0-1.8,0.8-1.8,1.8v8H25.9c-0.9-0.1-1.7,0.5-1.8,1.4c0,0.1,0,0.1,0,0.2v6.3h-0.6c-2.8,0-5,2.2-5,5v55.2H9.6
	c-1,0-1.8,0.8-1.8,1.8c0,1,0.8,1.8,1.8,1.8c0,0,0,0,0,0h69.6c1,0,1.8-0.8,1.8-1.8C81,78.9,80.2,78.1,79.2,78.1
	C79.2,78.1,79.2,78.1,79.2,78.1z M50,65.2v13.1H38.9V65.2H50z M27.7,17.9v-4.5h33.5v4.5H27.7z M51.8,61.6H37c-1,0-1.8,0.8-1.8,1.8
	v14.9H22.1V22.9c0-0.8,0.6-1.4,1.4-1.4h41.9c0.8,0,1.4,0.6,1.4,1.4c0,0,0,0,0,0v55.4H53.6V63.4C53.6,62.4,52.8,61.6,51.8,61.6
	C51.8,61.6,51.8,61.6,51.8,61.6z"/>
</svg>
