<svg id="katman_1" data-name="katman 1" xmlns="http://www.w3.org/2000/svg" xmlns:xlink="http://www.w3.org/1999/xlink" viewBox="0 0 100 57.83"><defs><style>.cls-1{fill:none;}.cls-2{clip-path:url(#clip-path);}</style><clipPath id="clip-path" transform="translate(2.45 1.42)"><rect class="cls-1" x="-2.45" y="-1.42" width="100" height="57.83"/></clipPath></defs><title>icon-sort-gray</title><g class="cls-2" style="fill: #459af0;"><path d="M28.46,32.65l-5.67,5.68V3.84a5.26,5.26,0,1,0-10.52,0V38.33L6.59,32.65a5.2,5.2,0,0,0-7.46,0,5.2,5.2,0,0,0,0,7.47L13.85,54.73a5.25,5.25,0,0,0,3.68,1.58,5.08,5.08,0,0,0,3.68-1.58L35.83,40.12a5.25,5.25,0,0,0-7.37-7.47" transform="translate(2.45 1.42)"/><path d="M92.29-1.42H51a5.21,5.21,0,0,0-5.26,5.26A5.2,5.2,0,0,0,51,9.1H92.29a5.2,5.2,0,0,0,5.26-5.26,5.21,5.21,0,0,0-5.26-5.26" transform="translate(2.45 1.42)"/><path d="M51,32.65H81.78a5.26,5.26,0,0,0,0-10.51H51a5.26,5.26,0,1,0,0,10.51" transform="translate(2.45 1.42)"/><path d="M51,56.42h20.4a5.26,5.26,0,0,0,0-10.52H51a5.26,5.26,0,1,0,0,10.52" transform="translate(2.45 1.42)"/></g></svg>