<svg id="katman_1" data-name="katman 1" xmlns="http://www.w3.org/2000/svg" xmlns:xlink="http://www.w3.org/1999/xlink" viewBox="0 0 100 104.34"><defs><style>.cls-1{fill:none;}.cls-2{clip-path:url(#clip-path);}</style><clipPath id="clip-path" transform="translate(25.92 27.04)"><rect class="cls-1" x="-25.92" y="-27.04" width="100" height="104.34"/></clipPath></defs><title>icon-settings</title><g class="cls-2"><path d="M50,25.11a26,26,0,1,0-25.95,26,26,26,0,0,0,26-26M24.06,40.69A15.58,15.58,0,1,1,39.63,25.11,15.6,15.6,0,0,1,24.06,40.69" transform="translate(25.92 27.04)"/><path d="M70.71,35.5l-1.66-1.39a44.4,44.4,0,0,0,.36-16.79L70.75,16A10.25,10.25,0,0,0,72.39,3.45l-5-8.62A10.35,10.35,0,0,0,55.8-9.79l-1.24.33A45.36,45.36,0,0,0,39-18.5l-.34-1.14a10.39,10.39,0,0,0-10-7.4H18.58A10.35,10.35,0,0,0,8.73-19.4l-.27,1.22A45.66,45.66,0,0,0,1.1-14.73,41.46,41.46,0,0,0-6.63-8.9L-8.2-9.32A10.33,10.33,0,0,0-19.75-4.46L-24.6,4.16a10.19,10.19,0,0,0,2,12.57l1.71,1.62a45.19,45.19,0,0,0,.54,16l-2,1.81a10.29,10.29,0,0,0-2,12.76l4.87,8.3A10.38,10.38,0,0,0-7.28,61.81l3.18-1.05-.26-.14.07,0A45.51,45.51,0,0,0,8.93,67.9.24.24,0,0,1,9,68c0,.14.08.27.13.4l.4,1.13a10.31,10.31,0,0,0,10,7.8l.79-.12h8.8a10.3,10.3,0,0,0,9.89-7.79l.33-.94a4.46,4.46,0,0,0,.19-.53.54.54,0,0,1,.17-.08,44.49,44.49,0,0,0,7.67-3.55,39.66,39.66,0,0,0,5.51-3.79l2.95.91a10.37,10.37,0,0,0,12.07-4.8l4.77-8.42a10.19,10.19,0,0,0-2-12.68m-41,29.8-.32.9a2,2,0,0,0-.22.65l-9.45.07a4.71,4.71,0,0,0-.19-.64l-.42-1.13a10.41,10.41,0,0,0-6.7-7A35.06,35.06,0,0,1,2.15,52.48a10.12,10.12,0,0,0-9.57-1.65l-3.07,1.1-4.89-8.17,2.08-1.87a10.27,10.27,0,0,0,3.07-9.61,35.08,35.08,0,0,1-.42-12.88,10.15,10.15,0,0,0-3.18-8.87L-15.55,9-10.76.45l1.52.42A10.1,10.1,0,0,0,.36-1.45,35.91,35.91,0,0,1,6.41-6,33.66,33.66,0,0,1,12.05-8.6a10.27,10.27,0,0,0,6.4-6.94l.27-1.25,10-.05.35,1.16a10.17,10.17,0,0,0,6.48,6.94A34.86,34.86,0,0,1,47.83-1.62,10.12,10.12,0,0,0,57.26.56l1.19-.4,5,8.52L62.09,10a10.23,10.23,0,0,0-2.91,8.88A34.89,34.89,0,0,1,58.89,32,10.36,10.36,0,0,0,62,41.62l1.67,1.44L59,51.45,56,50.54a10.17,10.17,0,0,0-9.48,1.8,37.06,37.06,0,0,1-4.34,3,34.36,34.36,0,0,1-5.8,2.79,10.39,10.39,0,0,0-6.75,7.14m25-74.64h0l0,0ZM-20.83,18.23v-.1l0,0a.25.25,0,0,0,0,.08" transform="translate(25.92 27.04)"/></g></svg>