<svg id="katman_1" data-name="katman 1" xmlns="http://www.w3.org/2000/svg" xmlns:xlink="http://www.w3.org/1999/xlink" viewBox="0 0 99 74.25"><defs><style>.cls-1{fill:none;}.cls-2{clip-path:url(#clip-path);}</style><clipPath id="clip-path" transform="translate(196.5 88.13)"><rect class="cls-1" x="-196.5" y="-88.13" width="99" height="74.25"/></clipPath></defs><title>icon-credit-card-f</title><g class="cls-2"><path d="M-143.57-34.73a22.6,22.6,0,0,0,4.82-6.81,10.34,10.34,0,0,0,4.13.85A10.32,10.32,0,0,0-124.31-51a10.32,10.32,0,0,0-10.31-10.31,10.34,10.34,0,0,0-4.13.85,22.6,22.6,0,0,0-4.82-6.81,18.52,18.52,0,0,1,8.95-2.29A18.56,18.56,0,0,1-116.06-51a18.56,18.56,0,0,1-18.56,18.56,18.52,18.52,0,0,1-8.95-2.29M-196.5-79.9a8.24,8.24,0,0,1,8.27-8.22h82.46A8.24,8.24,0,0,1-97.5-79.9v57.8a8.24,8.24,0,0,1-8.27,8.22h-82.46a8.24,8.24,0,0,1-8.27-8.22Zm8.25,57.79s82.48,0,82.48,0,0-57.77,0-57.77-82.48,0-82.48,0,0,57.77,0,57.77m28.87-10.33A18.56,18.56,0,0,1-177.94-51a18.56,18.56,0,0,1,18.56-18.56A18.56,18.56,0,0,1-140.81-51a18.56,18.56,0,0,1-18.57,18.56" transform="translate(196.5 88.13)"/></g></svg>