<svg id="katman_1" data-name="katman 1" xmlns="http://www.w3.org/2000/svg" xmlns:xlink="http://www.w3.org/1999/xlink" viewBox="0 0 34.14 42.84"><defs><style>.cls-1{fill:none;}.cls-2{clip-path:url(#clip-path);}</style><clipPath id="clip-path" transform="translate(0 0)"><rect class="cls-1" width="34.14" height="42.84"/></clipPath></defs><title>icon-success</title><g class="cls-2"><path d="M24.07,23.63a1,1,0,0,1,0,1.42h0l-9,9a1,1,0,0,1-.71.29h-.07a1,1,0,0,1-.71-.38l-4-5A1,1,0,0,1,11,27.59a1.13,1.13,0,0,1,.1.13l3.31,4.12,8.21-8.21a1,1,0,0,1,1.41,0Zm6.79,5.21a14,14,0,1,1-14-14,14,14,0,0,1,14,14m-2,0a12,12,0,1,0-12,12,12,12,0,0,0,12-12" transform="translate(0 0)"/><path d="M2.23,5.69a.84.84,0,0,1-.58-.24.83.83,0,0,1-.23-.58.79.79,0,0,1,.23-.57.85.85,0,0,1,1.17,0,.82.82,0,0,1,.24.57.84.84,0,0,1-.24.58.87.87,0,0,1-.59.24" transform="translate(0 0)"/><path d="M21.7,11.3a.83.83,0,0,1-.58-.23.86.86,0,0,1-.24-.58.84.84,0,0,1,.24-.58.85.85,0,0,1,1.17,0,.9.9,0,0,1,.23.58.88.88,0,0,1-.23.58.89.89,0,0,1-.59.23" transform="translate(0 0)"/><path d="M19.59,4.09A3.28,3.28,0,0,1,16.31.82a.82.82,0,1,0-1.63,0,3.29,3.29,0,0,1-3.29,3.27.82.82,0,0,0,0,1.64A3.29,3.29,0,0,1,14.68,9a.81.81,0,0,0,.81.82A.82.82,0,0,0,16.31,9a3.28,3.28,0,0,1,3.28-3.27.82.82,0,0,0,0-1.64M15.49,6.3A4.84,4.84,0,0,0,14.1,4.91a4.84,4.84,0,0,0,1.39-1.39,4.84,4.84,0,0,0,1.39,1.39A5,5,0,0,0,15.49,6.3" transform="translate(0 0)"/><path d="M33.83,14.6a2.22,2.22,0,0,1-1-2.95.54.54,0,0,0-.24-.73.56.56,0,0,0-.74.24,2.19,2.19,0,0,1-2.94,1,.56.56,0,0,0-.74.25.54.54,0,0,0,.24.73,2.2,2.2,0,0,1,1,2.95.55.55,0,1,0,1,.49,2.2,2.2,0,0,1,2.94-1,.55.55,0,0,0,.74-.24.54.54,0,0,0-.25-.74m-3.23.34a4.13,4.13,0,0,0-.55-1.59,4.12,4.12,0,0,0,1.6-.55,4.34,4.34,0,0,0,.54,1.6,4.48,4.48,0,0,0-1.59.54" transform="translate(0 0)"/><path d="M4.93,11.29A1.93,1.93,0,0,1,2.53,10a.47.47,0,0,0-.6-.31.47.47,0,0,0-.31.59A1.94,1.94,0,0,1,.34,12.7a.47.47,0,0,0-.32.59.47.47,0,0,0,.6.32A1.92,1.92,0,0,1,3,14.89a.47.47,0,0,0,.6.31.46.46,0,0,0,.31-.59,1.93,1.93,0,0,1,1.28-2.4.48.48,0,0,0-.28-.92M3.07,13.45a3.74,3.74,0,0,0-1.29-.69,3.88,3.88,0,0,0,.69-1.3,3.55,3.55,0,0,0,1.3.69,3.65,3.65,0,0,0-.7,1.3" transform="translate(0 0)"/></g></svg>