<svg id="katman_1" data-name="katman 1" xmlns="http://www.w3.org/2000/svg" xmlns:xlink="http://www.w3.org/1999/xlink" viewBox="0 0 100 121.7"><defs><style>.cls-1{fill:none;}.cls-2{clip-path:url(#clip-path);}</style><clipPath id="clip-path" transform="translate(-326.25 -397.06)"><rect class="cls-1" x="326.25" y="397.06" width="100" height="121.7"/></clipPath></defs><title>icon-docs</title><g class="cls-2"><path d="M399.34,420.81H359c-1.86,0-3.72,0-5.59,0h-.08c1.71,2.24,3.41,4.49,5.13,6.72q1.79-5.53,3.6-11.08c.32-1,.64-2,1-3-1.72,1.3-3.42,2.61-5.13,3.91h8.93a5.39,5.39,0,0,0,5.31-5.32,12.22,12.22,0,0,1,.08-1.35c-.06.46-.13.94-.18,1.41a10.11,10.11,0,0,1,.65-2.41c-.17.43-.36.85-.53,1.28a10.37,10.37,0,0,1,1.21-2.12l-.84,1.08a10.17,10.17,0,0,1,1.82-1.83l-1.08.83a11,11,0,0,1,2.1-1.22l-1.27.53a9.91,9.91,0,0,1,2.4-.65l-1.41.19a10,10,0,0,1,2.57,0c-.47-.07-.94-.14-1.41-.19a10.37,10.37,0,0,1,2.41.65l-1.28-.53a9.76,9.76,0,0,1,2.1,1.22l-1.08-.83A9.86,9.86,0,0,1,380.2,410l-.83-1.08a9.86,9.86,0,0,1,1.21,2.12l-.54-1.28a9.89,9.89,0,0,1,.66,2.41c-.07-.47-.14-.95-.19-1.41a12.22,12.22,0,0,1,.08,1.35,5.4,5.4,0,0,0,5.32,5.32h8.85c-1.72-1.3-3.42-2.61-5.13-3.91q1.81,5.59,3.62,11.19c.31,1,.63,1.91.93,2.86a5.59,5.59,0,0,0,2.45,3.17,5.37,5.37,0,0,0,4.09.53c2.65-.85,4.64-3.7,3.71-6.53-1.2-3.7-2.39-7.39-3.6-11.09-.32-1-.64-2-1-3a5.47,5.47,0,0,0-5.13-3.91h-8.85l5.31,5.32a14.68,14.68,0,0,0-2.41-8.2,15.73,15.73,0,0,0-7.61-5.94,14.74,14.74,0,0,0-16.12,4.37,16.52,16.52,0,0,0-2.87,5.09,14.56,14.56,0,0,0-.73,4.69l5.32-5.32h-8.93a5.46,5.46,0,0,0-5.13,3.91l-3.63,11.19c-.3,1-.62,1.91-.93,2.86-1.08,3.31,1.8,6.72,5.13,6.72h40.36c1.86,0,3.72,0,5.59,0h.08a5.3,5.3,0,1,0,0-10.6" transform="translate(-326.25 -397.06)"/><path d="M415.62,431.38v61.67c0,2.63,0,5.24,0,7.88a13.8,13.8,0,0,1-.11,1.68c.07-.46.14-.94.19-1.41a13.25,13.25,0,0,1-.89,3.26c.17-.42.36-.85.53-1.28a12.4,12.4,0,0,1-1.58,2.7l.84-1.07a13.71,13.71,0,0,1-2.32,2.31l1.08-.84a12.81,12.81,0,0,1-2.7,1.58l1.28-.53a13.13,13.13,0,0,1-3.26.89c.47-.07.95-.13,1.41-.18a24,24,0,0,1-3.06.1H344a15.74,15.74,0,0,1-1.67-.1l1.41.18a13.25,13.25,0,0,1-3.26-.89l1.28.53a12.64,12.64,0,0,1-2.7-1.58l1.08.84a13.29,13.29,0,0,1-2.31-2.31l.83,1.07a13,13,0,0,1-1.58-2.7c.17.43.36.86.53,1.28a13.13,13.13,0,0,1-.89-3.26c.07.47.14.95.19,1.41a26.33,26.33,0,0,1-.11-3.2V439.48c0-2.69,0-5.37,0-8.06a13.8,13.8,0,0,1,.11-1.68c-.07.46-.13.94-.19,1.41a13.25,13.25,0,0,1,.89-3.26c-.17.42-.36.85-.53,1.28a12.4,12.4,0,0,1,1.58-2.7l-.83,1.07a13.29,13.29,0,0,1,2.31-2.31l-1.08.84a12.81,12.81,0,0,1,2.7-1.58l-1.28.53a13.13,13.13,0,0,1,3.26-.89l-1.41.18a42,42,0,0,1,4.89-.1h8.37c-1.71-2.25-3.41-4.49-5.13-6.73-.78,2.41-1.56,4.83-2.35,7.23-1.08,3.31,1.8,6.73,5.13,6.73h40.36c1.86,0,3.72,0,5.59,0h.08c3.33,0,6.21-3.42,5.13-6.73-.78-2.4-1.56-4.82-2.35-7.23-1.71,2.25-3.41,4.5-5.13,6.73h10.59a21.41,21.41,0,0,1,2.53.1l-1.41-.18a13.25,13.25,0,0,1,3.26.89l-1.28-.53a12.64,12.64,0,0,1,2.7,1.58l-1.08-.84a13.65,13.65,0,0,1,2.31,2.31c-.28-.36-.56-.71-.83-1.07a13.18,13.18,0,0,1,1.58,2.7l-.53-1.28a13.57,13.57,0,0,1,.89,3.26c-.07-.47-.14-.95-.19-1.41a12.92,12.92,0,0,1,.12,1.64,5.54,5.54,0,0,0,1.55,3.77,5.32,5.32,0,0,0,9.08-3.77,18,18,0,0,0-13-17.14,22.61,22.61,0,0,0-6.18-.66H397c-3.32,0-6.21,3.41-5.13,6.72.78,2.41,1.57,4.83,2.35,7.23l5.13-6.72H359c-1.86,0-3.72,0-5.59,0h-.08c1.71,2.24,3.41,4.49,5.13,6.72.78-2.4,1.57-4.82,2.35-7.23,1.08-3.31-1.79-6.72-5.13-6.72h-6.07c-2.09,0-4.2-.11-6.29,0a17.74,17.74,0,0,0-14.06,7.92,17.66,17.66,0,0,0-3,10v69.3a18.37,18.37,0,0,0,4.45,11.84,17.77,17.77,0,0,0,13.34,6h60.15c3.14,0,6.37.18,9.4-.76a18.67,18.67,0,0,0,7.12-4.15,18.38,18.38,0,0,0,4.46-6.89,18,18,0,0,0,1.05-6.54v-69a5.3,5.3,0,1,0-10.6,0" transform="translate(-326.25 -397.06)"/><path d="M346.85,453.64h51.63c2.39,0,4.78,0,7.16,0h.11a5.32,5.32,0,0,0,0-10.63H354.12c-2.39,0-4.79,0-7.16,0h-.11a5.32,5.32,0,1,0,0,10.63" transform="translate(-326.25 -397.06)"/><path d="M346.85,475.22h51.63c2.39,0,4.78,0,7.16,0h.11a5.32,5.32,0,0,0,0-10.63H354.12c-2.39,0-4.79,0-7.16,0h-.11a5.32,5.32,0,1,0,0,10.63" transform="translate(-326.25 -397.06)"/><path d="M346.85,496.81h40.29a5.32,5.32,0,0,0,0-10.64H346.85a5.32,5.32,0,0,0,0,10.64" transform="translate(-326.25 -397.06)"/></g></svg>