<svg id="katman_1" data-name="katman 1" xmlns="http://www.w3.org/2000/svg" xmlns:xlink="http://www.w3.org/1999/xlink" viewBox="0 0 100 100"><defs><style>.cls-1{fill:none;}.cls-2{clip-path:url(#clip-path);}</style><clipPath id="clip-path" transform="translate(38 38)"><rect class="cls-1" x="-38" y="-38" width="100" height="100"/></clipPath></defs><title>icon-circle-close-c</title><g class="cls-2"><path d="M12-38A50,50,0,1,0,62,12,50.06,50.06,0,0,0,12-38m0,91.67A41.67,41.67,0,1,1,53.67,12,41.72,41.72,0,0,1,12,53.67M31.61-1.72,17.89,12,31.61,25.72a4.16,4.16,0,1,1-5.89,5.89L12,17.89-1.72,31.61a4.16,4.16,0,0,1-2.95,1.22,4.16,4.16,0,0,1-2.94-1.22,4.16,4.16,0,0,1,0-5.89L6.11,12-7.61-1.72a4.16,4.16,0,0,1,0-5.89,4.16,4.16,0,0,1,5.89,0L12,6.11,25.72-7.61a4.16,4.16,0,0,1,5.89,0,4.16,4.16,0,0,1,0,5.89" transform="translate(38 38)"/></g></svg>