<svg id="katman_1" data-name="katman 1" xmlns="http://www.w3.org/2000/svg" xmlns:xlink="http://www.w3.org/1999/xlink" viewBox="0 0 100 104.84"><defs><style>.cls-1{fill:none;}.cls-2{clip-path:url(#clip-path);}</style><clipPath id="clip-path" transform="translate(15.11 15.84)"><rect class="cls-1" x="-15.11" y="-15.84" width="100" height="104.84"/></clipPath></defs><title>icon-logout</title><g class="cls-2"><path d="M34.89,45.31A6.29,6.29,0,0,0,41.18,39V-9.55a6.29,6.29,0,0,0-6.29-6.29A6.29,6.29,0,0,0,28.6-9.55V39a6.29,6.29,0,0,0,6.29,6.29" transform="translate(15.11 15.84)"/><path d="M79.32,16A49.71,49.71,0,0,0,57.84-5.43a6.31,6.31,0,0,0-8.49,2.7A6.29,6.29,0,0,0,49,2.08a6.23,6.23,0,0,0,3.11,3.68A37.47,37.47,0,0,1,68.14,56.19,37.43,37.43,0,1,1,17.72,5.76a6.22,6.22,0,0,0,3.11-3.69,6.22,6.22,0,0,0-.41-4.8,6.27,6.27,0,0,0-5.6-3.4,6.28,6.28,0,0,0-2.88.7A50,50,0,0,0,35,89a49.33,49.33,0,0,0,22.87-5.57A50.07,50.07,0,0,0,79.32,16" transform="translate(15.11 15.84)"/></g></svg>