<?xml version="1.0" encoding="utf-8"?>
<!-- Generator: Adobe Illustrator 25.0.1, SVG Export Plug-In . SVG Version: 6.00 Build 0)  -->
<svg version="1.1" id="Layer_1" xmlns="http://www.w3.org/2000/svg" xmlns:xlink="http://www.w3.org/1999/xlink" x="0px" y="0px"
	 viewBox="0 0 141.2 95.5" style="enable-background:new 0 0 141.2 95.5;" xml:space="preserve">
<path d="M72.5,38.3c-6.1-1.7-12.7-0.9-18.2,2.2c-5.6,3.1-9.6,8.3-11.3,14.4c-3.6,12.7,3.9,25.9,16.6,29.5c0,0,0.1,0,0.1,0
	c2.1,0.6,4.2,0.9,6.4,0.9h0.1c5,0,9.9-1.6,13.9-4.5h0.2l12.5,12.7c0.5,0.5,1.1,0.8,1.8,0.8l0,0c0.7,0,1.3-0.2,1.8-0.7
	c0.6-0.5,0.9-1.2,0.9-2l0,0c-0.1-0.6-0.4-1.2-0.8-1.7l0,0L84.1,77.1v-0.2c2.3-2.7,4-5.8,4.9-9.2c1.7-6.1,0.9-12.7-2.2-18.2
	C83.7,44,78.6,40,72.5,38.3z M84.3,66.4c-1.4,4.8-4.6,8.9-8.9,11.4c-2.8,1.6-6,2.4-9.3,2.4c-1.7,0-3.4-0.2-5.1-0.7
	c-4.8-1.4-8.9-4.6-11.4-8.9c-5.1-9.1-1.9-20.6,7.2-25.8c2.9-1.6,6.1-2.5,9.3-2.4c1.7,0,3.4,0.2,5.1,0.7C81.2,46,87,56.4,84.3,66.4z"
	/>
<path d="M130.9,0H10.6C5.7,0,1.8,3.9,1.8,8.8l0,0v40.7c0,4.9,3.9,8.8,8.8,8.8h36.7c0.1-1,0.3-2.1,0.6-3.1l0.6-1.9h-38
	c-2.1,0-3.8-1.7-3.8-3.8V8.8C6.8,6.7,8.5,5,10.6,5h120.3c2,0,3.7,1.7,3.7,3.7c0,0,0,0.1,0,0.1v40.7c0,2.1-1.7,3.8-3.8,3.8l0,0H83.6
	c0.7,1.6,1.1,3.3,1.3,5h46c4.9,0,8.8-3.9,8.8-8.8c0,0,0,0,0,0V8.8C139.6,4,135.7,0.1,130.9,0z"/>
<path d="M20.2,17.2L20.2,17.2c0,1.5,1.2,2.7,2.7,2.7c0,0,0,0,0,0h94.5c1.5,0,2.7-1.2,2.7-2.7l0,0c0-1.5-1.2-2.7-2.7-2.7H22.9
	C21.4,14.5,20.2,15.7,20.2,17.2z"/>
<path d="M22.9,33.8h54c1.5,0,2.7-1.2,2.7-2.7l0,0l0,0c0-1.5-1.2-2.7-2.7-2.7l0,0h-54c-1.5,0-2.7,1.2-2.7,2.7l0,0l0,0
	C20.2,32.6,21.4,33.8,22.9,33.8C22.9,33.8,22.9,33.8,22.9,33.8z"/>
</svg>
