<svg id="katman_1" data-name="katman 1" xmlns="http://www.w3.org/2000/svg" xmlns:xlink="http://www.w3.org/1999/xlink" viewBox="0 0 100 125.29"><defs><style>.cls-1{fill:none;}.cls-2{clip-path:url(#clip-path);}</style><clipPath id="clip-path" transform="translate(32.6 40.84)"><rect class="cls-1" x="-32.6" y="-40.85" width="100" height="125.29"/></clipPath></defs><title>icon-sand-watch</title><g class="cls-2"><path d="M-25.7,84.44H60.5a6.9,6.9,0,1,0,0-13.79H53.61V56.86a30.5,30.5,0,0,0-11-23.33l-14.56-12L42.35,9.77a29.23,29.23,0,0,0,11.26-23V-27H60.5a6.9,6.9,0,0,0,6.9-6.9,6.9,6.9,0,0,0-6.9-6.89H-25.7a6.9,6.9,0,0,0-6.9,6.89A6.9,6.9,0,0,0-25.7-27h6.89v13.79a30.46,30.46,0,0,0,11,23.33L6.44,21.8-7.84,33.54a29.78,29.78,0,0,0-11,23.32V70.65H-25.7a6.91,6.91,0,0,0-6.9,6.9,6.9,6.9,0,0,0,6.9,6.89M1-.94a16.18,16.18,0,0,1-6-12.6v-13.8H39.81v13.8a15.74,15.74,0,0,1-6,12.62L17.4,12.45ZM-5.3,56.28a16.15,16.15,0,0,1,6-12.59l16.43-13.4L33.54,43.67a16.07,16.07,0,0,1,6.27,12.61v13.8H-5.3Z" transform="translate(32.6 40.84)"/></g></svg>