<svg id="katman_1" data-name="katman 1" xmlns="http://www.w3.org/2000/svg" xmlns:xlink="http://www.w3.org/1999/xlink" viewBox="0 0 100 85.21"><defs><style>.cls-1{fill:none;}.cls-2{clip-path:url(#clip-path);}</style><clipPath id="clip-path" transform="translate(24.51 20.89)"><rect class="cls-1" x="-24.51" y="-20.89" width="100" height="85.21"/></clipPath></defs><title>icon-heart</title><g class="cls-2"><path d="M46-20.89c-6.74,0-14.57,3.16-20.54,8.26-6-5.1-13.79-8.26-20.53-8.26-16.8,0-29.46,13.66-29.46,31.78,0,28,44.21,51.85,44.66,52.09a10.37,10.37,0,0,0,1.34.57l.16.05a6.62,6.62,0,0,0,1,.35,11.25,11.25,0,0,0,2.81.37,12.26,12.26,0,0,0,2.93-.39,10.56,10.56,0,0,0,1-.37A10.52,10.52,0,0,0,30.82,63,143.46,143.46,0,0,0,53.14,47.53C68,34.94,75.49,22.62,75.49,10.89,75.49-7.23,62.82-20.89,46-20.89M24.72,54.3C14.44,48.81-14.7,29.16-14.7,10.88c0-12.52,8.44-22,19.65-22,5.62,0,12.52,3.51,16.79,8.54A4.9,4.9,0,0,0,25.48-.87h.13a4.86,4.86,0,0,0,3.61-1.67c4.28-5,11.18-8.54,16.8-8.54,11.2,0,19.65,9.44,19.65,22,0,18.34-29.23,38-39.41,43.4l-.25.09-.3.11-.35,0L25,54.37Z" transform="translate(24.51 20.89)"/></g></svg>