<?xml version="1.0" encoding="utf-8"?>
<!-- Generator: Adobe Illustrator 24.3.0, SVG Export Plug-In . SVG Version: 6.00 Build 0)  -->
<svg version="1.1" id="katman_1" xmlns="http://www.w3.org/2000/svg" xmlns:xlink="http://www.w3.org/1999/xlink" x="0px" y="0px"
	 viewBox="0 0 111.4 98.5" style="enable-background:new 0 0 111.4 98.5;" xml:space="preserve">
<style type="text/css">
	.st0{fill:none;}
</style>
<g>
	<path class="st0" style="fill: none;" d="M67.3,45.5c0.9,0,1.8,0.1,2.6,0.2V25.5h-6.3l0,6c0,1.7-1.3,3-3,3c-1.6,0-3-1.3-3-3l0-6.1H31.5l0,6
		c0,1.7-1.3,3-3,3c-1.6,0-3-1.3-3-3l0-6.1h-6.2v46.6h26.1c-0.3-1.4-0.4-2.8-0.4-4.3C45,55.5,55,45.5,67.3,45.5z"/>
	<path class="st0" style="fill: none;" d="M57.5,19c0-7.2-5.9-13.1-13.1-13.1S31.4,11.8,31.4,19l0,0.5h26.1L57.5,19z"/>
	<path d="M97.2,93.3L85.1,81.2c2.9-3.8,4.5-8.6,4.5-13.4c0-9.2-5.6-17.2-13.7-20.5V24.2c0-2.6-2.1-4.7-4.7-4.7h-7.7l0-0.5
		C63.5,8.5,55-0.1,44.5-0.1C34-0.1,25.4,8.5,25.4,19l0,0.5H18c-2.6,0-4.7,2.1-4.7,4.7v49.2c0,2.6,2.1,4.7,4.7,4.7h29.5
		c3.7,7.1,11.2,12,19.8,12c4.8,0,9.5-1.6,13.4-4.5l12.1,12.1c0.6,0.6,1.4,0.9,2.2,0.9s1.6-0.3,2.2-0.9c0.6-0.6,0.9-1.4,0.9-2.2
		C98.1,94.6,97.8,93.9,97.2,93.3z M44.5,5.9c7.2,0,13.1,5.9,13.1,13.1l0,0.5H31.4l0-0.5C31.4,11.8,37.3,5.9,44.5,5.9z M45.4,72.1
		H19.3V25.5h6.2l0,6.1c0,1.6,1.4,3,3,3c1.7,0,3-1.4,3-3l0-6h26.1l0,6.1c0,1.6,1.4,3,3,3c1.7,0,3-1.4,3-3l0-6h6.3v20.2
		c-0.9-0.1-1.7-0.2-2.6-0.2C55,45.5,45,55.5,45,67.8C45,69.3,45.2,70.7,45.4,72.1z M67.3,83.8c-4.9,0-9.4-2.2-12.3-5.8
		c-1.4-1.7-2.5-3.8-3.1-6c-0.4-1.4-0.6-2.8-0.6-4.3c0-8.8,7.2-16,16-16c0.9,0,1.8,0.1,2.6,0.2c2.2,0.4,4.2,1.2,6,2.3
		c4.4,2.9,7.4,7.8,7.4,13.5C83.3,76.6,76.1,83.8,67.3,83.8z"/>
</g>
</svg>
