<svg id="katman_1" data-name="katman 1" xmlns="http://www.w3.org/2000/svg" xmlns:xlink="http://www.w3.org/1999/xlink" viewBox="0 0 99.99 158.12"><defs><style>.cls-1{fill:none;}.cls-2{clip-path:url(#clip-path);}</style><clipPath id="clip-path" transform="translate(48.42 76.57)"><rect class="cls-1" x="-48.42" y="-76.56" width="100" height="158.12"/></clipPath></defs><title>icon-long-arrow</title><g class="cls-2"><path d="M-44.82,46.22-4.71,79.3a6.34,6.34,0,0,0,1.2.86h0a1.38,1.38,0,0,0,.35.22s0,0,.06.06a1,1,0,0,1,.32.13c.06,0,.09.06.16.06a.21.21,0,0,0,.19.07,1.28,1.28,0,0,0,.28.15h0a10.28,10.28,0,0,0,3.68.7,10.51,10.51,0,0,0,3.7-.7,1.28,1.28,0,0,0,.28-.15.16.16,0,0,0,.16-.07s.1-.06.16-.06a2.4,2.4,0,0,1,.32-.13c0-.06,0-.06.06-.06a2.48,2.48,0,0,0,.38-.22c.44-.29.82-.54,1.24-.86L48,46.22a9.91,9.91,0,0,0-12.6-15.29L11.49,50.66V-66.66a9.9,9.9,0,0,0-9.9-9.91,9.9,9.9,0,0,0-9.91,9.91V50.69l-23.9-19.76a10.1,10.1,0,0,0-6.3-2.24,9.9,9.9,0,0,0-7.63,3.57,9.94,9.94,0,0,0,1.33,14" transform="translate(48.42 76.57)"/></g></svg>