<svg id="katman_1" data-name="katman 1" xmlns="http://www.w3.org/2000/svg" xmlns:xlink="http://www.w3.org/1999/xlink" viewBox="0 0 100 60.65"><defs><style>.cls-1{fill:none;}.cls-2{clip-path:url(#clip-path);}</style><clipPath id="clip-path" transform="translate(4 2.43)"><rect class="cls-1" x="-4" y="-2.43" width="100" height="60.65"/></clipPath></defs><title>icon-eye</title><g class="cls-2"><path d="M46-2.43C24.91-2.43,6.54,9.64-4,27.9,6.43,46.16,24.91,58.23,46,58.23S85.46,46.05,96,27.9C85.46,9.64,67.09-2.43,46-2.43m0,53.05A22.72,22.72,0,1,1,68.72,27.9,22.71,22.71,0,0,1,46,50.62" transform="translate(4 2.43)"/><path d="M46,13.23A14.67,14.67,0,1,1,31.33,27.9,14.67,14.67,0,0,1,46,13.23" transform="translate(4 2.43)"/></g></svg>