<svg id="katman_1" data-name="katman 1" xmlns="http://www.w3.org/2000/svg" xmlns:xlink="http://www.w3.org/1999/xlink" viewBox="0 0 100 92.19"><defs>
<style>
.cls-1{}
.cls-2{}
.cls-3{}
.cls-4{}
.cls-5{}</style>
<clipPath id="clip-path" transform="translate(5.56 5.13)"><rect class="cls-1" style="fill:none;" x="-5.56" y="-5.13" width="100" height="92.19"/></clipPath></defs><title>icon-c-calendar</title><g class="cls-2" style="clip-path:url(#clip-path);"><path class="cls-3" style="fill:#d2ccf3;" d="M81.94,72.6a2,2,0,0,1-2,2H.3a2,2,0,0,1-2-2V30.81h83.6Z" transform="translate(5.56 5.13)"/><path class="cls-4" style="fill:#262242;" d="M88.58,12.06H85.84V9.32A5.86,5.86,0,0,0,80,3.46H75.3V1.4a6.45,6.45,0,0,0-5.63-6.5A6.25,6.25,0,0,0,62.8,1.12V3.46H46.39V1.4a6.45,6.45,0,0,0-5.63-6.5,6.26,6.26,0,0,0-6.87,6.22V3.46H17.48V1.4a6.45,6.45,0,0,0-5.62-6.5A6.26,6.26,0,0,0,5,1.12V3.46H.3A5.86,5.86,0,0,0-5.56,9.32V72.6A5.86,5.86,0,0,0,.3,78.46H3V81.2a5.86,5.86,0,0,0,5.86,5.86H43a2,2,0,0,0,0-3.91H8.89a2,2,0,0,1-1.95-2V78.46H80a5.86,5.86,0,0,0,5.86-5.86V16h2.74a2,2,0,0,1,2,2V81.2a2,2,0,0,1-2,2H58.08a2,2,0,0,0,0,3.91h30.5a5.86,5.86,0,0,0,5.85-5.86V17.92a5.85,5.85,0,0,0-5.85-5.86M66.7,1.12a2.35,2.35,0,0,1,4.69,0V9.71a2.35,2.35,0,1,1-4.69,0Zm-28.9,0a2.34,2.34,0,1,1,4.68,0V9.71a2.34,2.34,0,1,1-4.68,0Zm-28.91,0a2.35,2.35,0,0,1,4.69,0V9.71a2.35,2.35,0,1,1-4.69,0ZM81.94,72.6a2,2,0,0,1-2,2H.3a2,2,0,0,1-2-2V30.81h83.6Zm0-45.7H-1.66V9.32a2,2,0,0,1,2-1.95H5V9.71a6.25,6.25,0,0,0,12.5,0V7.37H33.89V9.71a6.25,6.25,0,0,0,12.5,0V7.37H62.8V9.71a6.25,6.25,0,0,0,12.5,0V7.37H80a2,2,0,0,1,2,2Z" transform="translate(5.56 5.13)"/><path class="cls-4" style="fill:#262242;" d="M50.84,83.15a1.95,1.95,0,0,0-2,1.95,2,2,0,0,0,.57,1.39,2,2,0,0,0,3.33-1.39,1.95,1.95,0,0,0-1.95-1.95" transform="translate(5.56 5.13)"/><path class="cls-4" style="fill:#262242;" d="M47.41,66.39a2,2,0,0,0,2.83-2.06l-1.39-8.09,5.88-5.73a1.95,1.95,0,0,0-1.08-3.33L45.52,46l-3.63-7.37a1.95,1.95,0,0,0-3.5,0L34.75,46l-8.12,1.18a2,2,0,0,0-1.09,3.33l5.88,5.73L30,64.33a1.95,1.95,0,0,0,2.83,2.06l7.27-3.82Zm-12.85-5.3.89-5.2a2,2,0,0,0-.56-1.73l-3.78-3.69,5.22-.75a2,2,0,0,0,1.47-1.07l2.34-4.74,2.34,4.74A2,2,0,0,0,44,49.72l5.22.75-3.78,3.69a2,2,0,0,0-.56,1.73l.89,5.21-4.67-2.46a2,2,0,0,0-.91-.23,2,2,0,0,0-.91.23Z" transform="translate(5.56 5.13)"/><path class="cls-5" style="fill:#fff;" d="M34.56,61.09l.89-5.2a2,2,0,0,0-.56-1.73l-3.78-3.69,5.22-.75a2,2,0,0,0,1.47-1.07l2.34-4.74,2.34,4.74A2,2,0,0,0,44,49.72l5.22.75-3.78,3.69a2,2,0,0,0-.56,1.73l.89,5.21-4.67-2.46a2,2,0,0,0-.91-.23,2,2,0,0,0-.91.23Z" transform="translate(5.56 5.13)"/></g></svg>