<svg id="katman_1" data-name="katman 1" xmlns="http://www.w3.org/2000/svg" xmlns:xlink="http://www.w3.org/1999/xlink" viewBox="0 0 100 100"><defs><style>.cls-1{fill:none;}.cls-2{clip-path:url(#clip-path);}.cls-3{fill-rule:evenodd;}</style><clipPath id="clip-path" transform="translate(22.5 22.5)"><rect class="cls-1" x="-22.5" y="-22.5" width="100" height="100"/></clipPath></defs><title>icon-circle-close</title><g class="cls-2"><path class="cls-3" d="M-7.86,62.86a50,50,0,1,1,70.72,0,50,50,0,0,1-70.72,0M26.86,15.29,13.36,1.79a1.82,1.82,0,0,0-2.57,0l-9,9a1.82,1.82,0,0,0,0,2.57l13.5,13.5a.91.91,0,0,1,0,1.28L1.79,41.64a1.82,1.82,0,0,0,0,2.57l9,9a1.82,1.82,0,0,0,2.57,0l13.5-13.5a.91.91,0,0,1,1.28,0l13.5,13.5a1.82,1.82,0,0,0,2.57,0l9-9a1.82,1.82,0,0,0,0-2.57l-13.5-13.5a.91.91,0,0,1,0-1.28l13.5-13.5a1.82,1.82,0,0,0,0-2.57l-9-9a1.82,1.82,0,0,0-2.57,0l-13.5,13.5a.91.91,0,0,1-1.28,0" transform="translate(22.5 22.5)"/></g></svg>