<svg id="katman_1" data-name="katman 1" xmlns="http://www.w3.org/2000/svg" viewBox="0 0 99.8 95.66"><title>icon-star-s</title><path d="M45,68a11.57,11.57,0,0,1-5.39-1.46L19,55.67h0s0,0,0,0L-1.68,66.52c-3.69,1.94-7.32,2-10,0s-3.77-5.38-3.06-9.48l3.93-22.92,0-.13L-27.47,17.79c-3-2.91-4.11-6.37-3.1-9.48s4-5.25,8.07-5.84L.52-.88l.1-.07L10.91-21.8c1.84-3.74,4.78-5.88,8.05-5.88h0c3.27,0,6.21,2.14,8.05,5.88l10.35,21c0-.11.05,0,.09,0l23,3.32c4.12.6,7.06,2.73,8.07,5.84s-.12,6.57-3.1,9.48L48.75,34a1.21,1.21,0,0,0,0,.18l3.94,22.86c.71,4.1-.41,7.56-3.06,9.48A7.67,7.67,0,0,1,45,68ZM-21.07,11.4-4.39,27.66A9.36,9.36,0,0,1-1.84,35.5l-3.94,23L14.84,47.62a9.34,9.34,0,0,1,8.25,0L43.71,58.46l-3.94-23a9.34,9.34,0,0,1,2.55-7.84L59,11.4,35.94,8.05A9.39,9.39,0,0,1,29.27,3.2L19-17.69,8.65,3.2A9.34,9.34,0,0,1,2,8.05Zm10.3,22.8Zm59.4-.07h0ZM.54-.8Z" transform="translate(30.93 27.68)"/></svg>