<svg id="katman_1" data-name="katman 1" xmlns="http://www.w3.org/2000/svg" xmlns:xlink="http://www.w3.org/1999/xlink" viewBox="0 0 100 93.77"><defs><style>.cls-1{fill:none;}.cls-2{clip-path:url(#clip-path);}</style><clipPath id="clip-path" transform="translate(22.59 21.18)"><rect class="cls-1" x="-22.59" y="-21.18" width="100" height="93.77"/></clipPath></defs><title>icon-phone</title><g class="cls-2"><path d="M57.27,29.34l.29.09h1.08a4.37,4.37,0,0,0,4-3.15A27,27,0,0,0,27.72-6.91,4.39,4.39,0,0,0,25.15-1.2a4.37,4.37,0,0,0,5.38,2.42,18.54,18.54,0,0,1,19,4.26,18.17,18.17,0,0,1,4.85,18.58,4.38,4.38,0,0,0,2.88,5.28" transform="translate(22.59 21.18)"/><path d="M65.38-10.82A39.13,39.13,0,0,0,29.9-20.14l-.22.05a4.12,4.12,0,0,0-2.53,2,4.07,4.07,0,0,0-.43,3.1l.05.21a4.19,4.19,0,0,0,5.09,3A30.44,30.44,0,0,1,59.44-4.68a31.73,31.73,0,0,1,9,27.67l-.06.25a4.22,4.22,0,0,0,3.34,4.91l.18,0h.79a4.4,4.4,0,0,0,4.06-3.35A39.68,39.68,0,0,0,65.38-10.82" transform="translate(22.59 21.18)"/><path d="M69.92,47,48.18,34.67a4.61,4.61,0,0,0-5.27.78L34.05,45A50,50,0,0,1,7.65,18.43l8.6-9a4.4,4.4,0,0,0,.55-5l-12-21.06a4,4,0,0,0-4-2.3c-5.21.49-15.45,5.18-19.64,11.43-4.29,6.41-4.82,14.21-1.58,23.14A99.13,99.13,0,0,0,3.26,53C16.37,65.83,31.46,72.59,47,72.59h.67a52.81,52.81,0,0,0,10.56-1.26C69,68.93,72.79,57.4,72,50.29a3.79,3.79,0,0,0-2-3.27m-63.33-3C-3.2,33.34-9.82,20.58-12.51,12.92c-2.26-6.49-2-11.63.63-15.67A18.49,18.49,0,0,1-1.25-9.95L7.69,5.84l-8,8.54a4.41,4.41,0,0,0-1.16,4.5A57.94,57.94,0,0,0,34,54.22l.21.06A4.56,4.56,0,0,0,38.48,53L47,43.71l16.49,9.42c-.39,3.45-2.24,8.83-7.28,9.9a41.41,41.41,0,0,1-9,1h-.14c-14.63.1-28.29-6.53-40.55-20" transform="translate(22.59 21.18)"/></g></svg>