<svg id="katman_1" data-name="katman 1" xmlns="http://www.w3.org/2000/svg" xmlns:xlink="http://www.w3.org/1999/xlink" viewBox="0 0 100 95.45"><defs><style>.cls-1{fill:none;}.cls-2{clip-path:url(#clip-path);}</style><clipPath id="clip-path" transform="translate(29.93 28.57)"><rect class="cls-1" x="-29.93" y="-28.57" width="100" height="95.45"/></clipPath></defs><title>icon-star</title><g class="cls-2"><path d="M17.84,53.83a5.28,5.28,0,0,1,4.45,0l22.85,12c4.86,2.56,8,.23,7.12-5.18L47.9,35.22A5.32,5.32,0,0,1,49.28,31L67.76,13C71.7,9.14,70.47,5.38,65,4.59L39.49.88A5.3,5.3,0,0,1,35.9-1.73L24.47-24.87c-2.43-4.94-6.38-4.93-8.81,0L4.24-1.73A5.34,5.34,0,0,1,.64.88L-24.9,4.59c-5.44.79-6.66,4.55-2.73,8.39L-9.14,31a5.31,5.31,0,0,1,1.37,4.23l-4.36,25.44c-.93,5.42,2.27,7.74,7.13,5.18Z" transform="translate(29.93 28.57)"/></g></svg>