<svg id="katman_1" data-name="katman 1" xmlns="http://www.w3.org/2000/svg" viewBox="0 0 100 79.79"><defs><style>.cls-1{fill-rule:evenodd;opacity:0.9;isolation:isolate;}</style></defs><title>icon-twitter</title><path class="cls-1" d="M152.63,113.74a41.77,41.77,0,0,1-11.78,3.17,20.3,20.3,0,0,0,9-11.15,41.52,41.52,0,0,1-13,4.89,20.68,20.68,0,0,0-15-6.36,20.33,20.33,0,0,0-20.51,20.14,19.82,19.82,0,0,0,.53,4.59,58.66,58.66,0,0,1-42.29-21,19.83,19.83,0,0,0-2.77,10.13A20,20,0,0,0,66,134.87a20.8,20.8,0,0,1-9.3-2.52v.26a20.24,20.24,0,0,0,16.46,19.74,21.34,21.34,0,0,1-9.27.35,20.51,20.51,0,0,0,19.17,14A42.12,42.12,0,0,1,52.63,175a58.92,58.92,0,0,0,31.45,9.05c37.74,0,58.37-30.7,58.37-57.31,0-.88,0-1.74-.06-2.61A41.38,41.38,0,0,0,152.63,113.74Z" transform="translate(-52.63 -104.29)"/></svg>