<?xml version="1.0" encoding="utf-8"?>
<!-- Generator: Adobe Illustrator 24.2.3, SVG Export Plug-In . SVG Version: 6.00 Build 0)  -->
<svg version="1.1" id="katman_1" xmlns="http://www.w3.org/2000/svg" xmlns:xlink="http://www.w3.org/1999/xlink" x="0px" y="0px"
	 viewBox="0 0 100 131.4" style="enable-background:new 0 0 100 131.4;" xml:space="preserve">
<g>
	<path d="M46.8,49.5h22c2.8,0,5-2.3,5-5s-2.3-5-5-5h-22c-2.8,0-5,2.3-5,5S44.1,49.5,46.8,49.5z"/>
	<path d="M82.3,61.2c0-2.8-2.3-5-5-5H38.6c-2.8,0-5,2.3-5,5c0,2.8,2.3,5,5,5h38.7C80,66.2,82.3,64,82.3,61.2z"/>
	<path d="M82.3,77.8c0-2.8-2.3-5-5-5H38.6c-2.8,0-5,2.3-5,5c0,2.8,2.3,5,5,5h38.7C80,82.9,82.3,80.6,82.3,77.8z"/>
	<path d="M97,7.6L97,7.6c-1.8-0.8-3.9-0.5-5.4,0.8l-9,8l-9-8.1c-1.9-1.7-4.8-1.7-6.7,0l-9,8.1l-9-8.1c-1.9-1.7-4.8-1.7-6.7,0l-9,8.1
		l-9-8c-1.5-1.3-3.6-1.6-5.4-0.8c-1.8,0.8-3,2.6-3,4.6v80.1H5c-2.8,0-5,2.3-5,5v8.7c0,9.5,7.1,17.3,16.4,18.3v0.1h64.3l0.4,0
		c0.1,0,0.3,0,0.4,0c10.2,0,18.5-8.3,18.5-18.5V12.1C100,10.2,98.8,8.4,97,7.6z M68.1,92.2H25.8V23.3l4,3.5c1.9,1.7,4.8,1.7,6.7,0
		l9-8.1l9,8.1c1.9,1.7,4.8,1.7,6.7,0l9-8.1l9,8.1c1.9,1.7,4.8,1.7,6.7,0l4-3.5v82.6c0,4.6-3.8,8.4-8.4,8.4c-4.6,0-8.4-3.8-8.4-8.4
		v-8.7C73.1,94.5,70.9,92.2,68.1,92.2z M65.1,114.3H18.5c-4.6,0-8.4-3.8-8.4-8.4v-3.7h53v3.7C63.1,108.9,63.8,111.7,65.1,114.3z"/>
</g>
</svg>
