<svg id="katman_1" data-name="katman 1" xmlns="http://www.w3.org/2000/svg" xmlns:xlink="http://www.w3.org/1999/xlink" viewBox="0 0 100 75.42"><defs><style>.cls-1{fill:none;}.cls-2{clip-path:url(#clip-path);}</style><clipPath id="clip-path" transform="translate(-98.15 -74.03)"><rect class="cls-1" x="98.15" y="74.03" width="100" height="75.42"/></clipPath></defs><title>icon-mail</title><g class="cls-2"><path d="M191.53,74H104.77a6.63,6.63,0,0,0-6.62,6.62v62.18a6.63,6.63,0,0,0,6.62,6.62h86.76a6.63,6.63,0,0,0,6.62-6.62V80.65A6.63,6.63,0,0,0,191.53,74M106,98.41l37.54,19.43a10.09,10.09,0,0,0,9.26,0l37.54-19.43v43.2H106Zm84.34-8.82-41.14,21.3a2.21,2.21,0,0,1-2.06,0L106,89.59V81.86h84.34Z" transform="translate(-98.15 -74.03)"/></g></svg>