<svg id="katman_1" data-name="katman 1" xmlns="http://www.w3.org/2000/svg" xmlns:xlink="http://www.w3.org/1999/xlink" viewBox="0 0 25.7 97.06"><defs><style>.cls-1{fill:none;}.cls-2{clip-path:url(#clip-path);}</style><clipPath id="clip-path" transform="translate(0 0)"><rect class="cls-1" width="25.7" height="97.06"/></clipPath></defs><title>icon-big-arrow</title><g class="cls-2"><path d="M.24,96.67c.13.25.3.39.48.39h0c.18,0,.34-.14.46-.38L25.5,49.5a2.32,2.32,0,0,0,0-1.86L1.2.45C1.06.15.87,0,.68,0A.57.57,0,0,0,.22.35,2.06,2.06,0,0,0,0,1.28a2.15,2.15,0,0,0,.18,1l.06.1L24,48.56.24,94.78a2.1,2.1,0,0,0-.21.94,2.06,2.06,0,0,0,.2.93Z" transform="translate(0 0)"/></g></svg>