<svg id="katman_1" data-name="katman 1" xmlns="http://www.w3.org/2000/svg" xmlns:xlink="http://www.w3.org/1999/xlink" viewBox="0 0 100 100"><defs><style>.cls-1{fill:none;}.cls-2{clip-path:url(#clip-path);}.cls-3{fill-rule:evenodd;}</style><clipPath id="clip-path" transform="translate(26 26)"><rect class="cls-1" x="-26" y="-26" width="100" height="100"/></clipPath></defs><title>icon-crash</title><g class="cls-2"><path class="cls-3" d="M44.83-9.33h25A4.16,4.16,0,0,1,74-5.17,4.17,4.17,0,0,1,69.83-1H61.5V64.76c0,5.1-3.72,9.24-8.31,9.24H-5.19c-4.59,0-8.31-4.13-8.31-9.24V-1h-8.33A4.16,4.16,0,0,1-26-5.17a4.16,4.16,0,0,1,4.17-4.16h25v-8.35A8.3,8.3,0,0,1,11.5-26h25a8.33,8.33,0,0,1,8.33,8.32Zm-50,74.09c0,.69.2.91,0,.91H53.19c-.22,0,0-.22,0-.91V-1H-5.17ZM36.5-17.68h-25v8.34h25ZM3.17,15.65a4.17,4.17,0,0,1,8.33,0V49a4.17,4.17,0,0,1-8.33,0Zm16.66,0a4.17,4.17,0,0,1,8.34,0V49a4.17,4.17,0,0,1-8.34,0Zm16.67,0a4.17,4.17,0,0,1,8.33,0V49a4.17,4.17,0,0,1-8.33,0Z" transform="translate(26 26)"/></g></svg>