<svg id="katman_1" data-name="katman 1" xmlns="http://www.w3.org/2000/svg" xmlns:xlink="http://www.w3.org/1999/xlink" viewBox="0 0 100 83.59"><defs><style>.cls-1{fill:none;}.cls-2{clip-path:url(#clip-path);}</style><clipPath id="clip-path" transform="translate(-393.92 -329.27)"><rect class="cls-1" x="393.92" y="329.27" width="100" height="83.59"/></clipPath></defs><title>icon-window-code</title><g class="cls-2"><path d="M431.38,370.33l-9-9-1.28-1.28v4.77l9-9,1.29-1.29a3.38,3.38,0,0,0-4.78-4.77l-9,9-1.29,1.29a3.42,3.42,0,0,0,0,4.77l9,9,1.28,1.28a3.38,3.38,0,1,0,4.78-4.77" transform="translate(-393.92 -329.27)"/><path d="M461.27,375.1l9-9,1.28-1.29a3.4,3.4,0,0,0,0-4.77l-9-9-1.29-1.28a3.37,3.37,0,0,0-4.77,4.77l9,9,1.29,1.28v-4.77l-9,9-1.28,1.29a3.37,3.37,0,1,0,4.77,4.77" transform="translate(-393.92 -329.27)"/><path d="M442.19,378.67q1.71-5.21,3.4-10.4c1.79-5.49,3.58-11,5.38-16.45.4-1.25.82-2.51,1.22-3.76a3.41,3.41,0,0,0-2.36-4.16,3.47,3.47,0,0,0-4.16,2.37c-1.12,3.46-2.26,6.93-3.39,10.39l-5.37,16.45-1.23,3.76a3.38,3.38,0,1,0,6.51,1.8" transform="translate(-393.92 -329.27)"/><path d="M487.17,339.86v39.36c0,1.71,0,3.41,0,5.12,0,.32,0,.64-.06,1,0-.31.08-.6.12-.9a8,8,0,0,1-.52,1.9l.34-.81a9.85,9.85,0,0,1-.59,1.11s-.17.31-.22.31.56-.68.26-.34c-.15.17-.29.34-.45.5a5.84,5.84,0,0,1-.44.4c-.21.19-.53.27.28-.2a2.79,2.79,0,0,0-.25.17,8.27,8.27,0,0,1-1.17.64l.81-.34a7.12,7.12,0,0,1-1.9.52l.9-.12a24.57,24.57,0,0,1-2.85.05h-76.8c-.34,0-.68,0-1-.05l.9.12a8,8,0,0,1-1.9-.52l.81.34a8.53,8.53,0,0,1-1.11-.6s-.31-.17-.31-.21.68.56.34.26c-.17-.15-.34-.3-.49-.45s-.28-.29-.41-.44-.27-.53.2.28a2.79,2.79,0,0,0-.17-.25,8.27,8.27,0,0,1-.64-1.17l.34.81a7.33,7.33,0,0,1-.52-1.9c.05.3.08.59.13.9a41.33,41.33,0,0,1-.06-5.1V345.13c0-1.74,0-3.48,0-5.23a7.73,7.73,0,0,1,.06-1c0,.3-.08.59-.13.9a8,8,0,0,1,.52-1.91l-.34.81a8.53,8.53,0,0,1,.6-1.11s.17-.3.21-.3-.56.67-.26.33l.45-.49.44-.41c.22-.19.53-.27-.28.21.08-.05.16-.12.25-.17a7.9,7.9,0,0,1,1.17-.65l-.81.34a7.33,7.33,0,0,1,1.9-.52l-.9.13a24.65,24.65,0,0,1,2.85-.06h76.81a9,9,0,0,1,1,.06l-.9-.13a8,8,0,0,1,1.9.52l-.81-.34a10.07,10.07,0,0,1,1.12.6s.3.17.3.22-.67-.57-.34-.26c.17.14.34.29.5.45a5.84,5.84,0,0,1,.4.44c.2.21.27.53-.2-.29l.17.25a7.83,7.83,0,0,1,.64,1.17l-.34-.81a7.3,7.3,0,0,1,.52,1.91l-.12-.9c0,.31.06.63.06.93a3.38,3.38,0,1,0,6.75,0,10.63,10.63,0,0,0-3.48-7.84,11,11,0,0,0-7.12-2.75H405.61a14,14,0,0,0-4.12.44A10.78,10.78,0,0,0,393.93,340c0,3.8,0,7.59,0,11.39v32.29c0,.31,0,.64,0,1a10.57,10.57,0,0,0,3.69,7.71,11,11,0,0,0,6.91,2.56h78.63a10.67,10.67,0,0,0,9.71-6,11.69,11.69,0,0,0,1-4.74V339.86a3.38,3.38,0,1,0-6.75,0" transform="translate(-393.92 -329.27)"/><path d="M448.63,391.57v17.9l3.38-3.38H435.85l3.38,3.38v-17.9L435.85,395H452a3.38,3.38,0,0,0,0-6.76H435.85a3.43,3.43,0,0,0-3.38,3.38v17.9a3.43,3.43,0,0,0,3.38,3.38H452a3.43,3.43,0,0,0,3.38-3.38v-17.9a3.41,3.41,0,0,0-3.38-3.38,3.46,3.46,0,0,0-3.38,3.38" transform="translate(-393.92 -329.27)"/><path d="M423.8,412.85h35.3c1.63,0,3.28,0,4.91,0h.07a3.38,3.38,0,0,0,0-6.76h-35.3c-1.64,0-3.28,0-4.91,0h-.07a3.38,3.38,0,1,0,0,6.76" transform="translate(-393.92 -329.27)"/></g></svg>