<svg id="katman_1" data-name="katman 1" xmlns="http://www.w3.org/2000/svg" xmlns:xlink="http://www.w3.org/1999/xlink" viewBox="0 0 100.01 77.79"><defs><style>.cls-1{fill:none;}.cls-2{clip-path:url(#clip-path);}.cls-3{fill-rule:evenodd;}</style><clipPath id="clip-path" transform="translate(41 31.9)"><rect class="cls-1" x="-41" y="-31.89" width="100" height="77.79"/></clipPath></defs><title>icon-code-c</title><g class="cls-2"><path class="cls-3" d="M15.47-31.8A5.54,5.54,0,0,1,20-25.42L8.92,41.25A5.55,5.55,0,0,1,3.45,45.9a5.72,5.72,0,0,1-.92-.08A5.55,5.55,0,0,1-2,39.43L9.08-27.24a5.5,5.5,0,0,1,6.39-4.56M-9.29-19.14a5.55,5.55,0,0,1,0,7.85L-27.59,7-9.29,25.3a5.56,5.56,0,0,1,0,7.86,5.57,5.57,0,0,1-3.93,1.62,5.55,5.55,0,0,1-3.93-1.62L-39.37,10.93a5.55,5.55,0,0,1,0-7.85l22.22-22.22a5.54,5.54,0,0,1,7.86,0m44.44,0L57.37,3.08a5.53,5.53,0,0,1,0,7.85L35.15,33.16a5.56,5.56,0,0,1-7.86-7.86L45.59,7l-18.3-18.3a5.55,5.55,0,0,1,0-7.85,5.54,5.54,0,0,1,7.86,0" transform="translate(41 31.9)"/></g></svg>