<svg id="katman_1" data-name="katman 1" xmlns="http://www.w3.org/2000/svg" xmlns:xlink="http://www.w3.org/1999/xlink" viewBox="0 0 100 134.31"><defs>
<style>
.cls-1{}
.cls-2{}
.cls-3{}
.cls-4{}
</style><clipPath id="clip-path" transform="translate(19.5 26.19)"><rect class="cls-1" style="fill:none;" x="-19.5" y="-26.19" width="100" height="134.31"/></clipPath></defs><title>icon-c-graduated</title><g class="cls-2" style="clip-path:url(#clip-path);"><path class="cls-3" style="fill:#052d67;" d="M53.89,54.91H41.51V53.22a19.05,19.05,0,0,0,15.6-18.49V28.1A11,11,0,0,0,57.11,7v-26.8H71.47V-5.82a3.22,3.22,0,0,0,3.22,3.21A3.21,3.21,0,0,0,77.9-5.82V-23a3.21,3.21,0,0,0-3.21-3.21H42.2A3.22,3.22,0,0,0,39-23a3.22,3.22,0,0,0,3.22,3.22h8.48V-.34L30.5,6.39,10.32-.34V-19.76H18.8A3.22,3.22,0,0,0,22-23a3.22,3.22,0,0,0-3.22-3.21H-13.69A3.21,3.21,0,0,0-16.9-23a3.22,3.22,0,0,0,3.21,3.22H3.89V7a11,11,0,0,0,0,21.06v6.63a19.05,19.05,0,0,0,15.6,18.49v1.69H7.11a26.18,26.18,0,0,0-19.18,8.14A27,27,0,0,0-19.5,81.51v23.4a3.21,3.21,0,0,0,3.21,3.21H77.29a3.21,3.21,0,0,0,3.21-3.21V81.51a26.64,26.64,0,0,0-26.61-26.6M7.11,22.16a4.59,4.59,0,1,1,0-9.17,3.22,3.22,0,0,0,3.21-3.22V6.44l19.16,6.38a3.2,3.2,0,0,0,2,0L50.68,6.44V9.77A3.22,3.22,0,0,0,53.89,13a4.59,4.59,0,1,1,0,9.17,3.21,3.21,0,0,0-3.21,3.21v9.36A12.56,12.56,0,0,1,38.25,47.11a3.22,3.22,0,0,0-3.17,3.21v7L30.5,66.53l-4.58-9.17v-7a3.22,3.22,0,0,0-3.17-3.21A12.56,12.56,0,0,1,10.32,34.73V25.37a3.21,3.21,0,0,0-3.21-3.21M30.5,76.93a3.17,3.17,0,0,0,2.87-1.78l6.91-13.82c4.18,0,11,0,13.65,0L30.5,98.84,7.06,61.33H20.72l6.91,13.82a3.17,3.17,0,0,0,2.87,1.78M.23,62.53,24.7,101.69H-13.07V81.51a20.16,20.16,0,0,1,13.3-19m73.84,19v20.18H36.3L60.78,62.53a20.16,20.16,0,0,1,13.29,19" transform="translate(19.5 26.19)"/><path class="cls-3" style="fill:#052d67;" d="M30.5-19.76A3.22,3.22,0,0,0,33.71-23a3.21,3.21,0,0,0-3.21-3.21A3.21,3.21,0,0,0,27.29-23a3.22,3.22,0,0,0,3.21,3.22" transform="translate(19.5 26.19)"/><path class="cls-4" style="fill:#cbd2e8;" d="M-13.69,81.51A20.72,20.72,0,0,1,.49,61.79l25.32,40.52h-39.5Z" transform="translate(19.5 26.19)"/><path class="cls-4" style="fill:#cbd2e8;" d="M74.69,102.31H35.19L60.51,61.79A20.72,20.72,0,0,1,74.69,81.51Z" transform="translate(19.5 26.19)"/></g></svg>