<svg id="Layer_1" data-name="Layer 1" xmlns="http://www.w3.org/2000/svg" viewBox="0 0 100 128.57"><title>icon-basket</title><path d="M1265.33,3807.36a5.8,5.8,0,0,0-4-1.79H1247V3803c0-16.68-13.69-30.24-29.69-30.24h-.61c-16,0-29.7,13.56-29.7,30.24v2.61h-14.28a5.91,5.91,0,0,0-5.72,5.94v84.06a5.71,5.71,0,0,0,5.72,5.71h88.54a5.71,5.71,0,0,0,5.71-5.71l0-84.12A5.84,5.84,0,0,0,1265.33,3807.36Zm-66.9-4.4c0-10.37,8.57-18.82,18.27-18.82h.61c9.69,0,18.26,8.45,18.26,18.82v2.61h-37.14Zm57.12,86.9h-77.12V3817H1187v9.9a5.72,5.72,0,1,0,11.43,0V3817h37.14v9.9a5.72,5.72,0,1,0,11.43,0V3817h8.57Z" transform="translate(-1167 -3772.72)"/></svg>