<svg id="katman_1" data-name="katman 1" xmlns="http://www.w3.org/2000/svg" xmlns:xlink="http://www.w3.org/1999/xlink" viewBox="0 0 100 67.81"><defs><style>.cls-1{fill:none;}.cls-2{clip-path:url(#clip-path);}</style><clipPath id="clip-path" transform="translate(-423.94 -287.49)"><rect class="cls-1" x="423.94" y="287.49" width="100" height="67.81"/></clipPath></defs><title>icon-code</title><g class="cls-2"><path d="M454.16,342.18a5.59,5.59,0,0,0-1.57-3.79l-3.33-3.52-3.32-3.51-8-8.42-.15.15-3.33,3.52-1.82,1.92V314.28l1.82,1.92c.4.42.8.85,1.21,1.27l1.19,1.27,1.08,1.13,1.64-1.74L450.19,307l1.2-1.27,1.2-1.28a5.51,5.51,0,0,0,1.57-3.74,5.33,5.33,0,0,0-1.51-3.7,5.47,5.47,0,0,0-3.72-1.58,5.37,5.37,0,0,0-3.75,1.52l-3.33,3.51-3.33,3.51-10.6,11.18-1.21,1.27-1.2,1.27a5.43,5.43,0,0,0-1.56,3.7,5.58,5.58,0,0,0,1.56,3.79l3.33,3.52,3.33,3.51,10.6,11.17,1.21,1.28,1.2,1.26a5.26,5.26,0,0,0,7.4,0,5.47,5.47,0,0,0,1.58-3.72" transform="translate(-423.94 -287.49)"/><path d="M434.75,319.57v3.66l1.51-1.59.22-.24-1.15-1.21-.58-.62" transform="translate(-423.94 -287.49)"/><path d="M499,347.4a5.42,5.42,0,0,0,3.75-1.52l3.33-3.52,3.33-3.51L520,327.68l1.2-1.27,1.2-1.28a5.42,5.42,0,0,0,1.57-3.7,5.64,5.64,0,0,0-1.57-3.79L519,314.13l-3.33-3.52-10.6-11.17-1.21-1.28-1.19-1.26a5.39,5.39,0,0,0-3.71-1.53,5.33,5.33,0,0,0-3.7,1.51,5.47,5.47,0,0,0-1.58,3.72,5.61,5.61,0,0,0,1.57,3.8h0q1.66,1.77,3.34,3.52l3.32,3.51,8,8.43.15-.16,3.32-3.51,1.82-1.93v14.25l-1.82-1.91-1.2-1.28-1.2-1.27L510,322.92l-1.65,1.74-10.6,11.18c-.41.42-.81.84-1.21,1.27l-1.2,1.27a5.54,5.54,0,0,0-1.57,3.75,5.32,5.32,0,0,0,1.51,3.69A5.4,5.4,0,0,0,499,347.4" transform="translate(-423.94 -287.49)"/><path d="M513.13,323.22v-3.66l-1.5,1.59-.23.24,1.15,1.21.58.62" transform="translate(-423.94 -287.49)"/><path d="M480.82,291.35l0,.07,0,.05-1.2,2.87c-.39,1-.79,1.92-1.19,2.87l-2.86,6.84-2.85,6.83-6.9,16.53c-1,2.37-2,4.75-3,7.12l-3,7.2-.95,2.24c-.65,1.53-1.32,3.11-1.94,4.68a1,1,0,0,1,0,.1,3.77,3.77,0,0,0-.08,1.91l0,.09v.09a3.66,3.66,0,0,0,.58,1.84l0,0a5.46,5.46,0,0,0,3.12,2.42,5.54,5.54,0,0,0,4-.47l.61-.47.57-.45a5.19,5.19,0,0,0,1.31-2.28l0-.07,0-.06,1.2-2.87,1.2-2.87,2.85-6.84c1-2.28,1.91-4.55,2.85-6.83l6.9-16.52q1.48-3.54,3-7.08l3-7.25c.31-.75.63-1.5.94-2.23.65-1.53,1.33-3.12,1.94-4.69a.63.63,0,0,0,0-.09,3.7,3.7,0,0,0,.08-1.92l0-.09V292a3.78,3.78,0,0,0-.59-1.84l0,0a5.28,5.28,0,0,0-7.14-1.95l-.6.47-.58.45a5.43,5.43,0,0,0-1.32,2.29" transform="translate(-423.94 -287.49)"/></g></svg>