<svg id="katman_1" data-name="katman 1" xmlns="http://www.w3.org/2000/svg" xmlns:xlink="http://www.w3.org/1999/xlink" viewBox="0 0 100 73.84"><defs><style>.cls-1{fill:none;}.cls-2{clip-path:url(#clip-path);}</style><clipPath id="clip-path" transform="translate(45.77 33.8)"><rect class="cls-1" x="-45.77" y="-33.79" width="100" height="73.84"/></clipPath></defs><title>icon-credit-card</title><g class="cls-2"><path d="M-34.6-33.8A11.23,11.23,0,0,0-45.77-22.63V28.88A11.22,11.22,0,0,0-34.6,40H43.09A11.19,11.19,0,0,0,54.23,28.88V-22.63A11.2,11.2,0,0,0,43.09-33.8Zm0,6.25H43.09A4.84,4.84,0,0,1,48-22.63v6.25H-39.51v-6.25a4.84,4.84,0,0,1,4.91-4.92m-4.91,17.42H48v5.86H-39.51Zm0,12.11H48v26.9a4.83,4.83,0,0,1-4.89,4.91H-34.6a4.84,4.84,0,0,1-4.91-4.91Zm8.9,8.65A3.14,3.14,0,0,0-33.5,14a3.11,3.11,0,0,0,3.21,2.89H-8.46a3.11,3.11,0,0,0,3.19-3,3.13,3.13,0,0,0-3.05-3.2H-30.61m.32,9.37a3.13,3.13,0,0,0-3.2,3.05,3.15,3.15,0,0,0,3.06,3.2H-21a3.15,3.15,0,0,0,3.2-3.05A3.12,3.12,0,0,0-20.83,20h-9.46Z" transform="translate(45.77 33.8)"/></g></svg>