<svg id="katman_1" data-name="katman 1" xmlns="http://www.w3.org/2000/svg" xmlns:xlink="http://www.w3.org/1999/xlink" viewBox="0 0 100 120.32"><defs><style>.cls-1{fill:none;}.cls-2{clip-path:url(#clip-path);}</style><clipPath id="clip-path" transform="translate(26.48 31.86)"><rect class="cls-1" x="-26.48" y="-31.86" width="100" height="120.32"/></clipPath></defs><title>icon-flag</title><g class="cls-2"><path d="M23.48,37.44H69.39a4.09,4.09,0,0,0,4-4,3.83,3.83,0,0,0-1-2.65l-.16-.21L58.8,7.89,73-15.62a3.84,3.84,0,0,0,0-3.93,4.72,4.72,0,0,0-3.6-2.11H27.52v-6.16a4.09,4.09,0,0,0-4-4H-22.44a4.09,4.09,0,0,0-4,4V84.42a4.09,4.09,0,0,0,4,4,4.09,4.09,0,0,0,4-4V27.24H19.44V33.4a4.09,4.09,0,0,0,4,4m4-51h34.6L50.54,5.89a3.76,3.76,0,0,0,0,4.2L62.12,29.58H27.52ZM-18.4-23.78H19.44V19.16H-18.4Z" transform="translate(26.48 31.86)"/></g></svg>