<svg id="katman_1" data-name="katman 1" xmlns="http://www.w3.org/2000/svg" xmlns:xlink="http://www.w3.org/1999/xlink" viewBox="0 0 100 235.16"><defs><style>.cls-1{fill:none;}.cls-2{clip-path:url(#clip-path);}</style><clipPath id="clip-path" transform="translate(38 89.36)"><rect class="cls-1" x="-38" y="-89.36" width="100" height="235.16"/></clipPath></defs><title>icon-info-i</title><g class="cls-2"><path d="M12-89.36A33.33,33.33,0,0,1,45.33-56,33.34,33.34,0,0,1,12-22.69,33.34,33.34,0,0,1-21.33-56,33.33,33.33,0,0,1,12-89.36" transform="translate(38 89.36)"/><path d="M62,139.29c0,4.6-3.73,6.51-8.33,6.51H-29.67c-4.6,0-8.33-1.91-8.33-6.51v-4.16c0-4.61,3.73-10.16,8.33-10.16h8.34V20.8h-8.34c-4.6,0-8.33-1.91-8.33-6.51V10.13C-38,5.52-34.27,0-29.67,0H37c4.6,0,8.33,5.55,8.33,10.16V125h8.34c4.6,0,8.33,5.55,8.33,10.16Z" transform="translate(38 89.36)"/></g></svg>