<svg id="katman_1" data-name="katman 1" xmlns="http://www.w3.org/2000/svg" xmlns:xlink="http://www.w3.org/1999/xlink" viewBox="0 0 100 58.59"><defs><style>.cls-1{fill:none;}.cls-2{clip-path:url(#clip-path);}</style><clipPath id="clip-path" transform="translate(40.02 23.45)"><rect class="cls-1" x="-40.02" y="-23.45" width="100" height="58.59"/></clipPath></defs><title>icon-view</title><g class="cls-2"><path d="M-4.92,5.84a15,15,0,1,0,15-15,15,15,0,0,0-15,15m20,0a5,5,0,1,1-5-5,5,5,0,0,1,5,5M58.65,2.23C23.13-32-2.26-32-38.43,2.23a5,5,0,0,0-.24,7.08l.24.24c18.08,17,33.51,25.59,48.54,25.59s30.6-8.56,48.34-25.7a5,5,0,0,0,.13-7.08l-.13-.13ZM-27.61,5.84c28.9-26,47-26,75.49,0-28.45,26-46.59,26-75.49,0" transform="translate(40.02 23.45)"/></g></svg>