<svg id="katman_1" data-name="katman 1" xmlns="http://www.w3.org/2000/svg" xmlns:xlink="http://www.w3.org/1999/xlink" viewBox="0 0 148.43 113.19"><defs><style>.cls-1{fill:none;}.cls-2{clip-path:url(#clip-path);}.cls-3{fill:#fff;}.cls-4{clip-path:url(#clip-path-2);}.cls-5{clip-path:url(#clip-path-3);}.cls-6{fill:#65d9d9;}.cls-7{fill:#64d8d8;}</style><clipPath id="clip-path" transform="translate(197 90.4)"><rect class="cls-1" x="-197" y="-90.4" width="148.43" height="113.19"/></clipPath><clipPath id="clip-path-2" transform="translate(197 90.4)"><path class="cls-1" d="M-146.14-52.5l3.11,3.12a2.75,2.75,0,0,1,0,3.9l-3.11,3.12h46.71l-3.11-3.12a2.75,2.75,0,0,1,0-3.9l3.11-3.12Z"/></clipPath><clipPath id="clip-path-3" transform="translate(197 90.4)"><rect class="cls-1" x="-146.14" y="-52.5" width="46.71" height="10.14"/></clipPath></defs><title>icon-certificate</title><g class="cls-2"><path class="cls-3" d="M-117.24,17.27a2.74,2.74,0,0,0-2,.81,2.74,2.74,0,0,0-.81,2,2.74,2.74,0,0,0,.81,1.95,2.85,2.85,0,0,0,3.9,0,2.74,2.74,0,0,0,.81-1.95,2.74,2.74,0,0,0-.81-2,2.74,2.74,0,0,0-1.95-.81" transform="translate(197 90.4)"/><path class="cls-3" d="M-156-55.7" transform="translate(197 90.4)"/><path class="cls-3" d="M-92.35-36.84l.1,0,.1,0,.1,0,.11,0,.54-.24a2.73,2.73,0,0,0,.88-.8l.09-.13.12-.21a.88.88,0,0,0,.09-.2,2.74,2.74,0,0,0-.09-2.31l-.11-.2-.09-.13-.06-.08-.09-.11-.15-.18-5.86-5.88,5.86-5.88a2.78,2.78,0,0,0,.75-1.4c0-.12,0-.22,0-.33s0-.18,0-.23v-.29l0-.1c0-.12,0-.19,0-.27a3.54,3.54,0,0,0-.13-.39,2.86,2.86,0,0,0-.3-.54l-.2-.25a2.85,2.85,0,0,0-1.22-.79,3.38,3.38,0,0,0-.41-.09l-.42,0h-60a2.73,2.73,0,0,0-.41,0,2,2,0,0,0-.4.09,2.84,2.84,0,0,0-1.19.73l-.22.26-.14.21a2.25,2.25,0,0,0-.19.38,2.3,2.3,0,0,0-.12.34,2,2,0,0,0-.05.27l0,.44v.14c0,.2,0,.3.05.41a2.78,2.78,0,0,0,.75,1.41l5.86,5.88-5.86,5.88c-.06.06-.11.13-.17.2l-.19.26a1,1,0,0,0-.12.2,2.77,2.77,0,0,0-.11,2.35,1.54,1.54,0,0,0,.08.19l.1.17.06.09-.35.38L-155-38l.1.13a2.58,2.58,0,0,0,.76.65l.49.23-.06.51.2-.47,0,.53.11-.49.1,0,0,.51.14-.48.35,0h60l.31,0Zm-10.19-8.61,3.11,3.12h-46.71l3.11-3.12a2.75,2.75,0,0,0,0-3.9l-3.11-3.12h46.71l-3.11,3.12a2.75,2.75,0,0,0,0,3.9" transform="translate(197 90.4)"/><path class="cls-3" d="M-152.8-26.66l-.27,0a2.77,2.77,0,0,0-2.48,2.48,2.44,2.44,0,0,0,0,.27,2.44,2.44,0,0,0,0,.27,2.77,2.77,0,0,0,2.48,2.48H-92.5A2.77,2.77,0,0,0-90-23.62a2.44,2.44,0,0,0,0-.27,2.44,2.44,0,0,0,0-.27,2.77,2.77,0,0,0-2.48-2.48h0l-.27,0Z" transform="translate(197 90.4)"/><path class="cls-3" d="M-142.8-13.52h-.27A2.77,2.77,0,0,0-145.55-11a2.44,2.44,0,0,0,0,.27,2.44,2.44,0,0,0,0,.27A2.77,2.77,0,0,0-143.07-8h40.57A2.77,2.77,0,0,0-100-10.49a2.44,2.44,0,0,0,0-.27,2.44,2.44,0,0,0,0-.27,2.77,2.77,0,0,0-2.48-2.48h-40.3Z" transform="translate(197 90.4)"/><path class="cls-3" d="M-62.43-62.19l-.2-.17a1.9,1.9,0,0,0-.44-.3,2.13,2.13,0,0,0-.49-.21A3.23,3.23,0,0,0-64.1-63h-.28A11.61,11.61,0,0,1-76-74.59a2.74,2.74,0,0,0-.47-1.54,2.64,2.64,0,0,0-.34-.41l-.19-.18a4.27,4.27,0,0,0-.44-.3,3.75,3.75,0,0,0-.5-.21,3,3,0,0,0-.54-.11h-88.65a3,3,0,0,0-.54.11,4.4,4.4,0,0,0-.5.21,4.27,4.27,0,0,0-.44.3l-.2.18a2.69,2.69,0,0,0-.33.41,2.74,2.74,0,0,0-.47,1.54A11.61,11.61,0,0,1-181.19-63h-.28a3.45,3.45,0,0,0-.54.11,2.13,2.13,0,0,0-.49.21,1.9,1.9,0,0,0-.44.3l-.2.17a4.35,4.35,0,0,0-.34.41,2.77,2.77,0,0,0-.47,1.55V-7.38a2.77,2.77,0,0,0,2.76,2.77A11.61,11.61,0,0,1-169.59,7a2.77,2.77,0,0,0,2.76,2.76h88.09A2.77,2.77,0,0,0-76,7,11.61,11.61,0,0,1-64.38-4.61a2.77,2.77,0,0,0,2.76-2.77V-60.23a2.77,2.77,0,0,0-.47-1.55,3.21,3.21,0,0,0-.34-.41M-67.15-9.92l-.4.07A17.23,17.23,0,0,0-81.21,3.81l-.07.41h-83l-.07-.41A17.23,17.23,0,0,0-178-9.85l-.4-.07V-57.69l.4-.07a17.23,17.23,0,0,0,13.66-13.66l.07-.4h83l.07.4A17.23,17.23,0,0,0-67.55-57.76l.4.07Z" transform="translate(197 90.4)"/><path class="cls-3" d="M-105.49,22.79h54.16A2.77,2.77,0,0,0-48.57,20V-87.64A2.71,2.71,0,0,0-49-89.18h0a2.25,2.25,0,0,0-.34-.41l-.19-.18a3.52,3.52,0,0,0-.45-.3,3.61,3.61,0,0,0-.49-.21,3,3,0,0,0-.54-.11H-194.52a3,3,0,0,0-.54.11,3.61,3.61,0,0,0-.49.21,2.83,2.83,0,0,0-.44.3l-.2.18a2.74,2.74,0,0,0-.34.41,2.74,2.74,0,0,0-.47,1.54V20a2.77,2.77,0,0,0,2.76,2.76h64A2.77,2.77,0,0,0-127.53,20a2.77,2.77,0,0,0-2.76-2.76h-61.18V-84.87H-54.1V17.27h-51.39A2.77,2.77,0,0,0-108.26,20a2.77,2.77,0,0,0,2.77,2.76" transform="translate(197 90.4)"/></g><g class="cls-4"><g class="cls-5"><path class="cls-6" d="M-146.14-52.5v0Z" transform="translate(197 90.4)"/><rect class="cls-6" x="50.86" y="37.9" width="23.35" height="10.14"/><rect class="cls-7" x="74.22" y="37.9" width="23.35" height="10.14"/></g></g></svg>