<svg id="katman_1" data-name="katman 1" xmlns="http://www.w3.org/2000/svg" xmlns:xlink="http://www.w3.org/1999/xlink" viewBox="0 0 100 125.05"><defs><style>.cls-1{fill:none;}.cls-2{clip-path:url(#clip-path);}</style><clipPath id="clip-path" transform="translate(-38.35 -47.96)"><rect class="cls-1" x="38.36" y="47.96" width="100" height="125.05"/></clipPath></defs><title>icon-lock</title><g class="cls-2"><path d="M122.35,101.63H66.8v-23c0-11.1,9.67-20.13,21.56-20.13s21.55,9,21.55,20.13v6.8a5.28,5.28,0,0,0,10.55,0v-6.8c0-16.92-14.4-30.68-32.1-30.68S56.25,61.72,56.25,78.64v23H54.36a16,16,0,0,0-16,16V157a16,16,0,0,0,16,16h68a16,16,0,0,0,16-16V117.64a16,16,0,0,0-16-16m-73.44,16a5.46,5.46,0,0,1,5.46-5.46h68a5.46,5.46,0,0,1,5.45,5.46V157a5.46,5.46,0,0,1-5.45,5.46h-68A5.46,5.46,0,0,1,48.91,157Z" transform="translate(-38.35 -47.96)"/></g></svg>