<svg id="katman_1" data-name="katman 1" xmlns="http://www.w3.org/2000/svg" xmlns:xlink="http://www.w3.org/1999/xlink" viewBox="0 0 100 71.69"><defs><style>.cls-1{fill:none;}.cls-2{clip-path:url(#clip-path);}</style><clipPath id="clip-path" transform="translate(8.5 6.09)"><rect class="cls-1" x="-8.5" y="-6.09" width="100" height="71.69"/></clipPath></defs><title>icon-degree-gray</title><g class="cls-2" style="fill: #459af0;"><path d="M5.16,65.59H1.94A10.43,10.43,0,0,1-8.5,55.15V45.91A10.44,10.44,0,0,1,1.94,35.47H5.16A10.45,10.45,0,0,1,15.6,45.91v9.24A10.44,10.44,0,0,1,5.16,65.59" transform="translate(8.5 6.09)"/><path d="M42.51,65.59H39.29A10.43,10.43,0,0,1,28.85,55.15v-30A10.43,10.43,0,0,1,39.29,14.75h3.22A10.44,10.44,0,0,1,53,25.19v30A10.44,10.44,0,0,1,42.51,65.59" transform="translate(8.5 6.09)"/><path d="M81.06,65.59H77.84A10.44,10.44,0,0,1,67.4,55.15V4.35A10.44,10.44,0,0,1,77.84-6.09h3.22A10.43,10.43,0,0,1,91.5,4.35v50.8A10.43,10.43,0,0,1,81.06,65.59" transform="translate(8.5 6.09)"/></g></svg>