<svg id="katman_1" data-name="katman 1" xmlns="http://www.w3.org/2000/svg" xmlns:xlink="http://www.w3.org/1999/xlink" viewBox="0 0 28 28"><defs><style>.cls-1{fill:none;}.cls-2{clip-path:url(#clip-path);}</style><clipPath id="clip-path" transform="translate(-2.86 -14.84)"><rect class="cls-1" width="34.14" height="42.84"/></clipPath></defs><title>icon-wrong</title><g class="cls-2"><path d="M16.86,14.84a14,14,0,1,0,14,14A14,14,0,0,0,16.86,14.84Zm0,26a12,12,0,1,1,12-12A12,12,0,0,1,16.86,40.84Z" transform="translate(-2.86 -14.84)"/><path d="M18.29,28.84l2.7-2.7h0a1,1,0,0,0,0-1.41h0a1,1,0,0,0-1.41,0L16.85,27.4l-2.69-2.69h0a1,1,0,0,0-1.41,0v0a1,1,0,0,0,0,1.41l2.67,2.68-2.68,2.69a1,1,0,0,0,0,1.42h0a1,1,0,0,0,1.42,0l2.69-2.68L19.55,33A1,1,0,0,0,21,33h0a1,1,0,0,0,0-1.42Z" transform="translate(-2.86 -14.84)"/></g></svg>