<svg id="katman_1" data-name="katman 1" xmlns="http://www.w3.org/2000/svg" xmlns:xlink="http://www.w3.org/1999/xlink" viewBox="0 0 100 162.39"><defs><style>.cls-1{fill:none;}.cls-2{clip-path:url(#clip-path);}</style><clipPath id="clip-path" transform="translate(43.62 70.84)"><rect class="cls-1" x="-43.63" y="-70.84" width="100" height="162.39"/></clipPath></defs><title>icon-smartphone</title><g class="cls-2" style="fill:#110c2c;"><path d="M56.38-47.58A23.29,23.29,0,0,0,33.11-70.84H-20.36A23.29,23.29,0,0,0-43.62-47.58V68.29A23.28,23.28,0,0,0-20.36,91.55H33.11A23.28,23.28,0,0,0,56.38,68.29ZM45.51,68.28a12.41,12.41,0,0,1-12.4,12.39H-20.36A12.4,12.4,0,0,1-32.75,68.28V-47.58A12.4,12.4,0,0,1-20.36-60H33.11a12.41,12.41,0,0,1,12.4,12.39Z" transform="translate(43.62 70.84)"/><path d="M6.38,58.39a9.89,9.89,0,1,0,9.89,9.89,9.9,9.9,0,0,0-9.89-9.89" transform="translate(43.62 70.84)"/><path d="M15.28-57.48H-2.55A5.44,5.44,0,0,0-8-52,5.44,5.44,0,0,0-2.55-46.6H15.28A5.45,5.45,0,0,0,20.72-52a5.45,5.45,0,0,0-5.44-5.44" transform="translate(43.62 70.84)"/></g></svg>