<svg id="katman_1" data-name="katman 1" xmlns="http://www.w3.org/2000/svg" xmlns:xlink="http://www.w3.org/1999/xlink" viewBox="0 0 100 100"><defs><style>.cls-1{fill:none;}.cls-2{clip-path:url(#clip-path);}</style><clipPath id="clip-path" transform="translate(2.5 2.5)"><rect class="cls-1" x="-2.5" y="-2.5" width="100" height="100"/></clipPath></defs><title>icon-info-circle-f</title><g class="cls-2"><path d="M47.5-2.5a50,50,0,1,0,50,50,50,50,0,0,0-50-50m0,89.16A39.16,39.16,0,1,1,86.66,47.5,39.22,39.22,0,0,1,47.5,86.66" transform="translate(2.5 2.5)"/><path d="M47.5,54.87a5.39,5.39,0,0,0,5.37-5.37V24.76a5.37,5.37,0,1,0-10.74,0V49.39a5.41,5.41,0,0,0,5.37,5.48" transform="translate(2.5 2.5)"/><path d="M47.5,60.45a6.63,6.63,0,1,1-6.63,6.63,6.63,6.63,0,0,1,6.63-6.63" transform="translate(2.5 2.5)"/></g></svg>