<svg id="katman_1" data-name="katman 1" xmlns="http://www.w3.org/2000/svg" xmlns:xlink="http://www.w3.org/1999/xlink" viewBox="0 0 100 92"><defs><style>.cls-1{fill:none;}.cls-2{clip-path:url(#clip-path);}</style><clipPath id="clip-path" transform="translate(25 23)"><rect class="cls-1" x="-25" y="-23" width="100" height="92"/></clipPath></defs><title>icon-bag</title><g class="cls-2"><path d="M63,69H-13A12,12,0,0,1-25,57V7A12,12,0,0,1-13-5H63A12,12,0,0,1,75,7V57A12,12,0,0,1,63,69M-13,3a4,4,0,0,0-4,4V57a4,4,0,0,0,4,4H63a4,4,0,0,0,4-4V7a4,4,0,0,0-4-4Z" transform="translate(25 23)"/><path d="M43,3H7V-9.41A13.61,13.61,0,0,1,20.59-23h8.82A13.61,13.61,0,0,1,43-9.41ZM15-5H35V-9.41A5.6,5.6,0,0,0,29.41-15H20.59A5.6,5.6,0,0,0,15-9.41Z" transform="translate(25 23)"/><rect x="38" y="52" width="24" height="8"/></g></svg>