<svg id="katman_1" data-name="katman 1" xmlns="http://www.w3.org/2000/svg" xmlns:xlink="http://www.w3.org/1999/xlink" viewBox="0 0 100 100.37"><defs><style>.cls-1{fill:none;}.cls-2{clip-path:url(#clip-path);}</style><clipPath id="clip-path" transform="translate(-198.08 -198.81)"><rect class="cls-1" x="198.07" y="198.81" width="100" height="100.37"/></clipPath></defs><title>icon-mailist</title><g class="cls-2"><path d="M297.05,242.06s0,0,0,0l-.07,0-14.33-8V214.23a2.42,2.42,0,0,0-.66-1.54L268.1,199.41a3.14,3.14,0,0,0-1.5-.6H215.67a2.14,2.14,0,0,0-2.13,2.13v33.11l-14.35,8,0,0-.09,0a2.15,2.15,0,0,0-1,1.81v53.18a2.17,2.17,0,0,0,2.13,2.13H287c6.13,0,11.12-4.72,11.12-10.51v-44.8a2.15,2.15,0,0,0-1-1.82m-92.31,1.74,8.8-4.88v9.49L205,244Zm77.87,4.61v-9.49l8.74,4.85-.21.21Zm-45.39,17.12,9.87,5.13a2.14,2.14,0,0,0,2,0l9.42-4.9,30.92,28.76-.34.1a7.51,7.51,0,0,1-2.1.3H205.63Zm33.85-49.17h7.28V235.3a.54.54,0,0,0,0,.18v15.15l-30.27,15.74L217.8,250.63V203.07h46.69v6.72a6.58,6.58,0,0,0,6.58,6.57m-8.58,47.32,31.32-16.29v41.29a5.79,5.79,0,0,1-.85,3l-.12.21Zm8.58-51.58a2.31,2.31,0,0,1-2.32-2.31v-3.85l6.43,6.16ZM233.2,263.44l-30.86,28.72V247.39Z" transform="translate(-198.08 -198.81)"/><path d="M232.69,226.08h17.87a2.13,2.13,0,1,0,0-4.26H232.69a2.13,2.13,0,1,0,0,4.26" transform="translate(-198.08 -198.81)"/><path d="M258.09,226.08h3.75a2.13,2.13,0,1,0,0-4.26h-3.75a2.13,2.13,0,1,0,0,4.26" transform="translate(-198.08 -198.81)"/><path d="M232.69,235.16h5.4a2.13,2.13,0,0,0,0-4.26h-5.4a2.13,2.13,0,0,0,0,4.26" transform="translate(-198.08 -198.81)"/><path d="M245.07,233a2.13,2.13,0,0,0,2.13,2.13h19.42a2.13,2.13,0,0,0,0-4.26H247.2a2.14,2.14,0,0,0-2.13,2.13" transform="translate(-198.08 -198.81)"/><path d="M252.38,240.77H233.17a2.14,2.14,0,0,0,0,4.27h19.21a2.14,2.14,0,0,0,0-4.27" transform="translate(-198.08 -198.81)"/><path d="M264.89,240.77H260a2.14,2.14,0,0,0,0,4.27h4.93a2.14,2.14,0,0,0,0-4.27" transform="translate(-198.08 -198.81)"/></g></svg>