<svg id="katman_1" data-name="katman 1" xmlns="http://www.w3.org/2000/svg" xmlns:xlink="http://www.w3.org/1999/xlink" viewBox="0 0 100 83.18"><defs><style>.cls-1{fill:none;}.cls-2{clip-path:url(#clip-path);}</style><clipPath id="clip-path" transform="translate(2.5 2.08)"><rect class="cls-1" x="-2.5" y="-2.08" width="100" height="83.18"/></clipPath></defs><title>icon-code-browser-2</title><g class="cls-2"><path d="M91.71-2.08H3.29A5.79,5.79,0,0,0-2.5,3.71v71.6A5.79,5.79,0,0,0,3.29,81.1H91.71a5.8,5.8,0,0,0,5.79-5.79V3.71a5.8,5.8,0,0,0-5.79-5.79m0,26.28V73.75a1.58,1.58,0,0,1-1.58,1.58H4.84a1.58,1.58,0,0,1-1.58-1.58V24.2ZM3.26,18.43V5.26A1.58,1.58,0,0,1,4.84,3.68H90.15a1.58,1.58,0,0,1,1.58,1.58V18.43Z" transform="translate(2.5 2.08)"/><path d="M82.7,6.89a4.17,4.17,0,1,0,4.17,4.17A4.17,4.17,0,0,0,82.7,6.89" transform="translate(2.5 2.08)"/><path d="M70.41,6.89a4.17,4.17,0,0,0,0,8.33h0a4.17,4.17,0,1,0,0-8.33" transform="translate(2.5 2.08)"/><path d="M58.12,6.89a4.17,4.17,0,1,0,0,8.33h0a4.17,4.17,0,0,0,0-8.33" transform="translate(2.5 2.08)"/><path d="M20.82,52,36.53,63.77a2.86,2.86,0,0,0,1.73.58,2.9,2.9,0,0,0,2.54-1.51,3,3,0,0,0-.89-3.75L27.35,49.65l12.54-9.43a3,3,0,0,0,.85-3.87A2.9,2.9,0,0,0,38.81,35a2.86,2.86,0,0,0-2.28.53L20.82,47.35a2.89,2.89,0,0,0,0,4.61" transform="translate(2.5 2.08)"/><path d="M54.42,63.2h0a2.89,2.89,0,0,0,4,.57L74.17,52a2.92,2.92,0,0,0,1.15-2.31,2.89,2.89,0,0,0-1.15-2.3L58.56,35.62a3,3,0,0,0-4,.26A2.87,2.87,0,0,0,55,40.14l12.65,9.51L55,59.16a2.89,2.89,0,0,0-.57,4" transform="translate(2.5 2.08)"/></g></svg>