<svg id="katman_1" data-name="katman 1" xmlns="http://www.w3.org/2000/svg" xmlns:xlink="http://www.w3.org/1999/xlink" viewBox="0 0 100 101.02"><defs><style>.cls-1{fill:none;}.cls-2{clip-path:url(#clip-path);}.cls-3{fill-rule:evenodd;}</style><clipPath id="clip-path" transform="translate(-291.09 -294.06)"><rect class="cls-1" x="291.09" y="294.06" width="100" height="101.02"/></clipPath></defs><title>icon-loader</title><g class="cls-2"><path class="cls-3" d="M347.34,294.06a12.75,12.75,0,1,1-12.75,12.75,12.75,12.75,0,0,1,12.75-12.75m34.82,22.18a12.75,12.75,0,1,1-18,0,12.77,12.77,0,0,1,18,0m8.93,40.3a12.75,12.75,0,1,1-12.75-12.75,12.75,12.75,0,0,1,12.75,12.75m-23.92,33.07a10.28,10.28,0,1,1,0-14.54,10.27,10.27,0,0,1,0,14.54m-38.56,5.47a7.54,7.54,0,1,1,7.54-7.54,7.54,7.54,0,0,1-7.54,7.54m-31.08-20.7a7.47,7.47,0,1,1,10.56,0,7.47,7.47,0,0,1-10.56,0m-6.44-36.57a6.52,6.52,0,1,1,6.52,6.52,6.52,6.52,0,0,1-6.52-6.52m21-29.79a5.64,5.64,0,1,1,0,8,5.64,5.64,0,0,1,0-8" transform="translate(-291.09 -294.06)"/></g></svg>