<svg id="katman_1" data-name="katman 1" xmlns="http://www.w3.org/2000/svg" xmlns:xlink="http://www.w3.org/1999/xlink" viewBox="0 0 100 115.39"><defs><style>.cls-1{fill:none;}.cls-2{clip-path:url(#clip-path);}</style><clipPath id="clip-path" transform="translate(-355.57 -410.28)"><rect class="cls-1" x="355.57" y="410.28" width="100" height="115.39"/></clipPath></defs><title>icon-user-simple</title><g class="cls-2"><path d="M423.75,440.79a27.11,27.11,0,0,1-.21,3.24c.07-.54.14-1.1.22-1.64a24.83,24.83,0,0,1-1.7,6.22c.21-.49.42-1,.61-1.46a24.27,24.27,0,0,1-3.19,5.43l1-1.24a25.11,25.11,0,0,1-4.31,4.31l1.24-1a24.33,24.33,0,0,1-5.43,3.19l1.46-.61a24.83,24.83,0,0,1-6.22,1.7l1.64-.22a25.25,25.25,0,0,1-6.5,0L404,459a24.91,24.91,0,0,1-6.23-1.7l1.47.61a24,24,0,0,1-5.44-3.19l1.25,1a24.82,24.82,0,0,1-4.32-4.31c.32.42.64.82,1,1.24a24.76,24.76,0,0,1-3.2-5.43l.62,1.46a24.42,24.42,0,0,1-1.7-6.22c.07.54.15,1.1.22,1.64a25.25,25.25,0,0,1,0-6.5c-.07.54-.15,1.1-.22,1.64a24.6,24.6,0,0,1,1.7-6.23l-.62,1.47a24.37,24.37,0,0,1,3.2-5.44l-1,1.25A25.23,25.23,0,0,1,395,425.9l-1.25,1a24.83,24.83,0,0,1,5.44-3.2l-1.47.62a24.49,24.49,0,0,1,6.23-1.7l-1.64.22a25.25,25.25,0,0,1,6.5,0l-1.64-.22a24.42,24.42,0,0,1,6.22,1.7l-1.46-.62a24.31,24.31,0,0,1,5.43,3.2l-1.24-1a25.53,25.53,0,0,1,4.31,4.32l-1-1.25a25,25,0,0,1,3.19,5.44c-.21-.49-.42-1-.61-1.47a25,25,0,0,1,1.7,6.23c-.08-.54-.15-1.1-.22-1.64a27.44,27.44,0,0,1,.21,3.26,6.33,6.33,0,0,0,1.8,4.36,6.16,6.16,0,0,0,10.52-4.36,30.14,30.14,0,0,0-5.36-17.25,35.39,35.39,0,0,0-3.28-4,32.85,32.85,0,0,0-4-3.38,29.33,29.33,0,0,0-7.85-4.13,30.35,30.35,0,0,0-33.24,9,28.88,28.88,0,0,0-5.23,8.82,29.32,29.32,0,0,0-2,9.06,30.38,30.38,0,0,0,17.39,29.44,28.12,28.12,0,0,0,10.12,2.78,30.38,30.38,0,0,0,32.91-24.94,35.88,35.88,0,0,0,.5-5.38,6.42,6.42,0,0,0-1.8-4.37,6.17,6.17,0,0,0-10.52,4.37" transform="translate(-355.57 -410.28)"/><path d="M368.34,462.51a36.28,36.28,0,0,0-10.91,16.07,38.51,38.51,0,0,0-1.86,12.57V509a25.83,25.83,0,0,0,.32,4.1,15.26,15.26,0,0,0,4.83,8.56,17.18,17.18,0,0,0,5.5,3.2,14.69,14.69,0,0,0,4.92.82H440A15.75,15.75,0,0,0,455.06,514a34.48,34.48,0,0,0,.49-8.19V495.54c0-2,0-4.09,0-6.12A36.05,36.05,0,0,0,450,470.73a36.7,36.7,0,0,0-6-7.17,6.44,6.44,0,0,0-4.36-1.8,6.17,6.17,0,0,0-4.37,10.52,30.83,30.83,0,0,1,3.55,3.86l-1-1.24a31.35,31.35,0,0,1,3.89,6.67l-.62-1.47a30.37,30.37,0,0,1,2.06,7.62c-.08-.54-.15-1.1-.22-1.64a77.65,77.65,0,0,1,.25,9.65v12a30.82,30.82,0,0,1-.07,3.6c.07-.54.15-1.09.22-1.64a10,10,0,0,1-.63,2.4l.62-1.47a9.48,9.48,0,0,1-1.21,2.09l1-1.24a10.34,10.34,0,0,1-1.81,1.81l1.25-1a10.7,10.7,0,0,1-2.1,1.21l1.47-.62a10,10,0,0,1-2.39.63l1.64-.22a24,24,0,0,1-2.81.07H371.18a10.48,10.48,0,0,1-1.25-.07l1.64.22a10,10,0,0,1-2.39-.63l1.47.62a10.22,10.22,0,0,1-2.1-1.21l1.25,1a10.34,10.34,0,0,1-1.81-1.81l1,1.24a10.34,10.34,0,0,1-1.21-2.09c.21.49.42,1,.61,1.47a10.46,10.46,0,0,1-.62-2.4c.07.55.14,1.1.22,1.64a23.75,23.75,0,0,1-.08-3V491.48a42.36,42.36,0,0,1,.26-5.4c-.07.54-.14,1.1-.22,1.64A30.8,30.8,0,0,1,370,480.1l-.62,1.47a30.53,30.53,0,0,1,3.89-6.67l-1,1.24a30.59,30.59,0,0,1,4.75-4.9,6.19,6.19,0,0,0,1.8-4.37,6.26,6.26,0,0,0-1.8-4.36,6.19,6.19,0,0,0-4.36-1.8l-1.64.22a6.12,6.12,0,0,0-2.69,1.58" transform="translate(-355.57 -410.28)"/></g></svg>