<svg id="katman_1" data-name="katman 1" xmlns="http://www.w3.org/2000/svg" xmlns:xlink="http://www.w3.org/1999/xlink" viewBox="0 0 100 116.33"><defs><style>.cls-1{fill:none;}.cls-2{clip-path:url(#clip-path);}</style><clipPath id="clip-path" transform="translate(-177.25 39.89)"><rect class="cls-1" x="177.25" y="-39.89" width="100" height="116.33"/></clipPath></defs><title>icon-invoice</title><g class="cls-2"><path d="M205,18.14h44.48a5.56,5.56,0,0,0,0-11.11H205a5.56,5.56,0,0,0,0,11.11" transform="translate(-177.25 39.89)"/><path d="M205-1.61h44.48A5.56,5.56,0,0,0,255-7.17a5.56,5.56,0,0,0-5.54-5.56H205a5.56,5.56,0,0,0-5.54,5.56A5.56,5.56,0,0,0,205-1.61" transform="translate(-177.25 39.89)"/><path d="M205,37.89h44.48a5.56,5.56,0,0,0,0-11.11H205a5.56,5.56,0,0,0,0,11.11" transform="translate(-177.25 39.89)"/><path d="M267.65-39.89h-80.8c-5.29,0-9.6,4.72-9.6,10.52V69.35c0,3,.94,5.12,2.64,5.94s3.58.27,5.64-1.38l10.14-8.11a11.55,11.55,0,0,1,13.78,0l10.14,8.11a12.86,12.86,0,0,0,15.32,0l10.14-8.11a11.55,11.55,0,0,1,13.78,0L269,73.91C271,75.56,273,76,274.61,75.29s2.64-2.93,2.64-5.94V-29.37c0-5.8-4.31-10.52-9.6-10.52M188.34-28.78c6.88,0,70.9,0,77.8,0v87.3l-2.08-1.7a20.32,20.32,0,0,0-25.34,0L228.81,65a3.37,3.37,0,0,1-3.12,0l-9.92-8.12a20.32,20.32,0,0,0-25.33,0l-2.08,1.7V-25.56c0-1.55,0-2.56,0-3.22" transform="translate(-177.25 39.89)"/></g></svg>