<svg id="katman_1" data-name="katman 1" xmlns="http://www.w3.org/2000/svg" viewBox="0 0 200 200"><defs><style>.cls-1{fill:#242479;}</style></defs><title>ellipse-shape</title><path class="cls-1" d="M27.52,194.64a99.48,99.48,0,0,1-38.94-7.87,100.4,100.4,0,0,1-17-9.22,100.28,100.28,0,0,1-27-27,99.84,99.84,0,0,1-9.23-17,100.34,100.34,0,0,1,0-77.86,99.84,99.84,0,0,1,9.23-17,100.28,100.28,0,0,1,27-27,100.4,100.4,0,0,1,17-9.22A99.48,99.48,0,0,1,27.52-5.36,99.66,99.66,0,0,1,83.44,11.73a101.07,101.07,0,0,1,14.79,12.2,100.28,100.28,0,0,1,12.19,14.78,99.84,99.84,0,0,1,9.23,17,100.22,100.22,0,0,1,0,77.86,99.84,99.84,0,0,1-9.23,17,100.28,100.28,0,0,1-12.19,14.78,101.07,101.07,0,0,1-14.79,12.2,99.66,99.66,0,0,1-55.92,17.09Zm0-155.46A55.55,55.55,0,0,0-23.6,73.06a55.39,55.39,0,0,0,11.9,60.8,55.5,55.5,0,0,0,90.33-17.64,55.7,55.7,0,0,0,0-43.16A55.4,55.4,0,0,0,27.52,39.18Z" transform="translate(72.48 5.36)"/></svg>