<svg xmlns="http://www.w3.org/2000/svg" viewBox="0 0 88.9 81.9"><defs><style>.cls-1{fill:#fff;}.cls-2{fill:#83d6d8;}</style></defs><g id="katman_1" data-name="katman 1"><path class="cls-1" d="M76.7,53.2a6.6,6.6,0,0,0-.4-1.5c-1.4-4.1-7.2-5.3-10.7-6.4s-7-1.9-10.2-3.1c-.6-.2-1-.2-1.4-.7a15.6,15.6,0,0,0,6.4-12.6V17.4a10.8,10.8,0,0,0,2.1-6.3V0H40.1A11.1,11.1,0,0,0,29,11.1v8.4a.9.9,0,0,0,.1.5.6.6,0,0,0-.1.4v8.5a15.6,15.6,0,0,0,6.3,12.5c.2.2-1.6.8-1.8.9l-3.3.7-6.9,1.6a16.4,16.4,0,0,0-6.1,2.1,12.2,12.2,0,0,0-3.6,3.9A9,9,0,0,0,12.4,53a10.2,10.2,0,0,0-.5,3.5V81.9H77S77.1,55.9,76.7,53.2ZM33.1,11.1a7,7,0,0,1,7-7H58.4v9.1a4.3,4.3,0,0,1-4.3,4.3h-21Zm0,19V21.6H51.9a10.5,10.5,0,0,0,4.4-1v8.3c0,8.7-9.6,15.2-18.7,9.5A9.9,9.9,0,0,1,33.1,30.1ZM27.9,77.8h-12l.2-21.1a7.7,7.7,0,0,1,2.8-6.2,8.2,8.2,0,0,1,3.5-1.7l9.2-2,7.6,19.6h0l4.4,11.4ZM42.7,53.1v10h-.2l-.2.2L35.6,46a5.5,5.5,0,0,0,3.2-2.6,14.5,14.5,0,0,0,5.9,1.2,16.2,16.2,0,0,0,5.8-1.1A5.4,5.4,0,0,0,53.7,46l-7,18V52.1h0C44.9,50.1,42.7,51.3,42.7,53.1ZM61.4,77.8H45.7l4-10.3h0l8-20.7h.5L67,48.9a8.6,8.6,0,0,1,5.5,4h-.2a9.7,9.7,0,0,1,1,3.8V77.9Z"/><path class="cls-2" d="M42.7,53.1v10h-.2l-.2.2L35.6,46a5.5,5.5,0,0,0,3.2-2.6,14.5,14.5,0,0,0,5.9,1.2,16.2,16.2,0,0,0,5.8-1.1A5.4,5.4,0,0,0,53.7,46l-7,18V52.1h0C44.9,50.1,42.7,51.3,42.7,53.1Z"/></g></svg>