<svg xmlns="http://www.w3.org/2000/svg" viewBox="0 0 88.9 81.9"><defs><style>.cls-1{fill:#fff;}.cls-2{fill:#83d6d8;}</style></defs><g id="katman_1" data-name="katman 1"><path class="cls-1" d="M82.2,49a1.7,1.7,0,0,0-1.7,1.3,37.1,37.1,0,0,1-36,27.8H41.4A37.4,37.4,0,0,1,7.5,43.9a36.6,36.6,0,0,1,9.8-28.2A37.1,37.1,0,0,1,81,34.2a1.8,1.8,0,0,0,1.8,1.5h0a1.8,1.8,0,0,0,1.8-2.1A41.5,41.5,0,0,0,72.3,11.1a40.8,40.8,0,0,0-58.1,2.7,40.7,40.7,0,0,0-10.4,25A41.2,41.2,0,0,0,18.9,72.7a40.7,40.7,0,0,0,25.5,9h.2A40.3,40.3,0,0,0,73.3,69.8,40.6,40.6,0,0,0,84,51.2,1.8,1.8,0,0,0,82.2,49Z"/><path class="cls-1" d="M83.2,40.7a1.9,1.9,0,1,0,1.9,1.9A2,2,0,0,0,83.2,40.7Z"/><path class="cls-1" d="M67.6,60.9l.2-.3.7-.8.2-.3L70.5,57a2.5,2.5,0,0,1,.4-.7l.3-.6a5.9,5.9,0,0,0,.4-.8l.3-.5a11.7,11.7,0,0,0,.5-1.1c0-.1.1-.1.1-.2s.8-2,1.1-3a.1.1,0,0,1,.1-.1,8.3,8.3,0,0,1,.4-1.5h0l.3-1.5h.1a29.1,29.1,0,0,0,.4-3.1h0a2.8,2.8,0,0,1,.1-.9V39.2a2.5,2.5,0,0,1-.1-.8v-.2c-.1-1-.2-2.1-.4-3.1h-.1q-.2-.9-.3-1.5v-.2c-.2-.5-.3-1-.5-1.5h0a28.3,28.3,0,0,0-1.1-3.1v-.2l-.5-1.1-.2-.4a3.1,3.1,0,0,1-.5-1l-.3-.4-.5-.9a2.1,2.1,0,0,1-.4-.6l-.6-.9-.5-.7a1,1,0,0,1-.4-.5l-.6-.7-.3-.4-.6-.7-.3-.2-2.4-2.4-.3-.2-.8-.6-.4-.3-.7-.6-.4-.2-1.6-1-.3-.2-.7-.4-.7-.4-.6-.3-.8-.3-.5-.3-1.1-.4h-.3l-3-1h-.3l-1.3-.3h-.3l-1.3-.2c-.1,0-.2,0-.2-.1H41.8a29.1,29.1,0,0,0-12.1,3.8h0l-1.1.6h0l-1,.6h-.1A30.9,30.9,0,0,0,15.6,31.3h0a5.6,5.6,0,0,1-.4,1.2h0l-.3,1.1v.2L14.6,35v.2c-.1.4-.1.7-.2,1.1a.4.4,0,0,1-.1.3,2.8,2.8,0,0,1-.1.9V38c0,.1-.1.3-.1.4v1a1.5,1.5,0,0,1-.1.7v1.4c0,.2.1.4.1.6v1.4a1.3,1.3,0,0,1,.1.6c0,.3.1.5.1.8a.9.9,0,0,0,.1.5,1.9,1.9,0,0,0,.1.8c0,.2,0,.3.1.4a2.9,2.9,0,0,0,.2.9v.3l.3,1V49a22.3,22.3,0,0,0,1.6,4.3.4.4,0,0,0,.1.3l.3.7.3.5.3.5.3.6.3.5.3.7.3.4.3.5h.1A30.2,30.2,0,0,0,39.9,71.1H40l1.1.2H49l1.1-.2h.5l1.2-.3h.3l1.5-.4H54l1-.4.6-.2.7-.3.8-.3.5-.3.8-.4h.1l3.3-2h.1l1-.7H63a40.2,40.2,0,0,0,3.8-3.4h.1ZM22.1,56h0A27.7,27.7,0,0,1,18,45.8h0c-.1-.3-.1-.6-.2-.9v-.2c0-.3-.1-.5-.1-.8s-.1-.7-.1-1V39a2.8,2.8,0,0,0,.1-.9.4.4,0,0,1,.1-.3A27.1,27.1,0,0,1,42.2,14.1H49A27.1,27.1,0,0,1,71.2,37.2c0,.1.1.2.1.3a2.8,2.8,0,0,0,.1.9V39c0,.3.1.5.1.8v2.1a2.2,2.2,0,0,1-.1.8v.6c0,.3-.1.6-.1.9v.2c-.1.5-.1.9-.2,1.3h0a27,27,0,0,1-8.6,15.4h-.1a27.2,27.2,0,0,1-14.9,6.7H41.1a27.2,27.2,0,0,1-12.2-4.8c-.1,0-.1,0-.1-.1A27.1,27.1,0,0,1,22.1,56Z"/><rect class="cls-1" x="20.1" y="40.3" width="8.1" height="3.57" rx="1.6"/><rect class="cls-1" x="43" y="57" width="3.6" height="7.89" rx="1.6"/><rect class="cls-1" x="61.8" y="39.6" width="7.8" height="3.56" rx="1.6"/><path class="cls-1" d="M58.5,41a6.4,6.4,0,0,1-.2-.7,1.1,1.1,0,0,0-.2-.5l-.3-.6A5.3,5.3,0,0,0,51.7,37l-2.7.9V22.5a5.2,5.2,0,0,0-5.2-5.3,5.3,5.3,0,0,0-5.3,5.3V45.1a5.5,5.5,0,0,0,5.3,5.3,4.1,4.1,0,0,0,1.6-.3L54.9,47h0a5.3,5.3,0,0,0,3.7-5.3C58.6,41.4,58.5,41.2,58.5,41Z"/><path class="cls-2" d="M53.9,43.7l-9.6,3.1h-.5a2.1,2.1,0,0,1-1.1-.4,1.7,1.7,0,0,1-.7-1.4V22.5a1.8,1.8,0,0,1,1.8-1.8,1.8,1.8,0,0,1,1.7,1.8V42.7l7.3-2.4a1.8,1.8,0,0,1,2,.8.1.1,0,0,1,.1.1h0v.2h0v.2h0A2,2,0,0,1,53.9,43.7Z"/></g></svg>