<svg xmlns="http://www.w3.org/2000/svg" viewBox="0 0 88.9 81.9"><defs><style>.cls-1{fill:#83d6d8;}.cls-2{fill:#fff;}</style></defs><g id="katman_1" data-name="katman 1"><polygon class="cls-1" points="32.2 4.1 51.5 4.1 56 4.1 56.7 4.1 56.7 15.9 44.4 20 32.2 15.9 32.2 4.1"/><path class="cls-2" d="M74.8,75.5h0a2,2,0,0,0-2-1.8,1.9,1.9,0,0,0-1.9,1.8v2.4H48L62.8,54.1a12,12,0,0,1,8,10.4,2,2,0,0,0,1.9,1.9,2,2,0,0,0,2-2h0A16.1,16.1,0,0,0,58.6,49.4H51.1v-1a11.6,11.6,0,0,0,9.5-11.2v-4a6.8,6.8,0,0,0,4.7-6.4,6.6,6.6,0,0,0-4.7-6.4V4.1h8.7v8.5a2,2,0,0,0,1.9,1.9,2,2,0,0,0,2-1.9V2.2a2,2,0,0,0-2-2H17.6a1.9,1.9,0,0,0-1.9,2,1.9,1.9,0,0,0,1.9,1.9H28.3V20.4a6.6,6.6,0,0,0-4.7,6.4,6.8,6.8,0,0,0,4.7,6.4v4a11.5,11.5,0,0,0,9.5,11.2v1H30.2a15.9,15.9,0,0,0-11.6,5,16.2,16.2,0,0,0-4.5,11.2V79.8A2,2,0,0,0,16,81.7H72.8a2,2,0,0,0,2-1.9V75.5ZM32.2,4.1H56.7V15.9L44.4,20,32.2,15.9Zm0,33.1V31.5a1.9,1.9,0,0,0-2-1.9,2.8,2.8,0,0,1-2.7-2.8A2.7,2.7,0,0,1,30.2,24a2,2,0,0,0,2-2V20l11.6,3.9a2.9,2.9,0,0,0,1.3,0L56.7,20v2a2,2,0,0,0,1.9,2,2.7,2.7,0,0,1,2.8,2.8,2.8,2.8,0,0,1-2.8,2.8,1.9,1.9,0,0,0-1.9,1.9v5.7a7.6,7.6,0,0,1-7.6,7.5,2,2,0,0,0-1.9,1.9v4.3l-2.8,5.6-2.7-5.6V46.6a2,2,0,0,0-2-1.9A7.6,7.6,0,0,1,32.2,37.2ZM18,77.8V65.6a12.1,12.1,0,0,1,8.1-11.5L40.9,77.8ZM30.2,53.3h8.3l4.2,8.4a1.8,1.8,0,0,0,1.7,1.1,2,2,0,0,0,1.8-1.1l4.2-8.4h8.3L44.4,76.1Z"/><circle class="cls-2" cx="72.7" cy="69.8" r="2"/></g></svg>