<svg id="Ayırma_Modu" data-name="Ayırma Modu" xmlns="http://www.w3.org/2000/svg" viewBox="0 0 100 35.95"><defs><style>.cls-1{fill:#fff;}</style></defs><title>logo-white</title><path class="cls-1" d="M230.12-90.13l.35.16c2.22,1.18,4.64.63,6.81-.67a7.52,7.52,0,0,0,3.77-5.78,22.71,22.71,0,0,0,0-3.5,0,0,0,0,0,0,0v-.12c0-.5,0-1,0-1.5,0-1.07,0-2.14,0-3.22h0v-.42a.06.06,0,0,0,0-.09,1.1,1.1,0,0,0,0-.18q0-8.45.05-16.89c0-.09,0-.2-.07-.28a2.4,2.4,0,0,1-.27.16l-7.19,4.18a.51.51,0,0,0-.31.52c0,3.14,0,6.28,0,9.42v4.94s0,.09,0,.13c0,2,0,4,0,5.93-.17.09-.27,0-.39-.11l-5.05-2.84-4.26-2.35c-.32-.18-.38-.15-.38.23,0,1,0,2,0,3s0,2.06,0,3.21c0,.53,0,1,0,1.6s0,.61.42.87c1.65.94,3.3,1.89,4.95,2.82" transform="translate(-209.87 122.66)"/><path class="cls-1" d="M217.76-112a.62.62,0,0,1,.39.11l9.24,5.27c.33.19.45.13.49-.25a24.48,24.48,0,0,0,0-2.57c0-1.7.13-3.34.08-5,0-.64-.08-.78-.76-1.19l-.4-.23c-1.48-1-2.8-1.64-4.33-2.53-.54-.31-.91-.46-1.55-.78,0,0-.31-.14-.35-.15l.14.06c-.26-.12-.5-.22-.79-.33a7,7,0,0,0-6.22.91,7.42,7.42,0,0,0-3.65,5.34,34.67,34.67,0,0,0-.13,5.49c0,.87,0,1.74,0,2.6,0,1.55,0,3.09,0,4.63,0,0,0,.07,0,.11q0,6.81,0,13.63c0,.06,0,.15.08.19l7.58-4.4c.2-.12.18-.26.18-.43,0-2.17,0-4.34,0-6.51,0-1.59,0-3.18,0-4.76v-.13s0-.08,0-.15c0-.28,0-.4,0-.66,0-2.75,0-5.49,0-8.24" transform="translate(-209.87 122.66)"/><path class="cls-1" d="M258.27-117v10.18h-2.19l-3.75-6.94v6.94h-1.91V-117h2.19l3.75,6.94V-117Z" transform="translate(-209.87 122.66)"/><path class="cls-1" d="M260.15-114l2-.49v7.68h-2Zm0-1.49V-117h2v1.5Z" transform="translate(-209.87 122.66)"/><path class="cls-1" d="M268-115.13v8.29h-2v-8.29h-2.65V-117h7.35v1.89Z" transform="translate(-209.87 122.66)"/><path class="cls-1" d="M278.44-117v1.92h-4.63V-113h3.75v1.93h-3.75v2.31h4.63v1.93h-6.66V-117Z" transform="translate(-209.87 122.66)"/><path class="cls-1" d="M281.91-117v8.25h4.27v1.93h-6.3V-117Z" transform="translate(-209.87 122.66)"/><path class="cls-1" d="M287.37-114l2-.49v7.68h-2Zm0-1.49V-117h2v1.5Z" transform="translate(-209.87 122.66)"/><path class="cls-1" d="M293.3-109.44v2.6h-2V-117h2v4.78l3.52-4.78h2.39l-3.13,4,3.28,6.17h-2.29l-2.35-4.43Z" transform="translate(-209.87 122.66)"/><path class="cls-1" d="M302.38-117v8.25h4.26v1.93h-6.3V-117Z" transform="translate(-209.87 122.66)"/><path class="cls-1" d="M307.83-114l2-.49v7.68h-2Zm0-1.49V-117h2v1.5Z" transform="translate(-209.87 122.66)"/><path class="cls-1" d="M255.57-102.65a1.92,1.92,0,0,1,2,2v1.44a1.66,1.66,0,0,1-.89,1.53,1.65,1.65,0,0,1,1,1.53v1.66a1.92,1.92,0,0,1-2,2h-5.26v-10.18Zm-.51,4.07c.37,0,.48-.08.48-.48v-1.21a.43.43,0,0,0-.48-.48h-2.6v2.17Zm.11,4.22a.43.43,0,0,0,.48-.48v-1.47c0-.43-.25-.46-.65-.46h-2.54v2.41Z" transform="translate(-209.87 122.66)"/><path class="cls-1" d="M259.25-99.66l2-.49v7.68h-2Zm0-1.48v-1.51h2v1.51Z" transform="translate(-209.87 122.66)"/><path class="cls-1" d="M265.2-102.65v8.26h4.27v1.92h-6.31v-10.18Z" transform="translate(-209.87 122.66)"/><path class="cls-1" d="M270.66-99.9l2-.25v7.68h-2Zm0-1.24v-1.51h2v1.51Z" transform="translate(-209.87 122.66)"/><path class="cls-1" d="M277.36-92.41H276.3a1.92,1.92,0,0,1-2-2v-1.3h2v.9a.44.44,0,0,0,.48.49H279a.44.44,0,0,0,.48-.49v-1.07c0-.31-.17-.41-.48-.48l-2.63-.57c-1.1-.24-2-.9-2-2v-1.73a1.91,1.91,0,0,1,2-2h3a1.91,1.91,0,0,1,2,2v1.19h-2v-.79a.43.43,0,0,0-.48-.48h-2a.43.43,0,0,0-.48.48v1c0,.31.17.41.48.48l2.63.57c1.1.24,2,.9,2,2v1.84a1.92,1.92,0,0,1-2,2h-2.11Z" transform="translate(-209.87 122.66)"/><path class="cls-1" d="M283.06-99.66l2-.49v7.68h-2Zm0-1.48v-1.51h2v1.51Z" transform="translate(-209.87 122.66)"/><path class="cls-1" d="M296.7-92.47h-1.92v-6.78l-2.2,5.16H291.1l-2.2-5.16v6.78H287v-10.18h2.23l2.63,6,2.63-6h2.23Z" transform="translate(-209.87 122.66)"/><rect class="cls-1" x="68.24" y="30.07" width="2.04" height="1.75"/></svg>