<?xml version="1.0" encoding="utf-8"?>
<!-- Generator: Adobe Illustrator 24.2.3, SVG Export Plug-In . SVG Version: 6.00 Build 0)  -->
<svg version="1.1" id="Ayırma_Modu" xmlns="http://www.w3.org/2000/svg" xmlns:xlink="http://www.w3.org/1999/xlink" x="0px"
	 y="0px" viewBox="0 0 100 36" style="enable-background:new 0 0 100 36;" xml:space="preserve">
<style type="text/css">
	.st0{fill:#5A5F81;}
</style>
<g>
	<path class="st0" d="M31.2,22.6c0-0.5,0-1,0-1.5c0-1.1,0-2.1,0-3.2v-0.4v-0.1l0,0c0-0.1,0-0.1,0-0.2c0-5.6,0-11.3,0.1-16.9
		c0-0.1,0-0.2-0.1-0.3c-0.1,0.1-0.2,0.1-0.3,0.2l-7.2,4.2c-0.2,0.1-0.3,0.3-0.3,0.5c0,3.1,0,6.3,0,9.4v4.9v0.1c0,2,0,4,0,5.9
		c-0.2,0.1-0.3,0-0.4-0.1l-5-2.8L13.7,20c-0.3-0.2-0.4-0.2-0.4,0.2c0,1,0,2,0,3s0,2.1,0,3.2c0,0.5,0,1,0,1.6s0,0.6,0.4,0.9
		c1.7,0.9,3.3,1.9,5,2.8l1.6,0.8l0.4,0.2c2.2,1.2,4.6,0.6,6.8-0.7c2.1-1.2,3.5-3.4,3.8-5.8c0.1-1.2,0.1-2.3,0-3.5L31.2,22.6
		L31.2,22.6z"/>
	<path class="st0" d="M18,15.8c0-0.9,0-1.7,0-2.6c0-1.7,0.1-3.3,0.1-5c0-0.6-0.1-0.8-0.8-1.2L17,6.8c-1.5-1-2.8-1.6-4.3-2.5
		c-0.5-0.3-0.9-0.5-1.5-0.8c0,0-0.2-0.1-0.3-0.1c-0.2-0.1-0.4-0.2-0.7-0.3C8,2.3,5.7,2.7,3.9,4c-2,1.1-3.4,3-3.7,5.3
		C0,11.1,0,12.9,0.1,14.8c0,0.9,0,1.7,0,2.6c0,1.5,0,3.1,0,4.6v0.1c0,4.5,0,9.1,0,13.6c0,0.1,0,0.2,0.1,0.2l7.6-4.4
		C8,31.4,8,31.2,8,31.1c0-2.2,0-4.3,0-6.5c0-1.6,0-3.2,0-4.8v-0.1c0,0,0-0.1,0-0.2c0-0.3,0-0.4,0-0.7c0-2.8,0-5.5,0-8.2l0,0
		c0.1,0,0.3,0,0.4,0.1l9.2,5.3C17.9,16.2,18,16.1,18,15.8z"/>
	<polygon class="st0" points="46.5,12.6 42.8,5.6 40.6,5.6 40.6,15.8 42.5,15.8 42.5,8.9 46.2,15.8 48.4,15.8 48.4,5.6 46.5,5.6 	
		"/>
	<polygon class="st0" points="50.3,7.1 52.3,7.1 52.3,5.6 50.3,5.6 	"/>
	<polygon class="st0" points="50.3,15.8 52.3,15.8 52.3,8.1 50.3,8.6 	"/>
	<polygon class="st0" points="56.2,15.8 58.2,15.8 58.2,7.5 60.9,7.5 60.9,5.6 53.5,5.6 53.5,7.5 56.2,7.5 	"/>
	<polygon class="st0" points="68.6,13.9 64,13.9 64,11.6 67.7,11.6 67.7,9.6 64,9.6 64,7.5 68.6,7.5 68.6,5.6 61.9,5.6 61.9,15.8 
		68.6,15.8 	"/>
	<polygon class="st0" points="72.1,5.6 70,5.6 70,15.8 76.3,15.8 76.3,13.9 72.1,13.9 	"/>
	<polygon class="st0" points="79.5,5.6 77.5,5.6 77.5,7.1 79.5,7.1 	"/>
	<polygon class="st0" points="79.5,8.1 77.5,8.6 77.5,15.8 79.5,15.8 	"/>
	<polygon class="st0" points="89.4,5.6 87,5.6 83.5,10.4 83.5,5.6 81.5,5.6 81.5,15.8 83.5,15.8 83.5,13.2 84.9,11.4 87.2,15.8 
		89.5,15.8 86.2,9.6 	"/>
	<polygon class="st0" points="92.5,5.6 90.5,5.6 90.5,15.8 96.8,15.8 96.8,13.9 92.5,13.9 	"/>
	<polygon class="st0" points="98,15.8 100,15.8 100,8.1 98,8.6 	"/>
	<polygon class="st0" points="98,5.6 98,7.1 100,7.1 100,5.6 	"/>
	<path class="st0" d="M46.8,25c0.6-0.3,0.9-0.9,0.9-1.5V22c0-0.1,0-0.1,0-0.2c0-1.1-0.9-1.9-2-1.8h-5.2v10.2h5.3c0.1,0,0.1,0,0.2,0
		c1.1,0,1.9-0.9,1.8-2v-1.7C47.8,25.8,47.4,25.2,46.8,25z M42.6,21.9h2.6h0.1c0.2,0,0.4,0.2,0.4,0.5v1.2c0,0.4-0.1,0.5-0.5,0.5h-2.6
		V21.9z M45.8,27.8v0.1c0,0.2-0.2,0.4-0.5,0.4h-2.7v-2.4h2.5c0.4,0,0.7,0,0.7,0.5V27.8z"/>
	<polygon class="st0" points="49.4,30.2 51.4,30.2 51.4,22.5 49.4,23 	"/>
	<rect x="49.4" y="20" class="st0" width="2" height="1.5"/>
	<polygon class="st0" points="55.4,20 53.3,20 53.3,30.2 59.6,30.2 59.6,28.2 55.4,28.2 	"/>
	<polygon class="st0" points="60.8,30.2 62.8,30.2 62.8,22.5 60.8,22.7 	"/>
	<rect x="60.8" y="20" class="st0" width="2" height="1.5"/>
	<path class="st0" d="M69.8,24.4l-2.6-0.6c-0.3-0.1-0.5-0.2-0.5-0.5v-1v-0.1c0-0.2,0.2-0.4,0.5-0.4h2h0.1c0.2,0,0.4,0.2,0.4,0.5v0.8
		h2V22c0-0.1,0-0.1,0-0.2c-0.1-1.1-0.9-1.9-2-1.8h-3c-0.1,0-0.1,0-0.2,0c-1.1,0.1-1.9,0.9-1.8,2v1.7c0,1.1,0.9,1.8,2,2l2.6,0.6
		c0.3,0.1,0.5,0.2,0.5,0.5v1.1V28c0,0.2-0.2,0.4-0.5,0.4H67h-0.1c-0.2,0-0.4-0.2-0.4-0.5V27h-2v1.3c0,0.1,0,0.1,0,0.2
		c0,1.1,0.9,1.9,2,1.9h0.6v1.5h2v-1.5h0.6c0.1,0,0.1,0,0.2,0c1.1,0,1.9-0.9,1.8-2v-1.8C71.8,25.3,70.9,24.7,69.8,24.4z"/>
	<rect x="73.2" y="20" class="st0" width="2" height="1.5"/>
	<polygon class="st0" points="73.2,30.2 75.2,30.2 75.2,22.5 73.2,23 	"/>
	<polygon class="st0" points="82,26 79.4,20 77.2,20 77.2,30.2 79.1,30.2 79.1,23.4 81.3,28.5 82.7,28.5 84.9,23.4 84.9,30.2 
		86.9,30.2 86.9,20 84.6,20 	"/>
</g>
</svg>
